{"glyphs":{"0":{"ha":760,"x_min":75,"x_max":685,"o":"m 379 -15 q 152 91 229 -15 q 75 397 75 197 q 153 695 75 589 q 379 801 231 801 q 606 695 528 801 q 685 397 685 589 q 607 91 685 197 q 379 -15 529 -15 m 379 81 q 508 160 464 81 q 551 397 551 240 q 508 627 551 549 q 379 706 464 706 q 251 627 294 706 q 208 397 208 549 q 251 161 208 242 q 379 81 294 81 z "},"1":{"ha":471,"x_min":57,"x_max":435,"o":"m 61 89 l 183 89 l 183 683 l 61 664 l 57 750 l 317 788 l 317 89 l 435 89 l 435 0 l 61 0 l 61 89 z "},"2":{"ha":663,"x_min":57,"x_max":596,"o":"m 596 235 l 596 0 l 57 0 l 57 85 l 288 314 q 422 464 386 411 q 458 581 458 517 q 426 672 458 636 q 329 707 393 707 q 224 669 263 707 q 186 561 186 631 q 197 478 186 526 l 79 478 q 67 567 67 522 q 140 737 67 672 q 343 801 214 801 q 523 744 457 801 q 589 596 589 688 q 564 490 589 540 q 494 388 539 439 q 365 254 449 336 l 203 93 l 493 93 l 493 235 l 596 235 z "},"3":{"ha":690,"x_min":42,"x_max":632,"o":"m 468 414 q 588 343 543 396 q 632 213 632 290 q 555 47 632 107 q 344 -14 478 -14 q 159 32 235 -14 q 42 163 83 78 l 147 214 q 226 119 176 153 q 343 86 275 86 q 457 121 415 86 q 499 217 499 156 q 444 328 499 292 q 276 364 390 364 l 276 453 q 435 488 381 453 q 489 589 489 522 q 452 672 489 642 q 347 703 415 703 q 234 668 281 703 q 168 571 188 633 l 60 615 q 168 753 90 704 q 353 801 246 801 q 545 746 475 801 q 615 599 615 690 q 575 483 615 532 q 468 414 535 435 z "},"4":{"ha":672,"x_min":11,"x_max":628,"o":"m 256 89 l 383 89 l 383 215 l 22 215 l 11 292 l 385 788 l 507 788 l 507 300 l 628 300 l 628 215 l 507 215 l 507 89 l 603 89 l 603 0 l 256 0 l 256 89 m 383 300 l 383 649 l 124 300 l 383 300 z "},"5":{"ha":710,"x_min":60,"x_max":650,"o":"m 389 506 q 581 435 513 506 q 650 250 650 365 q 568 56 650 126 q 353 -15 486 -15 q 60 111 183 -15 l 128 196 q 229 117 176 144 q 346 90 282 90 q 474 133 428 90 q 521 247 521 175 q 478 360 521 318 q 360 401 436 401 q 194 332 264 401 l 96 371 l 106 788 l 607 788 l 607 585 l 499 585 l 499 693 l 210 693 l 203 449 q 288 491 239 476 q 389 506 336 506 z "},"6":{"ha":669,"x_min":56,"x_max":621,"o":"m 372 508 q 499 476 442 508 q 588 387 556 444 q 621 254 621 329 q 585 115 621 176 q 485 20 549 54 q 340 -14 421 -14 q 192 19 257 -14 q 92 113 128 53 q 56 253 56 174 q 83 403 56 336 q 193 593 111 471 l 368 856 l 467 789 l 260 483 q 372 508 310 508 m 342 83 q 455 130 414 83 q 496 253 496 176 q 456 372 496 328 q 347 417 417 417 q 232 372 279 417 q 185 250 185 328 q 226 130 185 176 q 342 83 267 83 z "},"7":{"ha":632,"x_min":22,"x_max":576,"o":"m 440 696 l 135 696 l 135 565 l 22 565 l 22 788 l 576 788 l 576 703 l 310 0 l 178 0 l 440 696 z "},"8":{"ha":676,"x_min":46,"x_max":631,"o":"m 339 -15 q 124 47 201 -15 q 46 210 46 110 q 85 331 46 279 q 197 408 125 383 q 102 483 132 438 q 72 590 72 528 q 144 744 72 686 q 339 801 217 801 q 533 745 460 801 q 607 596 607 689 q 574 483 607 531 q 476 408 542 435 q 592 336 553 386 q 631 214 631 286 q 595 95 631 147 q 494 14 560 43 q 339 -15 428 -15 m 393 442 q 451 495 424 457 q 478 588 478 533 q 442 679 478 644 q 343 714 407 714 q 243 679 279 714 q 207 586 207 644 q 254 489 207 524 q 393 442 301 454 m 338 71 q 449 110 408 71 q 490 214 490 149 q 441 318 490 283 q 281 372 392 353 q 212 317 243 361 q 181 214 181 274 q 223 110 181 149 q 338 71 265 71 z "},"9":{"ha":669,"x_min":49,"x_max":615,"o":"m 331 803 q 478 769 414 803 q 579 676 543 736 q 615 536 615 615 q 588 385 615 453 q 478 194 560 318 l 303 -68 l 203 -1 l 411 306 q 299 279 363 279 q 171 311 228 279 q 81 401 114 343 q 49 533 49 458 q 85 674 49 613 q 185 769 121 735 q 331 803 250 803 m 324 371 q 438 416 392 371 q 485 539 485 461 q 444 658 485 611 q 329 704 404 704 q 215 658 257 704 q 174 535 174 611 q 214 415 174 460 q 324 371 254 371 z "},"\u0000":{"ha":0,"x_min":0,"x_max":0,"o":""},"\r":{"ha":428,"x_min":0,"x_max":0,"o":""}," ":{"ha":428,"x_min":0,"x_max":0,"o":""},"A":{"ha":958,"x_min":36,"x_max":921,"o":"m 36 92 l 132 92 l 350 696 l 265 696 l 265 788 l 693 788 l 693 696 l 606 696 l 831 92 l 921 92 l 921 0 l 578 0 l 578 92 l 678 92 l 608 297 l 335 297 l 265 92 l 363 92 l 363 0 l 36 0 l 36 92 m 581 386 l 476 694 l 469 694 l 361 386 l 581 386 z "},"Á":{"ha":958,"x_min":36,"x_max":921,"o":"m 36 92 l 132 92 l 350 696 l 265 696 l 265 788 l 693 788 l 693 696 l 606 696 l 831 92 l 921 92 l 921 0 l 578 0 l 578 92 l 678 92 l 608 297 l 335 297 l 265 92 l 363 92 l 363 0 l 36 0 l 36 92 m 581 386 l 476 694 l 469 694 l 361 386 l 581 386 m 510 1108 l 647 1108 l 519 896 l 440 896 l 510 1108 z "},"Ă":{"ha":958,"x_min":36,"x_max":921,"o":"m 36 92 l 132 92 l 350 696 l 265 696 l 265 788 l 693 788 l 693 696 l 606 696 l 831 92 l 921 92 l 921 0 l 578 0 l 578 92 l 678 92 l 608 297 l 335 297 l 265 92 l 363 92 l 363 0 l 36 0 l 36 92 m 581 386 l 476 694 l 469 694 l 361 386 l 581 386 m 476 871 q 359 912 404 871 q 307 1026 314 953 l 393 1026 q 479 947 408 947 q 536 967 514 947 q 564 1026 558 988 l 651 1026 q 597 911 643 951 q 476 871 551 871 z "},"Ắ":{"ha":958,"x_min":36,"x_max":921,"o":"m 36 92 l 132 92 l 350 696 l 265 696 l 265 788 l 693 788 l 693 696 l 606 696 l 831 92 l 921 92 l 921 0 l 578 0 l 578 92 l 678 92 l 608 297 l 335 297 l 265 92 l 363 92 l 363 0 l 36 0 l 36 92 m 581 386 l 476 694 l 469 694 l 361 386 l 581 386 m 490 1199 l 619 1199 l 508 1042 l 433 1042 l 490 1199 m 475 869 q 358 910 403 869 q 307 1019 314 950 l 390 1019 q 479 942 406 942 q 538 962 515 942 q 567 1019 561 982 l 651 1019 q 597 908 643 947 q 475 869 551 869 z "},"Ặ":{"ha":958,"x_min":36,"x_max":921,"o":"m 36 92 l 132 92 l 350 696 l 265 696 l 265 788 l 693 788 l 693 696 l 606 696 l 831 92 l 921 92 l 921 0 l 578 0 l 578 92 l 678 92 l 608 297 l 335 297 l 265 92 l 363 92 l 363 0 l 36 0 l 36 92 m 581 386 l 476 694 l 469 694 l 361 386 l 581 386 m 476 871 q 359 912 404 871 q 307 1026 314 953 l 393 1026 q 479 947 408 947 q 536 967 514 947 q 564 1026 558 988 l 651 1026 q 597 911 643 951 q 476 871 551 871 m 471 -215 q 416 -194 438 -215 q 394 -143 394 -174 q 416 -92 394 -112 q 471 -72 438 -72 q 526 -92 506 -72 q 547 -146 547 -111 q 526 -195 547 -175 q 471 -215 504 -215 z "},"Ằ":{"ha":958,"x_min":36,"x_max":921,"o":"m 36 92 l 132 92 l 350 696 l 265 696 l 265 788 l 693 788 l 693 696 l 606 696 l 831 92 l 921 92 l 921 0 l 578 0 l 578 92 l 678 92 l 608 297 l 335 297 l 265 92 l 363 92 l 363 0 l 36 0 l 36 92 m 581 386 l 476 694 l 469 694 l 361 386 l 581 386 m 338 1199 l 467 1199 l 524 1042 l 449 1042 l 338 1199 m 475 869 q 358 910 403 869 q 307 1019 314 950 l 390 1019 q 479 942 406 942 q 538 962 515 942 q 567 1019 561 982 l 651 1019 q 597 908 643 947 q 475 869 551 869 z "},"Ẳ":{"ha":958,"x_min":36,"x_max":921,"o":"m 36 92 l 132 92 l 350 696 l 265 696 l 265 788 l 693 788 l 693 696 l 606 696 l 831 92 l 921 92 l 921 0 l 578 0 l 578 92 l 678 92 l 608 297 l 335 297 l 265 92 l 363 92 l 363 0 l 36 0 l 36 92 m 581 386 l 476 694 l 469 694 l 361 386 l 581 386 m 450 1079 q 485 1099 474 1088 q 496 1131 496 1111 q 483 1158 496 1149 q 447 1168 469 1168 q 382 1149 414 1168 l 360 1210 q 460 1240 406 1240 q 546 1211 513 1240 q 579 1138 579 1182 q 469 1018 579 1049 l 450 1079 m 475 869 q 358 910 403 869 q 307 1019 314 950 l 390 1019 q 479 942 406 942 q 538 962 515 942 q 567 1019 561 982 l 651 1019 q 597 908 643 947 q 475 869 551 869 z "},"Ẵ":{"ha":958,"x_min":36,"x_max":921,"o":"m 36 92 l 132 92 l 350 696 l 265 696 l 265 788 l 693 788 l 693 696 l 606 696 l 831 92 l 921 92 l 921 0 l 578 0 l 578 92 l 678 92 l 608 297 l 335 297 l 265 92 l 363 92 l 363 0 l 36 0 l 36 92 m 581 386 l 476 694 l 469 694 l 361 386 l 581 386 m 571 1072 q 460 1103 532 1072 q 379 1126 401 1126 q 333 1078 339 1126 l 275 1078 q 312 1182 281 1149 q 392 1215 343 1215 q 435 1208 413 1215 q 493 1186 458 1200 q 538 1169 515 1176 q 575 1161 560 1161 q 610 1173 597 1161 q 629 1213 624 1185 l 685 1213 q 651 1109 679 1146 q 571 1072 622 1072 m 475 869 q 358 910 403 869 q 307 1019 314 950 l 390 1019 q 479 942 406 942 q 538 962 515 942 q 567 1019 561 982 l 651 1019 q 597 908 643 947 q 475 869 551 869 z "},"Ǎ":{"ha":958,"x_min":36,"x_max":921,"o":"m 36 92 l 132 92 l 350 696 l 265 696 l 265 788 l 693 788 l 693 696 l 606 696 l 831 92 l 921 92 l 921 0 l 578 0 l 578 92 l 678 92 l 608 297 l 335 297 l 265 92 l 363 92 l 363 0 l 36 0 l 36 92 m 581 386 l 476 694 l 469 694 l 361 386 l 581 386 m 304 1085 l 394 1085 l 482 932 l 567 1085 l 653 1085 l 547 865 l 415 865 l 304 1085 z "},"Â":{"ha":958,"x_min":36,"x_max":921,"o":"m 36 92 l 132 92 l 350 696 l 265 696 l 265 788 l 693 788 l 693 696 l 606 696 l 831 92 l 921 92 l 921 0 l 578 0 l 578 92 l 678 92 l 608 297 l 335 297 l 265 92 l 363 92 l 363 0 l 36 0 l 36 92 m 581 386 l 476 694 l 469 694 l 361 386 l 581 386 m 411 1092 l 547 1092 l 664 867 l 572 867 l 479 1036 l 386 867 l 294 867 l 411 1092 z "},"Ấ":{"ha":958,"x_min":36,"x_max":921,"o":"m 36 92 l 132 92 l 350 696 l 265 696 l 265 788 l 693 788 l 693 696 l 606 696 l 831 92 l 921 92 l 921 0 l 578 0 l 578 92 l 678 92 l 608 297 l 335 297 l 265 92 l 363 92 l 363 0 l 36 0 l 36 92 m 581 386 l 476 694 l 469 694 l 361 386 l 581 386 m 683 1161 l 799 1161 l 697 994 l 624 994 l 683 1161 m 414 1047 l 544 1047 l 661 867 l 569 867 l 479 992 l 389 867 l 297 867 l 414 1047 z "},"Ậ":{"ha":958,"x_min":36,"x_max":921,"o":"m 36 92 l 132 92 l 350 696 l 265 696 l 265 788 l 693 788 l 693 696 l 606 696 l 831 92 l 921 92 l 921 0 l 578 0 l 578 92 l 678 92 l 608 297 l 335 297 l 265 92 l 363 92 l 363 0 l 36 0 l 36 92 m 581 386 l 476 694 l 469 694 l 361 386 l 581 386 m 411 1092 l 547 1092 l 664 867 l 572 867 l 479 1036 l 386 867 l 294 867 l 411 1092 m 471 -215 q 416 -194 438 -215 q 394 -143 394 -174 q 416 -92 394 -112 q 471 -72 438 -72 q 526 -92 506 -72 q 547 -146 547 -111 q 526 -195 547 -175 q 471 -215 504 -215 z "},"Ầ":{"ha":958,"x_min":36,"x_max":921,"o":"m 36 92 l 132 92 l 350 696 l 265 696 l 265 788 l 693 788 l 693 696 l 606 696 l 831 92 l 921 92 l 921 0 l 578 0 l 578 92 l 678 92 l 608 297 l 335 297 l 265 92 l 363 92 l 363 0 l 36 0 l 36 92 m 581 386 l 476 694 l 469 694 l 361 386 l 581 386 m 654 994 l 554 1161 l 669 1161 l 729 994 l 654 994 m 414 1047 l 544 1047 l 661 867 l 569 867 l 479 992 l 389 867 l 297 867 l 414 1047 z "},"Ẩ":{"ha":958,"x_min":36,"x_max":921,"o":"m 36 92 l 132 92 l 350 696 l 265 696 l 265 788 l 693 788 l 693 696 l 606 696 l 831 92 l 921 92 l 921 0 l 578 0 l 578 92 l 678 92 l 608 297 l 335 297 l 265 92 l 363 92 l 363 0 l 36 0 l 36 92 m 581 386 l 476 694 l 469 694 l 361 386 l 581 386 m 613 1039 q 648 1059 636 1047 q 660 1090 660 1071 q 646 1119 660 1108 q 610 1129 632 1129 q 544 1110 576 1129 l 524 1171 q 624 1201 569 1201 q 709 1172 676 1201 q 742 1097 742 1143 q 632 978 742 1008 l 613 1039 m 414 1047 l 544 1047 l 661 867 l 569 867 l 479 992 l 389 867 l 297 867 l 414 1047 z "},"Ẫ":{"ha":958,"x_min":36,"x_max":921,"o":"m 36 92 l 132 92 l 350 696 l 265 696 l 265 788 l 693 788 l 693 696 l 606 696 l 831 92 l 921 92 l 921 0 l 578 0 l 578 92 l 678 92 l 608 297 l 335 297 l 265 92 l 363 92 l 363 0 l 36 0 l 36 92 m 581 386 l 476 694 l 469 694 l 361 386 l 581 386 m 571 1089 q 526 1096 549 1089 q 465 1118 503 1103 q 385 1142 410 1142 q 339 1093 344 1142 l 281 1093 q 315 1196 286 1163 q 392 1229 344 1229 q 431 1222 411 1229 q 492 1200 451 1215 q 569 1176 547 1176 q 605 1188 592 1176 q 624 1225 618 1199 l 679 1225 q 647 1125 674 1161 q 571 1089 619 1089 m 414 1047 l 544 1047 l 661 867 l 569 867 l 479 992 l 389 867 l 297 867 l 414 1047 z "},"Ȁ":{"ha":958,"x_min":36,"x_max":921,"o":"m 36 92 l 132 92 l 350 696 l 265 696 l 265 788 l 693 788 l 693 696 l 606 696 l 831 92 l 921 92 l 921 0 l 578 0 l 578 92 l 678 92 l 608 297 l 335 297 l 265 92 l 363 92 l 363 0 l 36 0 l 36 92 m 581 386 l 476 694 l 469 694 l 361 386 l 581 386 m 189 1117 l 326 1117 l 400 896 l 321 896 l 189 1117 m 400 1117 l 536 1117 l 610 896 l 531 896 l 400 1117 z "},"Ä":{"ha":958,"x_min":36,"x_max":921,"o":"m 36 92 l 132 92 l 350 696 l 265 696 l 265 788 l 693 788 l 693 696 l 606 696 l 831 92 l 921 92 l 921 0 l 578 0 l 578 92 l 678 92 l 608 297 l 335 297 l 265 92 l 363 92 l 363 0 l 36 0 l 36 92 m 581 386 l 476 694 l 469 694 l 361 386 l 581 386 m 336 882 q 281 901 303 882 q 260 953 260 919 q 281 1006 260 986 q 336 1025 301 1025 q 390 1006 369 1025 q 411 953 411 986 q 390 901 411 919 q 336 882 369 882 m 622 882 q 569 901 589 882 q 549 953 549 919 q 569 1006 549 986 q 622 1025 589 1025 q 678 1006 657 1025 q 699 953 699 986 q 677 901 699 919 q 622 882 656 882 z "},"Ȧ":{"ha":958,"x_min":36,"x_max":921,"o":"m 36 92 l 132 92 l 350 696 l 265 696 l 265 788 l 693 788 l 693 696 l 606 696 l 831 92 l 921 92 l 921 0 l 578 0 l 578 92 l 678 92 l 608 297 l 335 297 l 265 92 l 363 92 l 363 0 l 36 0 l 36 92 m 581 386 l 476 694 l 469 694 l 361 386 l 581 386 m 479 885 q 422 906 444 885 q 400 960 400 928 q 422 1015 400 993 q 479 1036 444 1036 q 537 1015 515 1036 q 558 957 558 993 q 536 906 558 926 q 479 885 514 885 z "},"Ạ":{"ha":958,"x_min":36,"x_max":921,"o":"m 36 92 l 132 92 l 350 696 l 265 696 l 265 788 l 693 788 l 693 696 l 606 696 l 831 92 l 921 92 l 921 0 l 578 0 l 578 92 l 678 92 l 608 297 l 335 297 l 265 92 l 363 92 l 363 0 l 36 0 l 36 92 m 581 386 l 476 694 l 469 694 l 361 386 l 581 386 m 471 -215 q 416 -194 438 -215 q 394 -143 394 -174 q 416 -92 394 -112 q 471 -72 438 -72 q 526 -92 506 -72 q 547 -146 547 -111 q 526 -195 547 -175 q 471 -215 504 -215 z "},"À":{"ha":958,"x_min":36,"x_max":921,"o":"m 36 92 l 132 92 l 350 696 l 265 696 l 265 788 l 693 788 l 693 696 l 606 696 l 831 92 l 921 92 l 921 0 l 578 0 l 578 92 l 678 92 l 608 297 l 335 297 l 265 92 l 363 92 l 363 0 l 36 0 l 36 92 m 581 386 l 476 694 l 469 694 l 361 386 l 581 386 m 311 1108 l 447 1108 l 518 896 l 438 896 l 311 1108 z "},"Ả":{"ha":958,"x_min":36,"x_max":921,"o":"m 36 92 l 132 92 l 350 696 l 265 696 l 265 788 l 693 788 l 693 696 l 606 696 l 831 92 l 921 92 l 921 0 l 578 0 l 578 92 l 678 92 l 608 297 l 335 297 l 265 92 l 363 92 l 363 0 l 36 0 l 36 92 m 581 386 l 476 694 l 469 694 l 361 386 l 581 386 m 457 908 q 492 928 481 917 q 504 960 504 940 q 490 988 504 978 q 454 999 476 999 q 389 979 421 999 l 368 1040 q 468 1071 414 1071 q 553 1042 521 1071 q 586 967 586 1013 q 476 847 586 878 l 457 908 z "},"Ȃ":{"ha":958,"x_min":36,"x_max":921,"o":"m 36 92 l 132 92 l 350 696 l 265 696 l 265 788 l 693 788 l 693 696 l 606 696 l 831 92 l 921 92 l 921 0 l 578 0 l 578 92 l 678 92 l 608 297 l 335 297 l 265 92 l 363 92 l 363 0 l 36 0 l 36 92 m 581 386 l 476 694 l 469 694 l 361 386 l 581 386 m 303 863 q 356 985 308 940 q 479 1029 403 1029 q 601 985 554 1029 q 654 863 649 940 l 561 863 q 479 938 549 938 q 424 918 444 938 q 396 863 403 899 l 303 863 z "},"Ā":{"ha":958,"x_min":36,"x_max":921,"o":"m 36 92 l 132 92 l 350 696 l 265 696 l 265 788 l 693 788 l 693 696 l 606 696 l 831 92 l 921 92 l 921 0 l 578 0 l 578 92 l 678 92 l 608 297 l 335 297 l 265 92 l 363 92 l 363 0 l 36 0 l 36 92 m 581 386 l 476 694 l 469 694 l 361 386 l 581 386 m 324 969 l 635 969 l 635 894 l 324 894 l 324 969 z "},"Ą":{"ha":958,"x_min":36,"x_max":921,"o":"m 36 92 l 132 92 l 350 696 l 265 696 l 265 788 l 693 788 l 693 696 l 606 696 l 831 92 l 921 92 l 921 0 l 578 0 l 578 92 l 678 92 l 608 297 l 335 297 l 265 92 l 363 92 l 363 0 l 36 0 l 36 92 m 581 386 l 476 694 l 469 694 l 361 386 l 581 386 m 775 -244 q 692 -215 725 -244 q 660 -137 660 -185 q 679 -69 660 -103 q 739 0 699 -36 l 801 0 q 740 -111 740 -65 q 758 -156 740 -140 q 807 -171 776 -171 q 867 -154 838 -171 l 867 -218 q 775 -244 818 -244 z "},"Å":{"ha":958,"x_min":36,"x_max":921,"o":"m 36 92 l 132 92 l 350 696 l 265 696 l 265 788 l 693 788 l 693 696 l 606 696 l 831 92 l 921 92 l 921 0 l 578 0 l 578 92 l 678 92 l 608 297 l 335 297 l 265 92 l 363 92 l 363 0 l 36 0 l 36 92 m 581 386 l 476 694 l 469 694 l 361 386 l 581 386 m 479 843 q 395 874 426 843 q 364 953 364 904 q 395 1031 364 1000 q 479 1061 426 1061 q 563 1031 532 1061 q 594 953 594 1000 q 563 874 594 904 q 479 843 532 843 m 479 892 q 524 909 507 892 q 540 953 540 926 q 524 997 540 979 q 479 1014 507 1014 q 433 997 450 1014 q 417 953 417 979 q 433 909 417 926 q 479 892 450 892 z "},"Ǻ":{"ha":958,"x_min":36,"x_max":921,"o":"m 36 92 l 132 92 l 350 696 l 265 696 l 265 788 l 693 788 l 693 696 l 606 696 l 831 92 l 921 92 l 921 0 l 578 0 l 578 92 l 678 92 l 608 297 l 335 297 l 265 92 l 363 92 l 363 0 l 36 0 l 36 92 m 581 386 l 476 694 l 469 694 l 361 386 l 581 386 m 479 843 q 395 874 426 843 q 364 953 364 904 q 395 1031 364 1000 q 479 1061 426 1061 q 563 1031 532 1061 q 594 953 594 1000 q 563 874 594 904 q 479 843 532 843 m 479 892 q 524 909 507 892 q 540 953 540 926 q 524 997 540 979 q 479 1014 507 1014 q 433 997 450 1014 q 417 953 417 979 q 433 909 417 926 q 479 892 450 892 m 510 1324 l 647 1324 l 519 1111 l 440 1111 l 510 1324 z "},"Ã":{"ha":958,"x_min":36,"x_max":921,"o":"m 36 92 l 132 92 l 350 696 l 265 696 l 265 788 l 693 788 l 693 696 l 606 696 l 831 92 l 921 92 l 921 0 l 578 0 l 578 92 l 678 92 l 608 297 l 335 297 l 265 92 l 363 92 l 363 0 l 36 0 l 36 92 m 581 386 l 476 694 l 469 694 l 361 386 l 581 386 m 569 892 q 522 899 546 892 q 460 922 499 907 q 379 947 404 947 q 333 899 339 947 l 275 899 q 312 1007 281 972 q 393 1042 343 1042 q 433 1035 413 1042 q 473 1021 454 1028 q 497 1011 492 1014 q 531 997 503 1008 q 575 986 558 986 q 610 998 597 986 q 629 1038 624 1010 l 685 1038 q 650 931 679 969 q 569 892 621 892 z "},"Æ":{"ha":1353,"x_min":28,"x_max":1279,"o":"m 28 92 l 126 92 l 489 696 l 406 696 l 406 788 l 1226 788 l 1242 531 l 1139 531 l 1126 696 l 769 696 l 785 447 l 1000 447 l 994 536 l 1067 536 l 1085 264 l 1013 264 l 1004 356 l 788 356 l 803 93 l 1172 93 l 1161 261 l 1264 261 l 1279 0 l 560 0 l 560 92 l 658 92 l 646 283 l 379 283 l 272 92 l 361 92 l 361 0 l 28 0 l 28 92 m 643 369 l 625 696 l 613 696 l 422 369 l 643 369 z "},"Ǽ":{"ha":1353,"x_min":28,"x_max":1279,"o":"m 28 92 l 126 92 l 489 696 l 406 696 l 406 788 l 1226 788 l 1242 531 l 1139 531 l 1126 696 l 769 696 l 785 447 l 1000 447 l 994 536 l 1067 536 l 1085 264 l 1013 264 l 1004 356 l 788 356 l 803 93 l 1172 93 l 1161 261 l 1264 261 l 1279 0 l 560 0 l 560 92 l 658 92 l 646 283 l 379 283 l 272 92 l 361 92 l 361 0 l 28 0 l 28 92 m 643 369 l 625 696 l 613 696 l 422 369 l 643 369 m 824 1108 l 961 1108 l 833 896 l 754 896 l 824 1108 z "},"Ǣ":{"ha":1353,"x_min":28,"x_max":1279,"o":"m 28 92 l 126 92 l 489 696 l 406 696 l 406 788 l 1226 788 l 1242 531 l 1139 531 l 1126 696 l 769 696 l 785 447 l 1000 447 l 994 536 l 1067 536 l 1085 264 l 1013 264 l 1004 356 l 788 356 l 803 93 l 1172 93 l 1161 261 l 1264 261 l 1279 0 l 560 0 l 560 92 l 658 92 l 646 283 l 379 283 l 272 92 l 361 92 l 361 0 l 28 0 l 28 92 m 643 369 l 625 696 l 613 696 l 422 369 l 643 369 m 638 969 l 949 969 l 949 894 l 638 894 l 638 969 z "},"B":{"ha":835,"x_min":57,"x_max":783,"o":"m 57 92 l 158 92 l 158 696 l 57 696 l 57 788 l 465 788 q 671 738 601 788 q 740 593 740 688 q 707 484 740 528 q 613 422 674 440 q 740 351 697 404 q 783 222 783 297 q 711 62 783 124 q 489 0 639 0 l 57 0 l 57 92 m 447 460 q 594 582 594 460 q 555 669 594 643 q 426 696 515 696 l 304 696 l 304 460 l 447 460 m 463 93 q 633 232 633 93 q 590 332 633 296 q 458 368 546 368 l 304 368 l 304 93 l 463 93 z "},"Ḃ":{"ha":835,"x_min":57,"x_max":783,"o":"m 57 92 l 158 92 l 158 696 l 57 696 l 57 788 l 465 788 q 671 738 601 788 q 740 593 740 688 q 707 484 740 528 q 613 422 674 440 q 740 351 697 404 q 783 222 783 297 q 711 62 783 124 q 489 0 639 0 l 57 0 l 57 92 m 447 460 q 594 582 594 460 q 555 669 594 643 q 426 696 515 696 l 304 696 l 304 460 l 447 460 m 463 93 q 633 232 633 93 q 590 332 633 296 q 458 368 546 368 l 304 368 l 304 93 l 463 93 m 381 885 q 324 906 346 885 q 301 960 301 928 q 324 1015 301 993 q 381 1036 346 1036 q 438 1015 417 1036 q 460 957 460 993 q 438 906 460 926 q 381 885 415 885 z "},"C":{"ha":943,"x_min":64,"x_max":865,"o":"m 865 226 q 724 45 822 104 q 486 -15 625 -14 q 267 36 363 -15 q 117 181 171 88 q 64 394 64 274 q 116 605 64 513 q 263 749 168 697 q 479 801 357 801 q 635 771 567 801 q 744 685 704 740 l 744 788 l 847 788 l 847 538 l 757 536 q 653 658 715 619 q 500 697 590 697 q 348 658 413 697 q 248 550 283 618 q 213 396 213 482 q 249 235 213 304 q 349 127 285 165 q 494 89 413 89 q 655 135 586 89 q 754 274 724 181 l 865 226 z "},"Ć":{"ha":943,"x_min":64,"x_max":865,"o":"m 865 226 q 724 45 822 104 q 486 -15 625 -14 q 267 36 363 -15 q 117 181 171 88 q 64 394 64 274 q 116 605 64 513 q 263 749 168 697 q 479 801 357 801 q 635 771 567 801 q 744 685 704 740 l 744 788 l 847 788 l 847 538 l 757 536 q 653 658 715 619 q 500 697 590 697 q 348 658 413 697 q 248 550 283 618 q 213 396 213 482 q 249 235 213 304 q 349 127 285 165 q 494 89 413 89 q 655 135 586 89 q 754 274 724 181 l 865 226 m 522 1108 l 660 1108 l 532 896 l 453 896 l 522 1108 z "},"Č":{"ha":943,"x_min":64,"x_max":865,"o":"m 865 226 q 724 45 822 104 q 486 -15 625 -14 q 267 36 363 -15 q 117 181 171 88 q 64 394 64 274 q 116 605 64 513 q 263 749 168 697 q 479 801 357 801 q 635 771 567 801 q 744 685 704 740 l 744 788 l 847 788 l 847 538 l 757 536 q 653 658 715 619 q 500 697 590 697 q 348 658 413 697 q 248 550 283 618 q 213 396 213 482 q 249 235 213 304 q 349 127 285 165 q 494 89 413 89 q 655 135 586 89 q 754 274 724 181 l 865 226 m 317 1085 l 407 1085 l 494 932 l 579 1085 l 665 1085 l 560 865 l 428 865 l 317 1085 z "},"Ç":{"ha":943,"x_min":64,"x_max":865,"o":"m 865 226 q 729 49 824 108 q 501 -15 635 -11 l 483 -81 q 559 -110 533 -86 q 585 -168 585 -135 q 554 -233 585 -211 q 478 -254 524 -254 q 356 -225 418 -254 l 356 -181 q 435 -196 401 -196 q 488 -158 488 -196 q 407 -114 488 -118 l 446 -14 q 246 48 332 -6 q 112 191 160 101 q 64 394 64 281 q 116 605 64 513 q 263 749 168 697 q 479 801 357 801 q 635 771 567 801 q 744 685 704 740 l 744 788 l 847 788 l 847 538 l 757 536 q 653 658 715 619 q 500 697 590 697 q 348 658 413 697 q 248 550 283 618 q 213 396 213 482 q 249 235 213 304 q 349 127 285 165 q 494 89 413 89 q 655 135 586 89 q 754 274 724 181 l 865 226 z "},"Ḉ":{"ha":943,"x_min":64,"x_max":865,"o":"m 532 896 l 453 896 l 522 1108 l 660 1108 l 532 896 m 865 226 q 729 49 824 108 q 501 -15 635 -11 l 483 -81 q 559 -110 533 -86 q 585 -168 585 -135 q 554 -233 585 -211 q 478 -254 524 -254 q 356 -225 418 -254 l 356 -181 q 435 -196 401 -196 q 488 -158 488 -196 q 407 -114 488 -118 l 446 -14 q 246 48 332 -6 q 112 191 160 101 q 64 394 64 281 q 116 605 64 513 q 263 749 168 697 q 479 801 357 801 q 635 771 567 801 q 744 685 704 740 l 744 788 l 847 788 l 847 538 l 757 536 q 653 658 715 619 q 500 697 590 697 q 348 658 413 697 q 248 550 283 618 q 213 396 213 482 q 249 235 213 304 q 349 127 285 165 q 494 89 413 89 q 655 135 586 89 q 754 274 724 181 l 865 226 z "},"Ĉ":{"ha":943,"x_min":64,"x_max":865,"o":"m 865 226 q 724 45 822 104 q 486 -15 625 -14 q 267 36 363 -15 q 117 181 171 88 q 64 394 64 274 q 116 605 64 513 q 263 749 168 697 q 479 801 357 801 q 635 771 567 801 q 744 685 704 740 l 744 788 l 847 788 l 847 538 l 757 536 q 653 658 715 619 q 500 697 590 697 q 348 658 413 697 q 248 550 283 618 q 213 396 213 482 q 249 235 213 304 q 349 127 285 165 q 494 89 413 89 q 655 135 586 89 q 754 274 724 181 l 865 226 m 424 1092 l 560 1092 l 676 867 l 585 867 l 492 1036 l 399 867 l 307 867 l 424 1092 z "},"Ċ":{"ha":943,"x_min":64,"x_max":865,"o":"m 865 226 q 724 45 822 104 q 486 -15 625 -14 q 267 36 363 -15 q 117 181 171 88 q 64 394 64 274 q 116 605 64 513 q 263 749 168 697 q 479 801 357 801 q 635 771 567 801 q 744 685 704 740 l 744 788 l 847 788 l 847 538 l 757 536 q 653 658 715 619 q 500 697 590 697 q 348 658 413 697 q 248 550 283 618 q 213 396 213 482 q 249 235 213 304 q 349 127 285 165 q 494 89 413 89 q 655 135 586 89 q 754 274 724 181 l 865 226 m 492 885 q 435 906 457 885 q 413 960 413 928 q 435 1015 413 993 q 492 1036 457 1036 q 549 1015 528 1036 q 571 957 571 993 q 549 906 571 926 q 492 885 526 885 z "},"D":{"ha":968,"x_min":58,"x_max":904,"o":"m 58 92 l 158 92 l 158 696 l 58 696 l 58 788 l 497 788 q 721 733 629 788 q 858 591 813 679 q 904 400 904 503 q 858 192 904 282 q 722 51 813 101 q 499 0 631 0 l 58 0 l 58 92 m 479 92 q 686 176 618 92 q 754 399 754 260 q 685 611 754 526 q 482 696 615 696 l 306 696 l 306 92 l 479 92 z "},"Ǳ":{"ha":1774,"x_min":58,"x_max":1707,"o":"m 58 92 l 158 92 l 158 696 l 58 696 l 58 788 l 497 788 q 721 733 629 788 q 858 591 813 679 q 904 400 904 503 q 858 192 904 282 q 722 51 813 101 q 499 0 631 0 l 58 0 l 58 92 m 479 92 q 686 176 618 92 q 754 399 754 260 q 685 611 754 526 q 482 696 615 696 l 306 696 l 306 92 l 479 92 m 1046 89 l 1510 696 l 1165 696 l 1165 519 l 1064 519 l 1064 788 l 1696 788 l 1696 706 l 1228 92 l 1604 92 l 1604 282 l 1707 282 l 1707 0 l 1046 0 l 1046 89 z "},"Ǆ":{"ha":1774,"x_min":58,"x_max":1707,"o":"m 58 92 l 158 92 l 158 696 l 58 696 l 58 788 l 497 788 q 721 733 629 788 q 858 591 813 679 q 904 400 904 503 q 858 192 904 282 q 722 51 813 101 q 499 0 631 0 l 58 0 l 58 92 m 479 92 q 686 176 618 92 q 754 399 754 260 q 685 611 754 526 q 482 696 615 696 l 306 696 l 306 92 l 479 92 m 1046 89 l 1510 696 l 1165 696 l 1165 519 l 1064 519 l 1064 788 l 1696 788 l 1696 706 l 1228 92 l 1604 92 l 1604 282 l 1707 282 l 1707 0 l 1046 0 l 1046 89 m 1208 1085 l 1299 1085 l 1386 932 l 1471 1085 l 1557 1085 l 1451 865 l 1319 865 l 1208 1085 z "},"Ð":{"ha":975,"x_min":58,"x_max":904,"o":"m 497 788 q 721 733 629 788 q 858 591 813 679 q 904 400 904 503 q 858 192 904 282 q 722 51 813 101 q 499 0 631 0 l 58 0 l 58 92 l 158 92 l 158 357 l 58 357 l 58 447 l 158 447 l 158 696 l 58 696 l 58 788 l 497 788 m 479 92 q 686 176 618 92 q 754 399 754 260 q 685 611 754 526 q 482 696 615 696 l 306 696 l 306 447 l 407 447 l 407 357 l 306 357 l 306 92 l 479 92 z "},"Ď":{"ha":968,"x_min":58,"x_max":904,"o":"m 58 92 l 158 92 l 158 696 l 58 696 l 58 788 l 497 788 q 721 733 629 788 q 858 591 813 679 q 904 400 904 503 q 858 192 904 282 q 722 51 813 101 q 499 0 631 0 l 58 0 l 58 92 m 479 92 q 686 176 618 92 q 754 399 754 260 q 685 611 754 526 q 482 696 615 696 l 306 696 l 306 92 l 479 92 m 344 1085 l 435 1085 l 522 932 l 607 1085 l 693 1085 l 588 865 l 456 865 l 344 1085 z "},"Đ":{"ha":975,"x_min":58,"x_max":904,"o":"m 497 788 q 721 733 629 788 q 858 591 813 679 q 904 400 904 503 q 858 192 904 282 q 722 51 813 101 q 499 0 631 0 l 58 0 l 58 92 l 158 92 l 158 357 l 58 357 l 58 447 l 158 447 l 158 696 l 58 696 l 58 788 l 497 788 m 479 92 q 686 176 618 92 q 754 399 754 260 q 685 611 754 526 q 482 696 615 696 l 306 696 l 306 447 l 407 447 l 407 357 l 306 357 l 306 92 l 479 92 z "},"Ḋ":{"ha":968,"x_min":58,"x_max":904,"o":"m 58 92 l 158 92 l 158 696 l 58 696 l 58 788 l 497 788 q 721 733 629 788 q 858 591 813 679 q 904 400 904 503 q 858 192 904 282 q 722 51 813 101 q 499 0 631 0 l 58 0 l 58 92 m 479 92 q 686 176 618 92 q 754 399 754 260 q 685 611 754 526 q 482 696 615 696 l 306 696 l 306 92 l 479 92 m 519 885 q 463 906 485 885 q 440 960 440 928 q 463 1015 440 993 q 519 1036 485 1036 q 577 1015 556 1036 q 599 957 599 993 q 576 906 599 926 q 519 885 554 885 z "},"Ḍ":{"ha":968,"x_min":58,"x_max":904,"o":"m 58 92 l 158 92 l 158 696 l 58 696 l 58 788 l 497 788 q 721 733 629 788 q 858 591 813 679 q 904 400 904 503 q 858 192 904 282 q 722 51 813 101 q 499 0 631 0 l 58 0 l 58 92 m 479 92 q 686 176 618 92 q 754 399 754 260 q 685 611 754 526 q 482 696 615 696 l 306 696 l 306 92 l 479 92 m 521 -215 q 466 -194 488 -215 q 444 -143 444 -174 q 466 -92 444 -112 q 521 -72 488 -72 q 576 -92 556 -72 q 597 -146 597 -111 q 576 -195 597 -175 q 521 -215 554 -215 z "},"Ḏ":{"ha":968,"x_min":58,"x_max":904,"o":"m 58 92 l 158 92 l 158 696 l 58 696 l 58 788 l 497 788 q 721 733 629 788 q 858 591 813 679 q 904 400 904 503 q 858 192 904 282 q 722 51 813 101 q 499 0 631 0 l 58 0 l 58 92 m 479 92 q 686 176 618 92 q 754 399 754 260 q 685 611 754 526 q 482 696 615 696 l 306 696 l 306 92 l 479 92 m 365 -65 l 676 -65 l 676 -140 l 365 -140 l 365 -65 z "},"ǲ":{"ha":1539,"x_min":58,"x_max":1485,"o":"m 58 92 l 158 92 l 158 696 l 58 696 l 58 788 l 497 788 q 721 733 629 788 q 858 591 813 679 q 904 400 904 503 q 858 192 904 282 q 722 51 813 101 q 499 0 631 0 l 58 0 l 58 92 m 479 92 q 686 176 618 92 q 754 399 754 260 q 685 611 754 526 q 482 696 615 696 l 306 696 l 306 92 l 479 92 m 988 81 l 1324 465 l 1082 465 l 1082 356 l 993 356 l 993 549 l 1476 549 l 1476 465 l 1138 82 l 1393 82 l 1393 204 l 1485 204 l 1485 0 l 988 0 l 988 81 z "},"ǅ":{"ha":1583,"x_min":58,"x_max":1529,"o":"m 58 92 l 158 92 l 158 696 l 58 696 l 58 788 l 497 788 q 721 733 629 788 q 858 591 813 679 q 904 400 904 503 q 858 192 904 282 q 722 51 813 101 q 499 0 631 0 l 58 0 l 58 92 m 479 92 q 686 176 618 92 q 754 399 754 260 q 685 611 754 526 q 482 696 615 696 l 306 696 l 306 92 l 479 92 m 1032 81 l 1368 465 l 1126 465 l 1126 356 l 1038 356 l 1038 549 l 1521 549 l 1521 465 l 1182 82 l 1438 82 l 1438 204 l 1529 204 l 1529 0 l 1032 0 l 1032 81 m 1113 846 l 1203 846 l 1290 693 l 1375 846 l 1461 846 l 1356 626 l 1224 626 l 1113 846 z "},"E":{"ha":835,"x_min":57,"x_max":765,"o":"m 57 92 l 158 92 l 158 696 l 57 696 l 57 788 l 760 788 l 760 543 l 656 543 l 656 696 l 304 696 l 304 453 l 515 453 l 515 540 l 589 540 l 589 271 l 515 271 l 515 361 l 304 361 l 304 93 l 663 93 l 663 251 l 765 251 l 765 0 l 57 0 l 57 92 z "},"É":{"ha":835,"x_min":57,"x_max":765,"o":"m 57 92 l 158 92 l 158 696 l 57 696 l 57 788 l 760 788 l 760 543 l 656 543 l 656 696 l 304 696 l 304 453 l 515 453 l 515 540 l 589 540 l 589 271 l 515 271 l 515 361 l 304 361 l 304 93 l 663 93 l 663 251 l 765 251 l 765 0 l 57 0 l 57 92 m 474 1108 l 611 1108 l 483 896 l 404 896 l 474 1108 z "},"Ĕ":{"ha":835,"x_min":57,"x_max":765,"o":"m 57 92 l 158 92 l 158 696 l 57 696 l 57 788 l 760 788 l 760 543 l 656 543 l 656 696 l 304 696 l 304 453 l 515 453 l 515 540 l 589 540 l 589 271 l 515 271 l 515 361 l 304 361 l 304 93 l 663 93 l 663 251 l 765 251 l 765 0 l 57 0 l 57 92 m 440 871 q 323 912 368 871 q 271 1026 278 953 l 357 1026 q 443 947 372 947 q 500 967 478 947 q 528 1026 522 988 l 615 1026 q 561 911 607 951 q 440 871 515 871 z "},"Ě":{"ha":835,"x_min":57,"x_max":765,"o":"m 57 92 l 158 92 l 158 696 l 57 696 l 57 788 l 760 788 l 760 543 l 656 543 l 656 696 l 304 696 l 304 453 l 515 453 l 515 540 l 589 540 l 589 271 l 515 271 l 515 361 l 304 361 l 304 93 l 663 93 l 663 251 l 765 251 l 765 0 l 57 0 l 57 92 m 268 1085 l 358 1085 l 446 932 l 531 1085 l 617 1085 l 511 865 l 379 865 l 268 1085 z "},"Ȩ":{"ha":835,"x_min":57,"x_max":765,"o":"m 57 92 l 158 92 l 158 696 l 57 696 l 57 788 l 760 788 l 760 543 l 656 543 l 656 696 l 304 696 l 304 453 l 515 453 l 515 540 l 589 540 l 589 271 l 515 271 l 515 361 l 304 361 l 304 93 l 663 93 l 663 251 l 765 251 l 765 0 l 57 0 l 57 92 m 457 -254 q 335 -225 397 -254 l 335 -181 q 414 -196 381 -196 q 467 -158 467 -196 q 386 -114 467 -118 l 431 0 l 485 0 l 463 -81 q 538 -110 513 -86 q 564 -168 564 -135 q 533 -233 564 -211 q 457 -254 503 -254 z "},"Ḝ":{"ha":835,"x_min":57,"x_max":765,"o":"m 57 92 l 158 92 l 158 696 l 57 696 l 57 788 l 760 788 l 760 543 l 656 543 l 656 696 l 304 696 l 304 453 l 515 453 l 515 540 l 589 540 l 589 271 l 515 271 l 515 361 l 304 361 l 304 93 l 663 93 l 663 251 l 765 251 l 765 0 l 57 0 l 57 92 m 457 -254 q 335 -225 397 -254 l 335 -181 q 414 -196 381 -196 q 467 -158 467 -196 q 386 -114 467 -118 l 431 0 l 485 0 l 463 -81 q 538 -110 513 -86 q 564 -168 564 -135 q 533 -233 564 -211 q 457 -254 503 -254 m 440 871 q 323 912 368 871 q 271 1026 278 953 l 357 1026 q 443 947 372 947 q 500 967 478 947 q 528 1026 522 988 l 615 1026 q 561 911 607 951 q 440 871 515 871 z "},"Ê":{"ha":835,"x_min":57,"x_max":765,"o":"m 57 92 l 158 92 l 158 696 l 57 696 l 57 788 l 760 788 l 760 543 l 656 543 l 656 696 l 304 696 l 304 453 l 515 453 l 515 540 l 589 540 l 589 271 l 515 271 l 515 361 l 304 361 l 304 93 l 663 93 l 663 251 l 765 251 l 765 0 l 57 0 l 57 92 m 375 1092 l 511 1092 l 628 867 l 536 867 l 443 1036 l 350 867 l 258 867 l 375 1092 z "},"Ế":{"ha":835,"x_min":57,"x_max":765,"o":"m 57 92 l 158 92 l 158 696 l 57 696 l 57 788 l 760 788 l 760 543 l 656 543 l 656 696 l 304 696 l 304 453 l 515 453 l 515 540 l 589 540 l 589 271 l 515 271 l 515 361 l 304 361 l 304 93 l 663 93 l 663 251 l 765 251 l 765 0 l 57 0 l 57 92 m 647 1161 l 763 1161 l 661 994 l 588 994 l 647 1161 m 378 1047 l 508 1047 l 625 867 l 533 867 l 443 992 l 353 867 l 261 867 l 378 1047 z "},"Ệ":{"ha":835,"x_min":57,"x_max":765,"o":"m 57 92 l 158 92 l 158 696 l 57 696 l 57 788 l 760 788 l 760 543 l 656 543 l 656 696 l 304 696 l 304 453 l 515 453 l 515 540 l 589 540 l 589 271 l 515 271 l 515 361 l 304 361 l 304 93 l 663 93 l 663 251 l 765 251 l 765 0 l 57 0 l 57 92 m 375 1092 l 511 1092 l 628 867 l 536 867 l 443 1036 l 350 867 l 258 867 l 375 1092 m 457 -215 q 402 -194 424 -215 q 381 -143 381 -174 q 402 -92 381 -112 q 457 -72 424 -72 q 513 -92 492 -72 q 533 -146 533 -111 q 512 -195 533 -175 q 457 -215 490 -215 z "},"Ề":{"ha":835,"x_min":57,"x_max":765,"o":"m 57 92 l 158 92 l 158 696 l 57 696 l 57 788 l 760 788 l 760 543 l 656 543 l 656 696 l 304 696 l 304 453 l 515 453 l 515 540 l 589 540 l 589 271 l 515 271 l 515 361 l 304 361 l 304 93 l 663 93 l 663 251 l 765 251 l 765 0 l 57 0 l 57 92 m 618 994 l 518 1161 l 633 1161 l 693 994 l 618 994 m 378 1047 l 508 1047 l 625 867 l 533 867 l 443 992 l 353 867 l 261 867 l 378 1047 z "},"Ể":{"ha":835,"x_min":57,"x_max":765,"o":"m 57 92 l 158 92 l 158 696 l 57 696 l 57 788 l 760 788 l 760 543 l 656 543 l 656 696 l 304 696 l 304 453 l 515 453 l 515 540 l 589 540 l 589 271 l 515 271 l 515 361 l 304 361 l 304 93 l 663 93 l 663 251 l 765 251 l 765 0 l 57 0 l 57 92 m 576 1039 q 612 1059 600 1047 q 624 1090 624 1071 q 610 1119 624 1108 q 574 1129 596 1129 q 508 1110 540 1129 l 488 1171 q 588 1201 533 1201 q 673 1172 640 1201 q 706 1097 706 1143 q 596 978 706 1008 l 576 1039 m 378 1047 l 508 1047 l 625 867 l 533 867 l 443 992 l 353 867 l 261 867 l 378 1047 z "},"Ễ":{"ha":835,"x_min":57,"x_max":765,"o":"m 57 92 l 158 92 l 158 696 l 57 696 l 57 788 l 760 788 l 760 543 l 656 543 l 656 696 l 304 696 l 304 453 l 515 453 l 515 540 l 589 540 l 589 271 l 515 271 l 515 361 l 304 361 l 304 93 l 663 93 l 663 251 l 765 251 l 765 0 l 57 0 l 57 92 m 535 1089 q 490 1096 513 1089 q 429 1118 467 1103 q 349 1142 374 1142 q 303 1093 308 1142 l 244 1093 q 279 1196 250 1163 q 356 1229 308 1229 q 395 1222 375 1229 q 456 1200 415 1215 q 533 1176 511 1176 q 569 1188 556 1176 q 588 1225 582 1199 l 643 1225 q 610 1125 638 1161 q 535 1089 583 1089 m 378 1047 l 508 1047 l 625 867 l 533 867 l 443 992 l 353 867 l 261 867 l 378 1047 z "},"Ȅ":{"ha":835,"x_min":57,"x_max":765,"o":"m 57 92 l 158 92 l 158 696 l 57 696 l 57 788 l 760 788 l 760 543 l 656 543 l 656 696 l 304 696 l 304 453 l 515 453 l 515 540 l 589 540 l 589 271 l 515 271 l 515 361 l 304 361 l 304 93 l 663 93 l 663 251 l 765 251 l 765 0 l 57 0 l 57 92 m 153 1117 l 290 1117 l 364 896 l 285 896 l 153 1117 m 364 1117 l 500 1117 l 574 896 l 494 896 l 364 1117 z "},"Ë":{"ha":835,"x_min":57,"x_max":765,"o":"m 57 92 l 158 92 l 158 696 l 57 696 l 57 788 l 760 788 l 760 543 l 656 543 l 656 696 l 304 696 l 304 453 l 515 453 l 515 540 l 589 540 l 589 271 l 515 271 l 515 361 l 304 361 l 304 93 l 663 93 l 663 251 l 765 251 l 765 0 l 57 0 l 57 92 m 300 882 q 245 901 267 882 q 224 953 224 919 q 244 1006 224 986 q 300 1025 265 1025 q 354 1006 333 1025 q 375 953 375 986 q 354 901 375 919 q 300 882 333 882 m 586 882 q 533 901 553 882 q 513 953 513 919 q 533 1006 513 986 q 586 1025 553 1025 q 642 1006 621 1025 q 663 953 663 986 q 641 901 663 919 q 586 882 619 882 z "},"Ė":{"ha":835,"x_min":57,"x_max":765,"o":"m 57 92 l 158 92 l 158 696 l 57 696 l 57 788 l 760 788 l 760 543 l 656 543 l 656 696 l 304 696 l 304 453 l 515 453 l 515 540 l 589 540 l 589 271 l 515 271 l 515 361 l 304 361 l 304 93 l 663 93 l 663 251 l 765 251 l 765 0 l 57 0 l 57 92 m 443 885 q 386 906 408 885 q 364 960 364 928 q 386 1015 364 993 q 443 1036 408 1036 q 501 1015 479 1036 q 522 957 522 993 q 500 906 522 926 q 443 885 478 885 z "},"Ẹ":{"ha":835,"x_min":57,"x_max":765,"o":"m 57 92 l 158 92 l 158 696 l 57 696 l 57 788 l 760 788 l 760 543 l 656 543 l 656 696 l 304 696 l 304 453 l 515 453 l 515 540 l 589 540 l 589 271 l 515 271 l 515 361 l 304 361 l 304 93 l 663 93 l 663 251 l 765 251 l 765 0 l 57 0 l 57 92 m 457 -215 q 402 -194 424 -215 q 381 -143 381 -174 q 402 -92 381 -112 q 457 -72 424 -72 q 513 -92 492 -72 q 533 -146 533 -111 q 512 -195 533 -175 q 457 -215 490 -215 z "},"È":{"ha":835,"x_min":57,"x_max":765,"o":"m 57 92 l 158 92 l 158 696 l 57 696 l 57 788 l 760 788 l 760 543 l 656 543 l 656 696 l 304 696 l 304 453 l 515 453 l 515 540 l 589 540 l 589 271 l 515 271 l 515 361 l 304 361 l 304 93 l 663 93 l 663 251 l 765 251 l 765 0 l 57 0 l 57 92 m 275 1108 l 411 1108 l 482 896 l 401 896 l 275 1108 z "},"Ẻ":{"ha":835,"x_min":57,"x_max":765,"o":"m 57 92 l 158 92 l 158 696 l 57 696 l 57 788 l 760 788 l 760 543 l 656 543 l 656 696 l 304 696 l 304 453 l 515 453 l 515 540 l 589 540 l 589 271 l 515 271 l 515 361 l 304 361 l 304 93 l 663 93 l 663 251 l 765 251 l 765 0 l 57 0 l 57 92 m 421 908 q 456 928 444 917 q 468 960 468 940 q 454 988 468 978 q 418 999 440 999 q 353 979 385 999 l 332 1040 q 432 1071 378 1071 q 517 1042 485 1071 q 550 967 550 1013 q 440 847 550 878 l 421 908 z "},"Ȇ":{"ha":835,"x_min":57,"x_max":765,"o":"m 57 92 l 158 92 l 158 696 l 57 696 l 57 788 l 760 788 l 760 543 l 656 543 l 656 696 l 304 696 l 304 453 l 515 453 l 515 540 l 589 540 l 589 271 l 515 271 l 515 361 l 304 361 l 304 93 l 663 93 l 663 251 l 765 251 l 765 0 l 57 0 l 57 92 m 267 863 q 319 985 272 940 q 443 1029 367 1029 q 565 985 518 1029 q 618 863 613 940 l 525 863 q 443 938 513 938 q 388 918 408 938 q 360 863 367 899 l 267 863 z "},"Ē":{"ha":835,"x_min":57,"x_max":765,"o":"m 57 92 l 158 92 l 158 696 l 57 696 l 57 788 l 760 788 l 760 543 l 656 543 l 656 696 l 304 696 l 304 453 l 515 453 l 515 540 l 589 540 l 589 271 l 515 271 l 515 361 l 304 361 l 304 93 l 663 93 l 663 251 l 765 251 l 765 0 l 57 0 l 57 92 m 288 969 l 599 969 l 599 894 l 288 894 l 288 969 z "},"Ḗ":{"ha":835,"x_min":57,"x_max":765,"o":"m 57 92 l 158 92 l 158 696 l 57 696 l 57 788 l 760 788 l 760 543 l 656 543 l 656 696 l 304 696 l 304 453 l 515 453 l 515 540 l 589 540 l 589 271 l 515 271 l 515 361 l 304 361 l 304 93 l 663 93 l 663 251 l 765 251 l 765 0 l 57 0 l 57 92 m 288 969 l 599 969 l 599 894 l 288 894 l 288 969 m 474 1278 l 611 1278 l 483 1065 l 404 1065 l 474 1278 z "},"Ḕ":{"ha":835,"x_min":57,"x_max":765,"o":"m 57 92 l 158 92 l 158 696 l 57 696 l 57 788 l 760 788 l 760 543 l 656 543 l 656 696 l 304 696 l 304 453 l 515 453 l 515 540 l 589 540 l 589 271 l 515 271 l 515 361 l 304 361 l 304 93 l 663 93 l 663 251 l 765 251 l 765 0 l 57 0 l 57 92 m 288 969 l 599 969 l 599 894 l 288 894 l 288 969 m 275 1278 l 411 1278 l 482 1065 l 401 1065 l 275 1278 z "},"Ę":{"ha":835,"x_min":57,"x_max":765,"o":"m 57 92 l 158 92 l 158 696 l 57 696 l 57 788 l 760 788 l 760 543 l 656 543 l 656 696 l 304 696 l 304 453 l 515 453 l 515 540 l 589 540 l 589 271 l 515 271 l 515 361 l 304 361 l 304 93 l 663 93 l 663 251 l 765 251 l 765 0 l 57 0 l 57 92 m 658 -244 q 576 -215 608 -244 q 543 -137 543 -185 q 563 -69 543 -103 q 622 0 582 -36 l 685 0 q 624 -111 624 -65 q 642 -156 624 -140 q 690 -171 660 -171 q 750 -154 721 -171 l 750 -218 q 658 -244 701 -244 z "},"Ẽ":{"ha":835,"x_min":57,"x_max":765,"o":"m 57 92 l 158 92 l 158 696 l 57 696 l 57 788 l 760 788 l 760 543 l 656 543 l 656 696 l 304 696 l 304 453 l 515 453 l 515 540 l 589 540 l 589 271 l 515 271 l 515 361 l 304 361 l 304 93 l 663 93 l 663 251 l 765 251 l 765 0 l 57 0 l 57 92 m 533 892 q 486 899 510 892 q 424 922 463 907 q 343 947 368 947 q 297 899 303 947 l 239 899 q 276 1007 244 972 q 357 1042 307 1042 q 397 1035 376 1042 q 437 1021 418 1028 q 461 1011 456 1014 q 494 997 467 1008 q 539 986 522 986 q 574 998 561 986 q 593 1038 588 1010 l 649 1038 q 614 931 643 969 q 533 892 585 892 z "},"F":{"ha":778,"x_min":57,"x_max":749,"o":"m 57 92 l 158 92 l 158 696 l 57 696 l 57 788 l 749 788 l 749 538 l 646 538 l 646 696 l 304 696 l 304 454 l 510 454 l 510 538 l 585 538 l 585 274 l 510 274 l 510 361 l 304 361 l 304 92 l 408 92 l 408 0 l 57 0 l 57 92 z "},"Ḟ":{"ha":778,"x_min":57,"x_max":749,"o":"m 57 92 l 158 92 l 158 696 l 57 696 l 57 788 l 749 788 l 749 538 l 646 538 l 646 696 l 304 696 l 304 454 l 510 454 l 510 538 l 585 538 l 585 274 l 510 274 l 510 361 l 304 361 l 304 92 l 408 92 l 408 0 l 57 0 l 57 92 m 425 885 q 368 906 390 885 q 346 960 346 928 q 368 1015 346 993 q 425 1036 390 1036 q 483 1015 461 1036 q 504 957 504 993 q 482 906 504 926 q 425 885 460 885 z "},"G":{"ha":968,"x_min":63,"x_max":903,"o":"m 903 406 l 903 360 q 795 85 903 185 q 499 -14 688 -14 q 267 38 365 -14 q 115 182 168 89 q 63 394 63 275 q 117 606 63 514 q 267 750 171 699 q 489 801 364 801 q 644 772 576 801 q 757 690 713 743 l 757 788 l 865 788 l 865 533 l 771 533 q 666 656 733 614 q 508 699 599 699 q 297 619 375 699 q 218 400 218 539 q 295 174 218 257 q 504 90 372 90 q 686 147 617 93 q 761 311 756 201 l 601 311 l 601 406 l 903 406 z "},"Ǵ":{"ha":968,"x_min":63,"x_max":903,"o":"m 903 406 l 903 360 q 795 85 903 185 q 499 -14 688 -14 q 267 38 365 -14 q 115 182 168 89 q 63 394 63 275 q 117 606 63 514 q 267 750 171 699 q 489 801 364 801 q 644 772 576 801 q 757 690 713 743 l 757 788 l 865 788 l 865 533 l 771 533 q 666 656 733 614 q 508 699 599 699 q 297 619 375 699 q 218 400 218 539 q 295 174 218 257 q 504 90 372 90 q 686 147 617 93 q 761 311 756 201 l 601 311 l 601 406 l 903 406 m 532 1108 l 669 1108 l 542 896 l 463 896 l 532 1108 z "},"Ğ":{"ha":968,"x_min":63,"x_max":903,"o":"m 903 406 l 903 360 q 795 85 903 185 q 499 -14 688 -14 q 267 38 365 -14 q 115 182 168 89 q 63 394 63 275 q 117 606 63 514 q 267 750 171 699 q 489 801 364 801 q 644 772 576 801 q 757 690 713 743 l 757 788 l 865 788 l 865 533 l 771 533 q 666 656 733 614 q 508 699 599 699 q 297 619 375 699 q 218 400 218 539 q 295 174 218 257 q 504 90 372 90 q 686 147 617 93 q 761 311 756 201 l 601 311 l 601 406 l 903 406 m 499 871 q 381 912 426 871 q 329 1026 336 953 l 415 1026 q 501 947 431 947 q 558 967 536 947 q 586 1026 581 988 l 674 1026 q 619 911 665 951 q 499 871 574 871 z "},"Ǧ":{"ha":968,"x_min":63,"x_max":903,"o":"m 903 406 l 903 360 q 795 85 903 185 q 499 -14 688 -14 q 267 38 365 -14 q 115 182 168 89 q 63 394 63 275 q 117 606 63 514 q 267 750 171 699 q 489 801 364 801 q 644 772 576 801 q 757 690 713 743 l 757 788 l 865 788 l 865 533 l 771 533 q 666 656 733 614 q 508 699 599 699 q 297 619 375 699 q 218 400 218 539 q 295 174 218 257 q 504 90 372 90 q 686 147 617 93 q 761 311 756 201 l 601 311 l 601 406 l 903 406 m 326 1085 l 417 1085 l 504 932 l 589 1085 l 675 1085 l 569 865 l 438 865 l 326 1085 z "},"Ĝ":{"ha":968,"x_min":63,"x_max":903,"o":"m 903 406 l 903 360 q 795 85 903 185 q 499 -14 688 -14 q 267 38 365 -14 q 115 182 168 89 q 63 394 63 275 q 117 606 63 514 q 267 750 171 699 q 489 801 364 801 q 644 772 576 801 q 757 690 713 743 l 757 788 l 865 788 l 865 533 l 771 533 q 666 656 733 614 q 508 699 599 699 q 297 619 375 699 q 218 400 218 539 q 295 174 218 257 q 504 90 372 90 q 686 147 617 93 q 761 311 756 201 l 601 311 l 601 406 l 903 406 m 433 1092 l 569 1092 l 686 867 l 594 867 l 501 1036 l 408 867 l 317 867 l 433 1092 z "},"Ģ":{"ha":968,"x_min":63,"x_max":903,"o":"m 903 406 l 903 360 q 795 85 903 185 q 499 -14 688 -14 q 267 38 365 -14 q 115 182 168 89 q 63 394 63 275 q 117 606 63 514 q 267 750 171 699 q 489 801 364 801 q 644 772 576 801 q 757 690 713 743 l 757 788 l 865 788 l 865 533 l 771 533 q 666 656 733 614 q 508 699 599 699 q 297 619 375 699 q 218 400 218 539 q 295 174 218 257 q 504 90 372 90 q 686 147 617 93 q 761 311 756 201 l 601 311 l 601 406 l 903 406 m 422 -301 q 483 -272 464 -296 q 501 -204 501 -249 l 422 -204 l 422 -72 l 571 -72 l 571 -199 q 422 -353 571 -353 l 422 -301 z "},"Ġ":{"ha":968,"x_min":63,"x_max":903,"o":"m 903 406 l 903 360 q 795 85 903 185 q 499 -14 688 -14 q 267 38 365 -14 q 115 182 168 89 q 63 394 63 275 q 117 606 63 514 q 267 750 171 699 q 489 801 364 801 q 644 772 576 801 q 757 690 713 743 l 757 788 l 865 788 l 865 533 l 771 533 q 666 656 733 614 q 508 699 599 699 q 297 619 375 699 q 218 400 218 539 q 295 174 218 257 q 504 90 372 90 q 686 147 617 93 q 761 311 756 201 l 601 311 l 601 406 l 903 406 m 501 885 q 444 906 467 885 q 422 960 422 928 q 444 1015 422 993 q 501 1036 467 1036 q 559 1015 538 1036 q 581 957 581 993 q 558 906 581 926 q 501 885 536 885 z "},"Ḡ":{"ha":968,"x_min":63,"x_max":903,"o":"m 903 406 l 903 360 q 795 85 903 185 q 499 -14 688 -14 q 267 38 365 -14 q 115 182 168 89 q 63 394 63 275 q 117 606 63 514 q 267 750 171 699 q 489 801 364 801 q 644 772 576 801 q 757 690 713 743 l 757 788 l 865 788 l 865 533 l 771 533 q 666 656 733 614 q 508 699 599 699 q 297 619 375 699 q 218 400 218 539 q 295 174 218 257 q 504 90 372 90 q 686 147 617 93 q 761 311 756 201 l 601 311 l 601 406 l 903 406 m 346 969 l 657 969 l 657 894 l 346 894 l 346 969 z "},"H":{"ha":988,"x_min":57,"x_max":931,"o":"m 57 92 l 158 92 l 158 696 l 57 696 l 57 788 l 406 788 l 406 696 l 304 696 l 304 450 l 683 450 l 683 696 l 582 696 l 582 788 l 931 788 l 931 696 l 829 696 l 829 92 l 931 92 l 931 0 l 582 0 l 582 92 l 683 92 l 683 357 l 304 357 l 304 92 l 406 92 l 406 0 l 57 0 l 57 92 z "},"Ħ":{"ha":988,"x_min":57,"x_max":931,"o":"m 829 696 l 829 611 l 917 611 l 917 539 l 829 539 l 829 92 l 931 92 l 931 0 l 582 0 l 582 92 l 683 92 l 683 357 l 304 357 l 304 92 l 406 92 l 406 0 l 57 0 l 57 92 l 158 92 l 158 539 l 75 539 l 75 611 l 158 611 l 158 696 l 57 696 l 57 788 l 406 788 l 406 696 l 304 696 l 304 611 l 683 611 l 683 696 l 582 696 l 582 788 l 931 788 l 931 696 l 829 696 m 683 539 l 304 539 l 304 450 l 683 450 l 683 539 z "},"Ḫ":{"ha":988,"x_min":57,"x_max":931,"o":"m 57 92 l 158 92 l 158 696 l 57 696 l 57 788 l 406 788 l 406 696 l 304 696 l 304 450 l 683 450 l 683 696 l 582 696 l 582 788 l 931 788 l 931 696 l 829 696 l 829 92 l 931 92 l 931 0 l 582 0 l 582 92 l 683 92 l 683 357 l 304 357 l 304 92 l 406 92 l 406 0 l 57 0 l 57 92 m 496 -226 q 378 -185 424 -226 q 326 -71 333 -144 l 413 -71 q 499 -150 428 -150 q 556 -130 533 -150 q 583 -71 578 -110 l 671 -71 q 617 -186 663 -146 q 496 -226 571 -226 z "},"Ȟ":{"ha":988,"x_min":57,"x_max":931,"o":"m 57 92 l 158 92 l 158 696 l 57 696 l 57 788 l 406 788 l 406 696 l 304 696 l 304 450 l 683 450 l 683 696 l 582 696 l 582 788 l 931 788 l 931 696 l 829 696 l 829 92 l 931 92 l 931 0 l 582 0 l 582 92 l 683 92 l 683 357 l 304 357 l 304 92 l 406 92 l 406 0 l 57 0 l 57 92 m 322 1085 l 413 1085 l 500 932 l 585 1085 l 671 1085 l 565 865 l 433 865 l 322 1085 z "},"Ĥ":{"ha":988,"x_min":57,"x_max":931,"o":"m 57 92 l 158 92 l 158 696 l 57 696 l 57 788 l 406 788 l 406 696 l 304 696 l 304 450 l 683 450 l 683 696 l 582 696 l 582 788 l 931 788 l 931 696 l 829 696 l 829 92 l 931 92 l 931 0 l 582 0 l 582 92 l 683 92 l 683 357 l 304 357 l 304 92 l 406 92 l 406 0 l 57 0 l 57 92 m 429 1092 l 565 1092 l 682 867 l 590 867 l 497 1036 l 404 867 l 313 867 l 429 1092 z "},"Ḥ":{"ha":988,"x_min":57,"x_max":931,"o":"m 57 92 l 158 92 l 158 696 l 57 696 l 57 788 l 406 788 l 406 696 l 304 696 l 304 450 l 683 450 l 683 696 l 582 696 l 582 788 l 931 788 l 931 696 l 829 696 l 829 92 l 931 92 l 931 0 l 582 0 l 582 92 l 683 92 l 683 357 l 304 357 l 304 92 l 406 92 l 406 0 l 57 0 l 57 92 m 499 -215 q 444 -194 465 -215 q 422 -143 422 -174 q 444 -92 422 -112 q 499 -72 465 -72 q 554 -92 533 -72 q 575 -146 575 -111 q 553 -195 575 -175 q 499 -215 532 -215 z "},"I":{"ha":488,"x_min":69,"x_max":418,"o":"m 69 92 l 169 92 l 169 696 l 69 696 l 69 788 l 418 788 l 418 696 l 317 696 l 317 92 l 418 92 l 418 0 l 69 0 l 69 92 z "},"Ĳ":{"ha":963,"x_min":69,"x_max":928,"o":"m 69 92 l 169 92 l 169 696 l 69 696 l 69 788 l 418 788 l 418 696 l 317 696 l 317 92 l 418 92 l 418 0 l 69 0 l 69 92 m 526 -50 l 601 -50 q 669 -22 651 -50 q 688 67 688 7 l 688 699 l 585 699 l 585 788 l 928 788 l 928 699 l 832 699 l 832 72 q 784 -106 832 -49 q 626 -162 736 -162 l 526 -162 l 526 -50 z "},"Í":{"ha":488,"x_min":69,"x_max":418,"o":"m 69 92 l 169 92 l 169 696 l 69 696 l 69 788 l 418 788 l 418 696 l 317 696 l 317 92 l 418 92 l 418 0 l 69 0 l 69 92 m 275 1108 l 413 1108 l 285 896 l 206 896 l 275 1108 z "},"Ĭ":{"ha":488,"x_min":69,"x_max":418,"o":"m 69 92 l 169 92 l 169 696 l 69 696 l 69 788 l 418 788 l 418 696 l 317 696 l 317 92 l 418 92 l 418 0 l 69 0 l 69 92 m 242 871 q 124 912 169 871 q 72 1026 79 953 l 158 1026 q 244 947 174 947 q 301 967 279 947 q 329 1026 324 988 l 417 1026 q 363 911 408 951 q 242 871 317 871 z "},"Ǐ":{"ha":488,"x_min":69,"x_max":418,"o":"m 69 92 l 169 92 l 169 696 l 69 696 l 69 788 l 418 788 l 418 696 l 317 696 l 317 92 l 418 92 l 418 0 l 69 0 l 69 92 m 69 1085 l 160 1085 l 247 932 l 332 1085 l 418 1085 l 313 865 l 181 865 l 69 1085 z "},"Î":{"ha":488,"x_min":60,"x_max":429,"o":"m 69 92 l 169 92 l 169 696 l 69 696 l 69 788 l 418 788 l 418 696 l 317 696 l 317 92 l 418 92 l 418 0 l 69 0 l 69 92 m 176 1092 l 313 1092 l 429 867 l 338 867 l 244 1036 l 151 867 l 60 867 l 176 1092 z "},"Ȉ":{"ha":488,"x_min":-46,"x_max":418,"o":"m 69 92 l 169 92 l 169 696 l 69 696 l 69 788 l 418 788 l 418 696 l 317 696 l 317 92 l 418 92 l 418 0 l 69 0 l 69 92 m -46 1117 l 92 1117 l 165 896 l 86 896 l -46 1117 m 165 1117 l 301 1117 l 375 896 l 296 896 l 165 1117 z "},"Ï":{"ha":488,"x_min":25,"x_max":464,"o":"m 69 92 l 169 92 l 169 696 l 69 696 l 69 788 l 418 788 l 418 696 l 317 696 l 317 92 l 418 92 l 418 0 l 69 0 l 69 92 m 101 882 q 47 901 68 882 q 25 953 25 919 q 46 1006 25 986 q 101 1025 67 1025 q 156 1006 135 1025 q 176 953 176 986 q 156 901 176 919 q 101 882 135 882 m 388 882 q 334 901 354 882 q 314 953 314 919 q 334 1006 314 986 q 388 1025 354 1025 q 443 1006 422 1025 q 464 953 464 986 q 442 901 464 919 q 388 882 421 882 z "},"Ḯ":{"ha":488,"x_min":25,"x_max":464,"o":"m 69 92 l 169 92 l 169 696 l 69 696 l 69 788 l 418 788 l 418 696 l 317 696 l 317 92 l 418 92 l 418 0 l 69 0 l 69 92 m 101 882 q 47 901 68 882 q 25 953 25 919 q 46 1006 25 986 q 101 1025 67 1025 q 156 1006 135 1025 q 176 953 176 986 q 156 901 176 919 q 101 882 135 882 m 388 882 q 334 901 354 882 q 314 953 314 919 q 334 1006 314 986 q 388 1025 354 1025 q 443 1006 422 1025 q 464 953 464 986 q 442 901 464 919 q 388 882 421 882 m 275 1338 l 413 1338 l 285 1125 l 206 1125 l 275 1338 z "},"İ":{"ha":488,"x_min":69,"x_max":418,"o":"m 69 92 l 169 92 l 169 696 l 69 696 l 69 788 l 418 788 l 418 696 l 317 696 l 317 92 l 418 92 l 418 0 l 69 0 l 69 92 m 244 885 q 188 906 210 885 q 165 960 165 928 q 188 1015 165 993 q 244 1036 210 1036 q 302 1015 281 1036 q 324 957 324 993 q 301 906 324 926 q 244 885 279 885 z "},"Ị":{"ha":488,"x_min":69,"x_max":418,"o":"m 69 92 l 169 92 l 169 696 l 69 696 l 69 788 l 418 788 l 418 696 l 317 696 l 317 92 l 418 92 l 418 0 l 69 0 l 69 92 m 243 -215 q 188 -194 210 -215 q 167 -143 167 -174 q 188 -92 167 -112 q 243 -72 210 -72 q 299 -92 278 -72 q 319 -146 319 -111 q 298 -195 319 -175 q 243 -215 276 -215 z "},"Ì":{"ha":488,"x_min":69,"x_max":418,"o":"m 69 92 l 169 92 l 169 696 l 69 696 l 69 788 l 418 788 l 418 696 l 317 696 l 317 92 l 418 92 l 418 0 l 69 0 l 69 92 m 76 1108 l 213 1108 l 283 896 l 203 896 l 76 1108 z "},"Ỉ":{"ha":488,"x_min":69,"x_max":418,"o":"m 69 92 l 169 92 l 169 696 l 69 696 l 69 788 l 418 788 l 418 696 l 317 696 l 317 92 l 418 92 l 418 0 l 69 0 l 69 92 m 222 908 q 258 928 246 917 q 269 960 269 940 q 256 988 269 978 q 219 999 242 999 q 154 979 186 999 l 133 1040 q 233 1071 179 1071 q 319 1042 286 1071 q 351 967 351 1013 q 242 847 351 878 l 222 908 z "},"Ȋ":{"ha":488,"x_min":68,"x_max":419,"o":"m 69 92 l 169 92 l 169 696 l 69 696 l 69 788 l 418 788 l 418 696 l 317 696 l 317 92 l 418 92 l 418 0 l 69 0 l 69 92 m 68 863 q 121 985 74 940 q 244 1029 168 1029 q 367 985 319 1029 q 419 863 414 940 l 326 863 q 244 938 314 938 q 189 918 210 938 q 161 863 168 899 l 68 863 z "},"Ī":{"ha":488,"x_min":69,"x_max":418,"o":"m 69 92 l 169 92 l 169 696 l 69 696 l 69 788 l 418 788 l 418 696 l 317 696 l 317 92 l 418 92 l 418 0 l 69 0 l 69 92 m 89 969 l 400 969 l 400 894 l 89 894 l 89 969 z "},"Į":{"ha":488,"x_min":69,"x_max":418,"o":"m 69 92 l 169 92 l 169 696 l 69 696 l 69 788 l 418 788 l 418 696 l 317 696 l 317 92 l 418 92 l 418 0 l 69 0 l 69 92 m 249 -244 q 166 -215 199 -244 q 133 -137 133 -185 q 153 -69 133 -103 q 213 0 172 -36 l 275 0 q 214 -111 214 -65 q 232 -156 214 -140 q 281 -171 250 -171 q 340 -154 311 -171 l 340 -218 q 249 -244 292 -244 z "},"Ĩ":{"ha":488,"x_min":40,"x_max":450,"o":"m 69 92 l 169 92 l 169 696 l 69 696 l 69 788 l 418 788 l 418 696 l 317 696 l 317 92 l 418 92 l 418 0 l 69 0 l 69 92 m 335 892 q 288 899 311 892 q 225 922 264 907 q 144 947 169 947 q 99 899 104 947 l 40 899 q 77 1007 46 972 q 158 1042 108 1042 q 199 1035 178 1042 q 238 1021 219 1028 q 263 1011 257 1014 q 296 997 268 1008 q 340 986 324 986 q 376 998 363 986 q 394 1038 389 1010 l 450 1038 q 415 931 444 969 q 335 892 386 892 z "},"J":{"ha":475,"x_min":39,"x_max":440,"o":"m 39 -50 l 114 -50 q 182 -22 164 -50 q 200 67 200 7 l 200 699 l 97 699 l 97 788 l 440 788 l 440 699 l 344 699 l 344 72 q 297 -106 344 -49 q 139 -162 249 -162 l 39 -162 l 39 -50 z "},"Ĵ":{"ha":475,"x_min":39,"x_max":456,"o":"m 39 -50 l 114 -50 q 182 -22 164 -50 q 200 67 200 7 l 200 699 l 97 699 l 97 788 l 440 788 l 440 699 l 344 699 l 344 72 q 297 -106 344 -49 q 139 -162 249 -162 l 39 -162 l 39 -50 m 203 1092 l 339 1092 l 456 867 l 364 867 l 271 1036 l 178 867 l 86 867 l 203 1092 z "},"K":{"ha":904,"x_min":57,"x_max":865,"o":"m 57 92 l 158 92 l 158 696 l 57 696 l 57 788 l 406 788 l 406 696 l 304 696 l 304 415 l 604 696 l 519 696 l 519 788 l 856 788 l 856 696 l 763 696 l 449 400 l 771 92 l 865 92 l 865 0 l 517 0 l 517 92 l 600 92 l 304 374 l 304 92 l 406 92 l 406 0 l 57 0 l 57 92 z "},"Ǩ":{"ha":904,"x_min":57,"x_max":865,"o":"m 57 92 l 158 92 l 158 696 l 57 696 l 57 788 l 406 788 l 406 696 l 304 696 l 304 415 l 604 696 l 519 696 l 519 788 l 856 788 l 856 696 l 763 696 l 449 400 l 771 92 l 865 92 l 865 0 l 517 0 l 517 92 l 600 92 l 304 374 l 304 92 l 406 92 l 406 0 l 57 0 l 57 92 m 282 1085 l 372 1085 l 460 932 l 544 1085 l 631 1085 l 525 865 l 393 865 l 282 1085 z "},"Ķ":{"ha":904,"x_min":57,"x_max":865,"o":"m 57 92 l 158 92 l 158 696 l 57 696 l 57 788 l 406 788 l 406 696 l 304 696 l 304 415 l 604 696 l 519 696 l 519 788 l 856 788 l 856 696 l 763 696 l 449 400 l 771 92 l 865 92 l 865 0 l 517 0 l 517 92 l 600 92 l 304 374 l 304 92 l 406 92 l 406 0 l 57 0 l 57 92 m 397 -301 q 458 -272 439 -296 q 476 -204 476 -249 l 397 -204 l 397 -72 l 546 -72 l 546 -199 q 397 -353 546 -353 l 397 -301 z "},"L":{"ha":746,"x_min":57,"x_max":710,"o":"m 57 92 l 158 92 l 158 699 l 57 699 l 57 788 l 406 788 l 406 699 l 304 699 l 304 92 l 601 92 l 601 325 l 710 325 l 710 0 l 57 0 l 57 92 z "},"Ǉ":{"ha":1221,"x_min":57,"x_max":1186,"o":"m 57 92 l 158 92 l 158 699 l 57 699 l 57 788 l 406 788 l 406 699 l 304 699 l 304 92 l 601 92 l 601 325 l 710 325 l 710 0 l 57 0 l 57 92 m 785 -50 l 860 -50 q 928 -22 910 -50 q 946 67 946 7 l 946 699 l 843 699 l 843 788 l 1186 788 l 1186 699 l 1090 699 l 1090 72 q 1042 -106 1090 -49 q 885 -162 994 -162 l 785 -162 l 785 -50 z "},"Ĺ":{"ha":746,"x_min":57,"x_max":710,"o":"m 57 92 l 158 92 l 158 699 l 57 699 l 57 788 l 406 788 l 406 699 l 304 699 l 304 92 l 601 92 l 601 325 l 710 325 l 710 0 l 57 0 l 57 92 m 261 1108 l 399 1108 l 271 896 l 192 896 l 261 1108 z "},"Ľ":{"ha":746,"x_min":57,"x_max":710,"o":"m 57 92 l 158 92 l 158 699 l 57 699 l 57 788 l 406 788 l 406 699 l 304 699 l 304 92 l 601 92 l 601 325 l 710 325 l 710 0 l 57 0 l 57 92 m 558 557 q 621 583 601 563 q 640 651 640 604 l 560 651 l 560 788 l 710 788 l 708 658 q 558 506 711 506 l 558 557 z "},"Ļ":{"ha":746,"x_min":57,"x_max":710,"o":"m 57 92 l 158 92 l 158 699 l 57 699 l 57 788 l 406 788 l 406 699 l 304 699 l 304 92 l 601 92 l 601 325 l 710 325 l 710 0 l 57 0 l 57 92 m 319 -301 q 380 -272 361 -296 q 399 -204 399 -249 l 319 -204 l 319 -72 l 468 -72 l 468 -199 q 319 -353 468 -353 l 319 -301 z "},"Ŀ":{"ha":746,"x_min":57,"x_max":710,"o":"m 57 92 l 158 92 l 158 699 l 57 699 l 57 788 l 406 788 l 406 699 l 304 699 l 304 92 l 601 92 l 601 325 l 710 325 l 710 0 l 57 0 l 57 92 m 601 460 q 544 481 567 460 q 521 535 521 503 q 544 588 521 567 q 601 610 567 610 q 658 588 636 610 q 681 535 681 567 q 658 481 681 503 q 601 460 636 460 z "},"Ḷ":{"ha":746,"x_min":57,"x_max":710,"o":"m 57 92 l 158 92 l 158 699 l 57 699 l 57 788 l 406 788 l 406 699 l 304 699 l 304 92 l 601 92 l 601 325 l 710 325 l 710 0 l 57 0 l 57 92 m 392 -215 q 337 -194 358 -215 q 315 -143 315 -174 q 337 -92 315 -112 q 392 -72 358 -72 q 447 -92 426 -72 q 468 -146 468 -111 q 447 -195 468 -175 q 392 -215 425 -215 z "},"ǈ":{"ha":1110,"x_min":57,"x_max":1032,"o":"m 57 92 l 158 92 l 158 699 l 57 699 l 57 788 l 406 788 l 406 699 l 304 699 l 304 92 l 601 92 l 601 325 l 710 325 l 710 0 l 57 0 l 57 92 m 944 664 q 882 688 907 664 q 857 747 857 711 q 882 806 857 782 q 944 829 907 829 q 1008 806 983 829 q 1032 747 1032 783 q 1008 688 1032 711 q 944 664 983 664 m 749 -115 l 806 -115 q 880 -90 860 -115 q 900 -4 900 -65 l 900 460 l 792 460 l 792 549 l 1032 549 l 1032 21 q 1014 -109 1032 -58 q 948 -187 996 -160 q 811 -215 900 -215 l 749 -215 l 749 -115 z "},"Ḻ":{"ha":746,"x_min":57,"x_max":710,"o":"m 57 92 l 158 92 l 158 699 l 57 699 l 57 788 l 406 788 l 406 699 l 304 699 l 304 92 l 601 92 l 601 325 l 710 325 l 710 0 l 57 0 l 57 92 m 236 -65 l 547 -65 l 547 -140 l 236 -140 l 236 -65 z "},"Ł":{"ha":746,"x_min":57,"x_max":710,"o":"m 710 325 l 710 0 l 57 0 l 57 92 l 158 92 l 158 321 l 57 274 l 57 353 l 158 401 l 158 699 l 57 699 l 57 788 l 406 788 l 406 699 l 304 699 l 304 471 l 497 563 l 497 481 l 304 390 l 304 92 l 601 92 l 601 325 l 710 325 z "},"M":{"ha":1174,"x_min":58,"x_max":1115,"o":"m 58 92 l 157 92 l 157 696 l 58 696 l 58 788 l 358 788 l 593 271 l 817 788 l 1115 788 l 1115 696 l 1018 696 l 1018 92 l 1115 92 l 1115 0 l 783 0 l 783 92 l 878 92 l 878 663 l 603 38 l 549 38 l 269 663 l 269 92 l 364 92 l 364 0 l 58 0 l 58 92 z "},"Ṁ":{"ha":1174,"x_min":58,"x_max":1115,"o":"m 58 92 l 157 92 l 157 696 l 58 696 l 58 788 l 358 788 l 593 271 l 817 788 l 1115 788 l 1115 696 l 1018 696 l 1018 92 l 1115 92 l 1115 0 l 783 0 l 783 92 l 878 92 l 878 663 l 603 38 l 549 38 l 269 663 l 269 92 l 364 92 l 364 0 l 58 0 l 58 92 m 586 885 q 529 906 551 885 q 507 960 507 928 q 529 1015 507 993 q 586 1036 551 1036 q 644 1015 622 1036 q 665 957 665 993 q 643 906 665 926 q 586 885 621 885 z "},"Ṃ":{"ha":1174,"x_min":58,"x_max":1115,"o":"m 58 92 l 157 92 l 157 696 l 58 696 l 58 788 l 358 788 l 593 271 l 817 788 l 1115 788 l 1115 696 l 1018 696 l 1018 92 l 1115 92 l 1115 0 l 783 0 l 783 92 l 878 92 l 878 663 l 603 38 l 549 38 l 269 663 l 269 92 l 364 92 l 364 0 l 58 0 l 58 92 m 575 -215 q 520 -194 542 -215 q 499 -143 499 -174 q 520 -92 499 -112 q 575 -72 542 -72 q 631 -92 610 -72 q 651 -146 651 -111 q 630 -195 651 -175 q 575 -215 608 -215 z "},"N":{"ha":994,"x_min":60,"x_max":956,"o":"m 60 92 l 163 92 l 163 696 l 60 696 l 60 788 l 331 788 l 749 189 l 749 696 l 643 696 l 643 788 l 956 788 l 956 696 l 854 696 l 854 0 l 708 0 l 267 638 l 267 92 l 372 92 l 372 0 l 60 0 l 60 92 z "},"Ǌ":{"ha":1469,"x_min":60,"x_max":1435,"o":"m 60 92 l 163 92 l 163 696 l 60 696 l 60 788 l 331 788 l 749 189 l 749 696 l 643 696 l 643 788 l 956 788 l 956 696 l 854 696 l 854 0 l 708 0 l 267 638 l 267 92 l 372 92 l 372 0 l 60 0 l 60 92 m 1033 -50 l 1108 -50 q 1176 -22 1158 -50 q 1194 67 1194 7 l 1194 699 l 1092 699 l 1092 788 l 1435 788 l 1435 699 l 1339 699 l 1339 72 q 1291 -106 1339 -49 q 1133 -162 1243 -162 l 1033 -162 l 1033 -50 z "},"Ń":{"ha":994,"x_min":60,"x_max":956,"o":"m 60 92 l 163 92 l 163 696 l 60 696 l 60 788 l 331 788 l 749 189 l 749 696 l 643 696 l 643 788 l 956 788 l 956 696 l 854 696 l 854 0 l 708 0 l 267 638 l 267 92 l 372 92 l 372 0 l 60 0 l 60 92 m 533 1108 l 671 1108 l 543 896 l 464 896 l 533 1108 z "},"Ň":{"ha":994,"x_min":60,"x_max":956,"o":"m 60 92 l 163 92 l 163 696 l 60 696 l 60 788 l 331 788 l 749 189 l 749 696 l 643 696 l 643 788 l 956 788 l 956 696 l 854 696 l 854 0 l 708 0 l 267 638 l 267 92 l 372 92 l 372 0 l 60 0 l 60 92 m 328 1085 l 418 1085 l 506 932 l 590 1085 l 676 1085 l 571 865 l 439 865 l 328 1085 z "},"Ņ":{"ha":994,"x_min":60,"x_max":956,"o":"m 60 92 l 163 92 l 163 696 l 60 696 l 60 788 l 331 788 l 749 189 l 749 696 l 643 696 l 643 788 l 956 788 l 956 696 l 854 696 l 854 0 l 708 0 l 267 638 l 267 92 l 372 92 l 372 0 l 60 0 l 60 92 m 447 -301 q 508 -272 489 -296 q 526 -204 526 -249 l 447 -204 l 447 -72 l 596 -72 l 596 -199 q 447 -353 596 -353 l 447 -301 z "},"Ṅ":{"ha":994,"x_min":60,"x_max":956,"o":"m 60 92 l 163 92 l 163 696 l 60 696 l 60 788 l 331 788 l 749 189 l 749 696 l 643 696 l 643 788 l 956 788 l 956 696 l 854 696 l 854 0 l 708 0 l 267 638 l 267 92 l 372 92 l 372 0 l 60 0 l 60 92 m 503 885 q 446 906 468 885 q 424 960 424 928 q 446 1015 424 993 q 503 1036 468 1036 q 560 1015 539 1036 q 582 957 582 993 q 560 906 582 926 q 503 885 538 885 z "},"Ṇ":{"ha":994,"x_min":60,"x_max":956,"o":"m 60 92 l 163 92 l 163 696 l 60 696 l 60 788 l 331 788 l 749 189 l 749 696 l 643 696 l 643 788 l 956 788 l 956 696 l 854 696 l 854 0 l 708 0 l 267 638 l 267 92 l 372 92 l 372 0 l 60 0 l 60 92 m 519 -215 q 465 -194 486 -215 q 443 -143 443 -174 q 465 -92 443 -112 q 519 -72 486 -72 q 575 -92 554 -72 q 596 -146 596 -111 q 574 -195 596 -175 q 519 -215 553 -215 z "},"Ǹ":{"ha":994,"x_min":60,"x_max":956,"o":"m 60 92 l 163 92 l 163 696 l 60 696 l 60 788 l 331 788 l 749 189 l 749 696 l 643 696 l 643 788 l 956 788 l 956 696 l 854 696 l 854 0 l 708 0 l 267 638 l 267 92 l 372 92 l 372 0 l 60 0 l 60 92 m 335 1108 l 471 1108 l 542 896 l 461 896 l 335 1108 z "},"Ŋ":{"ha":990,"x_min":57,"x_max":950,"o":"m 542 -167 l 574 -167 q 699 -128 654 -167 q 743 -18 744 -90 l 264 625 l 264 92 l 369 92 l 369 0 l 57 0 l 57 92 l 160 92 l 160 696 l 57 696 l 57 788 l 313 788 l 743 194 l 743 696 l 638 696 l 638 788 l 950 788 l 950 696 l 850 696 l 850 0 q 780 -194 850 -129 q 589 -258 710 -258 l 542 -258 l 542 -167 z "},"ǋ":{"ha":1358,"x_min":60,"x_max":1281,"o":"m 60 92 l 163 92 l 163 696 l 60 696 l 60 788 l 331 788 l 749 189 l 749 696 l 643 696 l 643 788 l 956 788 l 956 696 l 854 696 l 854 0 l 708 0 l 267 638 l 267 92 l 372 92 l 372 0 l 60 0 l 60 92 m 1193 664 q 1131 688 1156 664 q 1106 747 1106 711 q 1131 806 1106 782 q 1193 829 1156 829 q 1256 806 1232 829 q 1281 747 1281 783 q 1256 688 1281 711 q 1193 664 1232 664 m 997 -115 l 1054 -115 q 1128 -90 1108 -115 q 1149 -4 1149 -65 l 1149 460 l 1040 460 l 1040 549 l 1281 549 l 1281 21 q 1263 -109 1281 -58 q 1197 -187 1244 -160 q 1060 -215 1149 -215 l 997 -215 l 997 -115 z "},"Ṉ":{"ha":994,"x_min":60,"x_max":956,"o":"m 60 92 l 163 92 l 163 696 l 60 696 l 60 788 l 331 788 l 749 189 l 749 696 l 643 696 l 643 788 l 956 788 l 956 696 l 854 696 l 854 0 l 708 0 l 267 638 l 267 92 l 372 92 l 372 0 l 60 0 l 60 92 m 364 -65 l 675 -65 l 675 -140 l 364 -140 l 364 -65 z "},"Ñ":{"ha":994,"x_min":60,"x_max":956,"o":"m 60 92 l 163 92 l 163 696 l 60 696 l 60 788 l 331 788 l 749 189 l 749 696 l 643 696 l 643 788 l 956 788 l 956 696 l 854 696 l 854 0 l 708 0 l 267 638 l 267 92 l 372 92 l 372 0 l 60 0 l 60 92 m 593 892 q 546 899 569 892 q 483 922 522 907 q 403 947 428 947 q 357 899 363 947 l 299 899 q 335 1007 304 972 q 417 1042 367 1042 q 457 1035 436 1042 q 497 1021 478 1028 q 521 1011 515 1014 q 554 997 526 1008 q 599 986 582 986 q 634 998 621 986 q 653 1038 647 1010 l 708 1038 q 674 931 703 969 q 593 892 644 892 z "},"O":{"ha":992,"x_min":64,"x_max":928,"o":"m 496 -15 q 269 39 368 -15 q 117 185 171 93 q 64 392 64 278 q 117 599 64 506 q 269 747 171 692 q 496 801 368 801 q 722 747 624 801 q 874 599 819 692 q 928 392 928 506 q 874 185 928 278 q 722 39 821 93 q 496 -15 624 -15 m 496 89 q 644 129 581 89 q 740 239 707 169 q 774 393 774 308 q 740 549 774 479 q 644 658 707 618 q 496 699 581 699 q 348 658 411 699 q 252 548 285 618 q 219 392 219 478 q 253 237 219 306 q 349 128 286 168 q 496 89 411 89 z "},"Ó":{"ha":992,"x_min":64,"x_max":928,"o":"m 496 -15 q 269 39 368 -15 q 117 185 171 93 q 64 392 64 278 q 117 599 64 506 q 269 747 171 692 q 496 801 368 801 q 722 747 624 801 q 874 599 819 692 q 928 392 928 506 q 874 185 928 278 q 722 39 821 93 q 496 -15 624 -15 m 496 89 q 644 129 581 89 q 740 239 707 169 q 774 393 774 308 q 740 549 774 479 q 644 658 707 618 q 496 699 581 699 q 348 658 411 699 q 252 548 285 618 q 219 392 219 478 q 253 237 219 306 q 349 128 286 168 q 496 89 411 89 m 525 1108 l 663 1108 l 535 896 l 456 896 l 525 1108 z "},"Ŏ":{"ha":992,"x_min":64,"x_max":928,"o":"m 496 -15 q 269 39 368 -15 q 117 185 171 93 q 64 392 64 278 q 117 599 64 506 q 269 747 171 692 q 496 801 368 801 q 722 747 624 801 q 874 599 819 692 q 928 392 928 506 q 874 185 928 278 q 722 39 821 93 q 496 -15 624 -15 m 496 89 q 644 129 581 89 q 740 239 707 169 q 774 393 774 308 q 740 549 774 479 q 644 658 707 618 q 496 699 581 699 q 348 658 411 699 q 252 548 285 618 q 219 392 219 478 q 253 237 219 306 q 349 128 286 168 q 496 89 411 89 m 492 871 q 374 912 419 871 q 322 1026 329 953 l 408 1026 q 494 947 424 947 q 551 967 529 947 q 579 1026 574 988 l 667 1026 q 613 911 658 951 q 492 871 567 871 z "},"Ǒ":{"ha":992,"x_min":64,"x_max":928,"o":"m 496 -15 q 269 39 368 -15 q 117 185 171 93 q 64 392 64 278 q 117 599 64 506 q 269 747 171 692 q 496 801 368 801 q 722 747 624 801 q 874 599 819 692 q 928 392 928 506 q 874 185 928 278 q 722 39 821 93 q 496 -15 624 -15 m 496 89 q 644 129 581 89 q 740 239 707 169 q 774 393 774 308 q 740 549 774 479 q 644 658 707 618 q 496 699 581 699 q 348 658 411 699 q 252 548 285 618 q 219 392 219 478 q 253 237 219 306 q 349 128 286 168 q 496 89 411 89 m 319 1085 l 410 1085 l 497 932 l 582 1085 l 668 1085 l 563 865 l 431 865 l 319 1085 z "},"Ô":{"ha":992,"x_min":64,"x_max":928,"o":"m 496 -15 q 269 39 368 -15 q 117 185 171 93 q 64 392 64 278 q 117 599 64 506 q 269 747 171 692 q 496 801 368 801 q 722 747 624 801 q 874 599 819 692 q 928 392 928 506 q 874 185 928 278 q 722 39 821 93 q 496 -15 624 -15 m 496 89 q 644 129 581 89 q 740 239 707 169 q 774 393 774 308 q 740 549 774 479 q 644 658 707 618 q 496 699 581 699 q 348 658 411 699 q 252 548 285 618 q 219 392 219 478 q 253 237 219 306 q 349 128 286 168 q 496 89 411 89 m 426 1092 l 563 1092 l 679 867 l 588 867 l 494 1036 l 401 867 l 310 867 l 426 1092 z "},"Ố":{"ha":992,"x_min":64,"x_max":928,"o":"m 496 -15 q 269 39 368 -15 q 117 185 171 93 q 64 392 64 278 q 117 599 64 506 q 269 747 171 692 q 496 801 368 801 q 722 747 624 801 q 874 599 819 692 q 928 392 928 506 q 874 185 928 278 q 722 39 821 93 q 496 -15 624 -15 m 496 89 q 644 129 581 89 q 740 239 707 169 q 774 393 774 308 q 740 549 774 479 q 644 658 707 618 q 496 699 581 699 q 348 658 411 699 q 252 548 285 618 q 219 392 219 478 q 253 237 219 306 q 349 128 286 168 q 496 89 411 89 m 699 1161 l 814 1161 l 713 994 l 639 994 l 699 1161 m 429 1047 l 560 1047 l 676 867 l 585 867 l 494 992 l 404 867 l 313 867 l 429 1047 z "},"Ộ":{"ha":992,"x_min":64,"x_max":928,"o":"m 496 -15 q 269 39 368 -15 q 117 185 171 93 q 64 392 64 278 q 117 599 64 506 q 269 747 171 692 q 496 801 368 801 q 722 747 624 801 q 874 599 819 692 q 928 392 928 506 q 874 185 928 278 q 722 39 821 93 q 496 -15 624 -15 m 496 89 q 644 129 581 89 q 740 239 707 169 q 774 393 774 308 q 740 549 774 479 q 644 658 707 618 q 496 699 581 699 q 348 658 411 699 q 252 548 285 618 q 219 392 219 478 q 253 237 219 306 q 349 128 286 168 q 496 89 411 89 m 496 -215 q 441 -194 463 -215 q 419 -143 419 -174 q 441 -92 419 -112 q 496 -72 463 -72 q 551 -92 531 -72 q 572 -146 572 -111 q 551 -195 572 -175 q 496 -215 529 -215 m 426 1092 l 563 1092 l 679 867 l 588 867 l 494 1036 l 401 867 l 310 867 l 426 1092 z "},"Ồ":{"ha":992,"x_min":64,"x_max":928,"o":"m 496 -15 q 269 39 368 -15 q 117 185 171 93 q 64 392 64 278 q 117 599 64 506 q 269 747 171 692 q 496 801 368 801 q 722 747 624 801 q 874 599 819 692 q 928 392 928 506 q 874 185 928 278 q 722 39 821 93 q 496 -15 624 -15 m 496 89 q 644 129 581 89 q 740 239 707 169 q 774 393 774 308 q 740 549 774 479 q 644 658 707 618 q 496 699 581 699 q 348 658 411 699 q 252 548 285 618 q 219 392 219 478 q 253 237 219 306 q 349 128 286 168 q 496 89 411 89 m 669 994 l 569 1161 l 685 1161 l 744 994 l 669 994 m 429 1047 l 560 1047 l 676 867 l 585 867 l 494 992 l 404 867 l 313 867 l 429 1047 z "},"Ổ":{"ha":992,"x_min":64,"x_max":928,"o":"m 496 -15 q 269 39 368 -15 q 117 185 171 93 q 64 392 64 278 q 117 599 64 506 q 269 747 171 692 q 496 801 368 801 q 722 747 624 801 q 874 599 819 692 q 928 392 928 506 q 874 185 928 278 q 722 39 821 93 q 496 -15 624 -15 m 496 89 q 644 129 581 89 q 740 239 707 169 q 774 393 774 308 q 740 549 774 479 q 644 658 707 618 q 496 699 581 699 q 348 658 411 699 q 252 548 285 618 q 219 392 219 478 q 253 237 219 306 q 349 128 286 168 q 496 89 411 89 m 628 1039 q 663 1059 651 1047 q 675 1090 675 1071 q 661 1119 675 1108 q 625 1129 647 1129 q 560 1110 592 1129 l 539 1171 q 639 1201 585 1201 q 724 1172 692 1201 q 757 1097 757 1143 q 647 978 757 1008 l 628 1039 m 429 1047 l 560 1047 l 676 867 l 585 867 l 494 992 l 404 867 l 313 867 l 429 1047 z "},"Ỗ":{"ha":992,"x_min":64,"x_max":928,"o":"m 496 -15 q 269 39 368 -15 q 117 185 171 93 q 64 392 64 278 q 117 599 64 506 q 269 747 171 692 q 496 801 368 801 q 722 747 624 801 q 874 599 819 692 q 928 392 928 506 q 874 185 928 278 q 722 39 821 93 q 496 -15 624 -15 m 496 89 q 644 129 581 89 q 740 239 707 169 q 774 393 774 308 q 740 549 774 479 q 644 658 707 618 q 496 699 581 699 q 348 658 411 699 q 252 548 285 618 q 219 392 219 478 q 253 237 219 306 q 349 128 286 168 q 496 89 411 89 m 586 1089 q 541 1096 564 1089 q 481 1118 518 1103 q 400 1142 425 1142 q 354 1093 360 1142 l 296 1093 q 331 1196 301 1163 q 407 1229 360 1229 q 447 1222 426 1229 q 507 1200 467 1215 q 585 1176 563 1176 q 620 1188 607 1176 q 639 1225 633 1199 l 694 1225 q 662 1125 689 1161 q 586 1089 635 1089 m 429 1047 l 560 1047 l 676 867 l 585 867 l 494 992 l 404 867 l 313 867 l 429 1047 z "},"Ȍ":{"ha":992,"x_min":64,"x_max":928,"o":"m 496 -15 q 269 39 368 -15 q 117 185 171 93 q 64 392 64 278 q 117 599 64 506 q 269 747 171 692 q 496 801 368 801 q 722 747 624 801 q 874 599 819 692 q 928 392 928 506 q 874 185 928 278 q 722 39 821 93 q 496 -15 624 -15 m 496 89 q 644 129 581 89 q 740 239 707 169 q 774 393 774 308 q 740 549 774 479 q 644 658 707 618 q 496 699 581 699 q 348 658 411 699 q 252 548 285 618 q 219 392 219 478 q 253 237 219 306 q 349 128 286 168 q 496 89 411 89 m 204 1117 l 342 1117 l 415 896 l 336 896 l 204 1117 m 415 1117 l 551 1117 l 625 896 l 546 896 l 415 1117 z "},"Ö":{"ha":992,"x_min":64,"x_max":928,"o":"m 496 -15 q 269 39 368 -15 q 117 185 171 93 q 64 392 64 278 q 117 599 64 506 q 269 747 171 692 q 496 801 368 801 q 722 747 624 801 q 874 599 819 692 q 928 392 928 506 q 874 185 928 278 q 722 39 821 93 q 496 -15 624 -15 m 496 89 q 644 129 581 89 q 740 239 707 169 q 774 393 774 308 q 740 549 774 479 q 644 658 707 618 q 496 699 581 699 q 348 658 411 699 q 252 548 285 618 q 219 392 219 478 q 253 237 219 306 q 349 128 286 168 q 496 89 411 89 m 351 882 q 297 901 318 882 q 275 953 275 919 q 296 1006 275 986 q 351 1025 317 1025 q 406 1006 385 1025 q 426 953 426 986 q 406 901 426 919 q 351 882 385 882 m 638 882 q 584 901 604 882 q 564 953 564 919 q 584 1006 564 986 q 638 1025 604 1025 q 693 1006 672 1025 q 714 953 714 986 q 692 901 714 919 q 638 882 671 882 z "},"Ȫ":{"ha":992,"x_min":64,"x_max":928,"o":"m 496 -15 q 269 39 368 -15 q 117 185 171 93 q 64 392 64 278 q 117 599 64 506 q 269 747 171 692 q 496 801 368 801 q 722 747 624 801 q 874 599 819 692 q 928 392 928 506 q 874 185 928 278 q 722 39 821 93 q 496 -15 624 -15 m 496 89 q 644 129 581 89 q 740 239 707 169 q 774 393 774 308 q 740 549 774 479 q 644 658 707 618 q 496 699 581 699 q 348 658 411 699 q 252 548 285 618 q 219 392 219 478 q 253 237 219 306 q 349 128 286 168 q 496 89 411 89 m 351 882 q 297 901 318 882 q 275 953 275 919 q 296 1006 275 986 q 351 1025 317 1025 q 406 1006 385 1025 q 426 953 426 986 q 406 901 426 919 q 351 882 385 882 m 638 882 q 584 901 604 882 q 564 953 564 919 q 584 1006 564 986 q 638 1025 604 1025 q 693 1006 672 1025 q 714 953 714 986 q 692 901 714 919 q 638 882 671 882 m 339 1199 l 650 1199 l 650 1124 l 339 1124 l 339 1199 z "},"Ȯ":{"ha":992,"x_min":64,"x_max":928,"o":"m 496 -15 q 269 39 368 -15 q 117 185 171 93 q 64 392 64 278 q 117 599 64 506 q 269 747 171 692 q 496 801 368 801 q 722 747 624 801 q 874 599 819 692 q 928 392 928 506 q 874 185 928 278 q 722 39 821 93 q 496 -15 624 -15 m 496 89 q 644 129 581 89 q 740 239 707 169 q 774 393 774 308 q 740 549 774 479 q 644 658 707 618 q 496 699 581 699 q 348 658 411 699 q 252 548 285 618 q 219 392 219 478 q 253 237 219 306 q 349 128 286 168 q 496 89 411 89 m 494 885 q 438 906 460 885 q 415 960 415 928 q 438 1015 415 993 q 494 1036 460 1036 q 552 1015 531 1036 q 574 957 574 993 q 551 906 574 926 q 494 885 529 885 z "},"Ȱ":{"ha":992,"x_min":64,"x_max":928,"o":"m 496 -15 q 269 39 368 -15 q 117 185 171 93 q 64 392 64 278 q 117 599 64 506 q 269 747 171 692 q 496 801 368 801 q 722 747 624 801 q 874 599 819 692 q 928 392 928 506 q 874 185 928 278 q 722 39 821 93 q 496 -15 624 -15 m 496 89 q 644 129 581 89 q 740 239 707 169 q 774 393 774 308 q 740 549 774 479 q 644 658 707 618 q 496 699 581 699 q 348 658 411 699 q 252 548 285 618 q 219 392 219 478 q 253 237 219 306 q 349 128 286 168 q 496 89 411 89 m 494 885 q 438 906 460 885 q 415 960 415 928 q 438 1015 415 993 q 494 1036 460 1036 q 552 1015 531 1036 q 574 957 574 993 q 551 906 574 926 q 494 885 529 885 m 339 1199 l 650 1199 l 650 1124 l 339 1124 l 339 1199 z "},"Ọ":{"ha":992,"x_min":64,"x_max":928,"o":"m 496 -15 q 269 39 368 -15 q 117 185 171 93 q 64 392 64 278 q 117 599 64 506 q 269 747 171 692 q 496 801 368 801 q 722 747 624 801 q 874 599 819 692 q 928 392 928 506 q 874 185 928 278 q 722 39 821 93 q 496 -15 624 -15 m 496 89 q 644 129 581 89 q 740 239 707 169 q 774 393 774 308 q 740 549 774 479 q 644 658 707 618 q 496 699 581 699 q 348 658 411 699 q 252 548 285 618 q 219 392 219 478 q 253 237 219 306 q 349 128 286 168 q 496 89 411 89 m 496 -215 q 441 -194 463 -215 q 419 -143 419 -174 q 441 -92 419 -112 q 496 -72 463 -72 q 551 -92 531 -72 q 572 -146 572 -111 q 551 -195 572 -175 q 496 -215 529 -215 z "},"Ò":{"ha":992,"x_min":64,"x_max":928,"o":"m 496 -15 q 269 39 368 -15 q 117 185 171 93 q 64 392 64 278 q 117 599 64 506 q 269 747 171 692 q 496 801 368 801 q 722 747 624 801 q 874 599 819 692 q 928 392 928 506 q 874 185 928 278 q 722 39 821 93 q 496 -15 624 -15 m 496 89 q 644 129 581 89 q 740 239 707 169 q 774 393 774 308 q 740 549 774 479 q 644 658 707 618 q 496 699 581 699 q 348 658 411 699 q 252 548 285 618 q 219 392 219 478 q 253 237 219 306 q 349 128 286 168 q 496 89 411 89 m 326 1108 l 463 1108 l 533 896 l 453 896 l 326 1108 z "},"Ỏ":{"ha":992,"x_min":64,"x_max":928,"o":"m 496 -15 q 269 39 368 -15 q 117 185 171 93 q 64 392 64 278 q 117 599 64 506 q 269 747 171 692 q 496 801 368 801 q 722 747 624 801 q 874 599 819 692 q 928 392 928 506 q 874 185 928 278 q 722 39 821 93 q 496 -15 624 -15 m 496 89 q 644 129 581 89 q 740 239 707 169 q 774 393 774 308 q 740 549 774 479 q 644 658 707 618 q 496 699 581 699 q 348 658 411 699 q 252 548 285 618 q 219 392 219 478 q 253 237 219 306 q 349 128 286 168 q 496 89 411 89 m 472 908 q 508 928 496 917 q 519 960 519 940 q 506 988 519 978 q 469 999 492 999 q 404 979 436 999 l 383 1040 q 483 1071 429 1071 q 569 1042 536 1071 q 601 967 601 1013 q 492 847 601 878 l 472 908 z "},"Ơ":{"ha":992,"x_min":64,"x_max":928,"o":"m 747 731 q 881 587 833 676 q 928 392 928 497 q 874 185 928 278 q 722 39 821 93 q 496 -15 624 -15 q 269 39 368 -15 q 117 185 171 93 q 64 392 64 278 q 117 599 64 506 q 269 748 171 693 q 494 803 367 803 q 575 797 525 803 q 639 792 617 792 q 708 815 681 792 q 738 885 735 838 l 860 885 q 825 789 854 828 q 747 731 796 750 m 496 89 q 644 129 581 89 q 740 239 707 169 q 774 393 774 308 q 740 549 774 479 q 644 658 707 618 q 499 699 582 699 q 349 659 413 699 q 253 549 286 619 q 219 392 219 479 q 253 237 219 306 q 349 128 286 168 q 496 89 411 89 z "},"Ớ":{"ha":992,"x_min":64,"x_max":928,"o":"m 747 731 q 881 587 833 676 q 928 392 928 497 q 874 185 928 278 q 722 39 821 93 q 496 -15 624 -15 q 269 39 368 -15 q 117 185 171 93 q 64 392 64 278 q 117 599 64 506 q 269 748 171 693 q 494 803 367 803 q 575 797 525 803 q 639 792 617 792 q 708 815 681 792 q 738 885 735 838 l 860 885 q 825 789 854 828 q 747 731 796 750 m 496 89 q 644 129 581 89 q 740 239 707 169 q 774 393 774 308 q 740 549 774 479 q 644 658 707 618 q 499 699 582 699 q 349 659 413 699 q 253 549 286 619 q 219 392 219 479 q 253 237 219 306 q 349 128 286 168 q 496 89 411 89 m 525 1108 l 663 1108 l 535 896 l 456 896 l 525 1108 z "},"Ợ":{"ha":992,"x_min":64,"x_max":928,"o":"m 747 731 q 881 587 833 676 q 928 392 928 497 q 874 185 928 278 q 722 39 821 93 q 496 -15 624 -15 q 269 39 368 -15 q 117 185 171 93 q 64 392 64 278 q 117 599 64 506 q 269 748 171 693 q 494 803 367 803 q 575 797 525 803 q 639 792 617 792 q 708 815 681 792 q 738 885 735 838 l 860 885 q 825 789 854 828 q 747 731 796 750 m 496 89 q 644 129 581 89 q 740 239 707 169 q 774 393 774 308 q 740 549 774 479 q 644 658 707 618 q 499 699 582 699 q 349 659 413 699 q 253 549 286 619 q 219 392 219 479 q 253 237 219 306 q 349 128 286 168 q 496 89 411 89 m 496 -215 q 441 -194 463 -215 q 419 -143 419 -174 q 441 -92 419 -112 q 496 -72 463 -72 q 551 -92 531 -72 q 572 -146 572 -111 q 551 -195 572 -175 q 496 -215 529 -215 z "},"Ờ":{"ha":992,"x_min":64,"x_max":928,"o":"m 747 731 q 881 587 833 676 q 928 392 928 497 q 874 185 928 278 q 722 39 821 93 q 496 -15 624 -15 q 269 39 368 -15 q 117 185 171 93 q 64 392 64 278 q 117 599 64 506 q 269 748 171 693 q 494 803 367 803 q 575 797 525 803 q 639 792 617 792 q 708 815 681 792 q 738 885 735 838 l 860 885 q 825 789 854 828 q 747 731 796 750 m 496 89 q 644 129 581 89 q 740 239 707 169 q 774 393 774 308 q 740 549 774 479 q 644 658 707 618 q 499 699 582 699 q 349 659 413 699 q 253 549 286 619 q 219 392 219 479 q 253 237 219 306 q 349 128 286 168 q 496 89 411 89 m 326 1108 l 463 1108 l 533 896 l 453 896 l 326 1108 z "},"Ở":{"ha":992,"x_min":64,"x_max":928,"o":"m 747 731 q 881 587 833 676 q 928 392 928 497 q 874 185 928 278 q 722 39 821 93 q 496 -15 624 -15 q 269 39 368 -15 q 117 185 171 93 q 64 392 64 278 q 117 599 64 506 q 269 748 171 693 q 494 803 367 803 q 575 797 525 803 q 639 792 617 792 q 708 815 681 792 q 738 885 735 838 l 860 885 q 825 789 854 828 q 747 731 796 750 m 496 89 q 644 129 581 89 q 740 239 707 169 q 774 393 774 308 q 740 549 774 479 q 644 658 707 618 q 499 699 582 699 q 349 659 413 699 q 253 549 286 619 q 219 392 219 479 q 253 237 219 306 q 349 128 286 168 q 496 89 411 89 m 472 908 q 508 928 496 917 q 519 960 519 940 q 506 988 519 978 q 469 999 492 999 q 404 979 436 999 l 383 1040 q 483 1071 429 1071 q 569 1042 536 1071 q 601 967 601 1013 q 492 847 601 878 l 472 908 z "},"Ỡ":{"ha":992,"x_min":64,"x_max":928,"o":"m 747 731 q 881 587 833 676 q 928 392 928 497 q 874 185 928 278 q 722 39 821 93 q 496 -15 624 -15 q 269 39 368 -15 q 117 185 171 93 q 64 392 64 278 q 117 599 64 506 q 269 748 171 693 q 494 803 367 803 q 575 797 525 803 q 639 792 617 792 q 708 815 681 792 q 738 885 735 838 l 860 885 q 825 789 854 828 q 747 731 796 750 m 496 89 q 644 129 581 89 q 740 239 707 169 q 774 393 774 308 q 740 549 774 479 q 644 658 707 618 q 499 699 582 699 q 349 659 413 699 q 253 549 286 619 q 219 392 219 479 q 253 237 219 306 q 349 128 286 168 q 496 89 411 89 m 585 892 q 538 899 561 892 q 475 922 514 907 q 394 947 419 947 q 349 899 354 947 l 290 899 q 327 1007 296 972 q 408 1042 358 1042 q 449 1035 428 1042 q 488 1021 469 1028 q 513 1011 507 1014 q 546 997 518 1008 q 590 986 574 986 q 626 998 613 986 q 644 1038 639 1010 l 700 1038 q 665 931 694 969 q 585 892 636 892 z "},"Ő":{"ha":992,"x_min":64,"x_max":928,"o":"m 496 -15 q 269 39 368 -15 q 117 185 171 93 q 64 392 64 278 q 117 599 64 506 q 269 747 171 692 q 496 801 368 801 q 722 747 624 801 q 874 599 819 692 q 928 392 928 506 q 874 185 928 278 q 722 39 821 93 q 496 -15 624 -15 m 496 89 q 644 129 581 89 q 740 239 707 169 q 774 393 774 308 q 740 549 774 479 q 644 658 707 618 q 496 699 581 699 q 348 658 411 699 q 252 548 285 618 q 219 392 219 478 q 253 237 219 306 q 349 128 286 168 q 496 89 411 89 m 424 1117 l 560 1117 l 428 896 l 350 896 l 424 1117 m 633 1117 l 769 1117 l 639 896 l 560 896 l 633 1117 z "},"Ȏ":{"ha":992,"x_min":64,"x_max":928,"o":"m 496 -15 q 269 39 368 -15 q 117 185 171 93 q 64 392 64 278 q 117 599 64 506 q 269 747 171 692 q 496 801 368 801 q 722 747 624 801 q 874 599 819 692 q 928 392 928 506 q 874 185 928 278 q 722 39 821 93 q 496 -15 624 -15 m 496 89 q 644 129 581 89 q 740 239 707 169 q 774 393 774 308 q 740 549 774 479 q 644 658 707 618 q 496 699 581 699 q 348 658 411 699 q 252 548 285 618 q 219 392 219 478 q 253 237 219 306 q 349 128 286 168 q 496 89 411 89 m 318 863 q 371 985 324 940 q 494 1029 418 1029 q 617 985 569 1029 q 669 863 664 940 l 576 863 q 494 938 564 938 q 439 918 460 938 q 411 863 418 899 l 318 863 z "},"Ō":{"ha":992,"x_min":64,"x_max":928,"o":"m 496 -15 q 269 39 368 -15 q 117 185 171 93 q 64 392 64 278 q 117 599 64 506 q 269 747 171 692 q 496 801 368 801 q 722 747 624 801 q 874 599 819 692 q 928 392 928 506 q 874 185 928 278 q 722 39 821 93 q 496 -15 624 -15 m 496 89 q 644 129 581 89 q 740 239 707 169 q 774 393 774 308 q 740 549 774 479 q 644 658 707 618 q 496 699 581 699 q 348 658 411 699 q 252 548 285 618 q 219 392 219 478 q 253 237 219 306 q 349 128 286 168 q 496 89 411 89 m 339 969 l 650 969 l 650 894 l 339 894 l 339 969 z "},"Ṓ":{"ha":992,"x_min":64,"x_max":928,"o":"m 496 -15 q 269 39 368 -15 q 117 185 171 93 q 64 392 64 278 q 117 599 64 506 q 269 747 171 692 q 496 801 368 801 q 722 747 624 801 q 874 599 819 692 q 928 392 928 506 q 874 185 928 278 q 722 39 821 93 q 496 -15 624 -15 m 496 89 q 644 129 581 89 q 740 239 707 169 q 774 393 774 308 q 740 549 774 479 q 644 658 707 618 q 496 699 581 699 q 348 658 411 699 q 252 548 285 618 q 219 392 219 478 q 253 237 219 306 q 349 128 286 168 q 496 89 411 89 m 339 969 l 650 969 l 650 894 l 339 894 l 339 969 m 525 1278 l 663 1278 l 535 1065 l 456 1065 l 525 1278 z "},"Ṑ":{"ha":992,"x_min":64,"x_max":928,"o":"m 496 -15 q 269 39 368 -15 q 117 185 171 93 q 64 392 64 278 q 117 599 64 506 q 269 747 171 692 q 496 801 368 801 q 722 747 624 801 q 874 599 819 692 q 928 392 928 506 q 874 185 928 278 q 722 39 821 93 q 496 -15 624 -15 m 496 89 q 644 129 581 89 q 740 239 707 169 q 774 393 774 308 q 740 549 774 479 q 644 658 707 618 q 496 699 581 699 q 348 658 411 699 q 252 548 285 618 q 219 392 219 478 q 253 237 219 306 q 349 128 286 168 q 496 89 411 89 m 339 969 l 650 969 l 650 894 l 339 894 l 339 969 m 326 1278 l 463 1278 l 533 1065 l 453 1065 l 326 1278 z "},"Ǫ":{"ha":992,"x_min":64,"x_max":928,"o":"m 928 392 q 880 196 928 285 q 743 51 832 107 q 538 -14 654 -6 q 489 -111 489 -71 q 507 -156 489 -140 q 556 -171 525 -171 q 615 -154 586 -171 l 615 -218 q 524 -244 567 -244 q 441 -215 474 -244 q 408 -137 408 -185 q 472 -15 408 -79 q 258 45 350 -10 q 115 191 165 100 q 64 392 64 282 q 117 599 64 506 q 269 747 171 692 q 496 801 368 801 q 722 747 624 801 q 874 599 819 692 q 928 392 928 506 m 219 392 q 253 237 219 306 q 349 128 286 168 q 496 89 411 89 q 644 129 581 89 q 740 239 707 169 q 774 393 774 308 q 740 549 774 479 q 644 658 707 618 q 496 699 581 699 q 348 658 411 699 q 252 548 285 618 q 219 392 219 478 z "},"Ø":{"ha":929,"x_min":33,"x_max":897,"o":"m 760 697 q 861 561 825 640 q 897 390 897 482 q 844 184 897 276 q 692 38 790 92 q 465 -17 593 -17 q 244 35 340 -17 l 174 -57 l 111 -12 l 181 76 q 72 214 110 132 q 33 390 33 296 q 87 597 33 504 q 239 745 140 690 q 465 800 338 800 q 697 742 596 800 l 768 833 l 831 789 l 760 697 m 189 390 q 207 273 189 328 q 258 178 225 218 l 625 649 q 465 697 557 697 q 317 657 381 697 q 222 547 254 617 q 189 390 189 476 m 465 88 q 613 128 550 88 q 710 238 676 168 q 743 392 743 307 q 681 596 743 511 l 317 128 q 465 88 378 88 z "},"Ǿ":{"ha":929,"x_min":33,"x_max":897,"o":"m 760 697 q 861 561 825 640 q 897 390 897 482 q 844 184 897 276 q 692 38 790 92 q 465 -17 593 -17 q 244 35 340 -17 l 174 -57 l 111 -12 l 181 76 q 72 214 110 132 q 33 390 33 296 q 87 597 33 504 q 239 745 140 690 q 465 800 338 800 q 697 742 596 800 l 768 833 l 831 789 l 760 697 m 189 390 q 207 273 189 328 q 258 178 225 218 l 625 649 q 465 697 557 697 q 317 657 381 697 q 222 547 254 617 q 189 390 189 476 m 465 88 q 613 128 550 88 q 710 238 676 168 q 743 392 743 307 q 681 596 743 511 l 317 128 q 465 88 378 88 m 494 1108 l 632 1108 l 504 896 l 425 896 l 494 1108 z "},"Õ":{"ha":992,"x_min":64,"x_max":928,"o":"m 496 -15 q 269 39 368 -15 q 117 185 171 93 q 64 392 64 278 q 117 599 64 506 q 269 747 171 692 q 496 801 368 801 q 722 747 624 801 q 874 599 819 692 q 928 392 928 506 q 874 185 928 278 q 722 39 821 93 q 496 -15 624 -15 m 496 89 q 644 129 581 89 q 740 239 707 169 q 774 393 774 308 q 740 549 774 479 q 644 658 707 618 q 496 699 581 699 q 348 658 411 699 q 252 548 285 618 q 219 392 219 478 q 253 237 219 306 q 349 128 286 168 q 496 89 411 89 m 585 892 q 538 899 561 892 q 475 922 514 907 q 394 947 419 947 q 349 899 354 947 l 290 899 q 327 1007 296 972 q 408 1042 358 1042 q 449 1035 428 1042 q 488 1021 469 1028 q 513 1011 507 1014 q 546 997 518 1008 q 590 986 574 986 q 626 998 613 986 q 644 1038 639 1010 l 700 1038 q 665 931 694 969 q 585 892 636 892 z "},"Ṍ":{"ha":992,"x_min":64,"x_max":928,"o":"m 496 -15 q 269 39 368 -15 q 117 185 171 93 q 64 392 64 278 q 117 599 64 506 q 269 747 171 692 q 496 801 368 801 q 722 747 624 801 q 874 599 819 692 q 928 392 928 506 q 874 185 928 278 q 722 39 821 93 q 496 -15 624 -15 m 496 89 q 644 129 581 89 q 740 239 707 169 q 774 393 774 308 q 740 549 774 479 q 644 658 707 618 q 496 699 581 699 q 348 658 411 699 q 252 548 285 618 q 219 392 219 478 q 253 237 219 306 q 349 128 286 168 q 496 89 411 89 m 585 892 q 538 899 561 892 q 475 922 514 907 q 394 947 419 947 q 349 899 354 947 l 290 899 q 327 1007 296 972 q 408 1042 358 1042 q 449 1035 428 1042 q 488 1021 469 1028 q 513 1011 507 1014 q 546 997 518 1008 q 590 986 574 986 q 626 998 613 986 q 644 1038 639 1010 l 700 1038 q 665 931 694 969 q 585 892 636 892 m 526 1332 l 664 1332 l 536 1119 l 457 1119 l 526 1332 z "},"Ṏ":{"ha":992,"x_min":64,"x_max":928,"o":"m 496 -15 q 269 39 368 -15 q 117 185 171 93 q 64 392 64 278 q 117 599 64 506 q 269 747 171 692 q 496 801 368 801 q 722 747 624 801 q 874 599 819 692 q 928 392 928 506 q 874 185 928 278 q 722 39 821 93 q 496 -15 624 -15 m 496 89 q 644 129 581 89 q 740 239 707 169 q 774 393 774 308 q 740 549 774 479 q 644 658 707 618 q 496 699 581 699 q 348 658 411 699 q 252 548 285 618 q 219 392 219 478 q 253 237 219 306 q 349 128 286 168 q 496 89 411 89 m 585 892 q 538 899 561 892 q 475 922 514 907 q 394 947 419 947 q 349 899 354 947 l 290 899 q 327 1007 296 972 q 408 1042 358 1042 q 449 1035 428 1042 q 488 1021 469 1028 q 513 1011 507 1014 q 546 997 518 1008 q 590 986 574 986 q 626 998 613 986 q 644 1038 639 1010 l 700 1038 q 665 931 694 969 q 585 892 636 892 m 353 1106 q 298 1124 319 1106 q 276 1176 276 1143 q 297 1229 276 1210 q 353 1249 318 1249 q 407 1229 386 1249 q 428 1176 428 1210 q 407 1124 428 1143 q 353 1106 386 1106 m 639 1106 q 585 1124 606 1106 q 565 1176 565 1143 q 585 1229 565 1210 q 639 1249 606 1249 q 694 1229 674 1249 q 715 1176 715 1210 q 694 1124 715 1143 q 639 1106 672 1106 z "},"Ȭ":{"ha":992,"x_min":64,"x_max":928,"o":"m 496 -15 q 269 39 368 -15 q 117 185 171 93 q 64 392 64 278 q 117 599 64 506 q 269 747 171 692 q 496 801 368 801 q 722 747 624 801 q 874 599 819 692 q 928 392 928 506 q 874 185 928 278 q 722 39 821 93 q 496 -15 624 -15 m 496 89 q 644 129 581 89 q 740 239 707 169 q 774 393 774 308 q 740 549 774 479 q 644 658 707 618 q 496 699 581 699 q 348 658 411 699 q 252 548 285 618 q 219 392 219 478 q 253 237 219 306 q 349 128 286 168 q 496 89 411 89 m 585 892 q 538 899 561 892 q 475 922 514 907 q 394 947 419 947 q 349 899 354 947 l 290 899 q 327 1007 296 972 q 408 1042 358 1042 q 449 1035 428 1042 q 488 1021 469 1028 q 513 1011 507 1014 q 546 997 518 1008 q 590 986 574 986 q 626 998 613 986 q 644 1038 639 1010 l 700 1038 q 665 931 694 969 q 585 892 636 892 m 340 1193 l 651 1193 l 651 1118 l 340 1118 l 340 1193 z "},"Œ":{"ha":1349,"x_min":64,"x_max":1281,"o":"m 511 0 q 274 48 375 0 q 118 185 172 96 q 64 394 64 274 q 118 603 64 514 q 273 740 172 692 q 510 788 374 788 l 1274 788 l 1274 542 l 1171 542 l 1171 696 l 821 696 l 821 446 l 1033 446 l 1033 533 l 1107 533 l 1107 267 l 1033 267 l 1033 356 l 821 356 l 821 92 l 1176 92 l 1176 256 l 1281 256 l 1281 0 l 511 0 m 675 92 l 675 696 l 525 696 q 301 615 383 694 q 218 394 218 535 q 301 174 218 256 q 526 92 385 92 l 675 92 z "},"P":{"ha":807,"x_min":57,"x_max":764,"o":"m 57 92 l 158 92 l 158 696 l 57 696 l 57 788 l 457 788 q 685 731 607 788 q 764 560 764 674 q 685 381 764 442 q 457 321 607 321 l 357 321 l 357 413 l 446 413 q 569 450 526 413 q 613 558 613 488 q 574 660 613 625 q 464 696 536 696 l 304 696 l 304 92 l 408 92 l 408 0 l 57 0 l 57 92 z "},"Ṗ":{"ha":807,"x_min":57,"x_max":764,"o":"m 57 92 l 158 92 l 158 696 l 57 696 l 57 788 l 457 788 q 685 731 607 788 q 764 560 764 674 q 685 381 764 442 q 457 321 607 321 l 357 321 l 357 413 l 446 413 q 569 450 526 413 q 613 558 613 488 q 574 660 613 625 q 464 696 536 696 l 304 696 l 304 92 l 408 92 l 408 0 l 57 0 l 57 92 m 417 885 q 360 906 382 885 q 338 960 338 928 q 360 1015 338 993 q 417 1036 382 1036 q 474 1015 453 1036 q 496 957 496 993 q 474 906 496 926 q 417 885 451 885 z "},"Þ":{"ha":797,"x_min":69,"x_max":753,"o":"m 478 613 q 683 563 613 613 q 753 419 753 514 q 481 221 753 221 l 361 221 l 361 293 l 468 293 q 573 325 536 293 q 610 419 610 357 q 572 504 610 474 q 467 535 533 535 l 317 535 l 317 92 l 421 92 l 421 0 l 69 0 l 69 92 l 169 92 l 169 696 l 69 696 l 69 788 l 421 788 l 421 696 l 317 696 l 317 613 l 478 613 z "},"Q":{"ha":989,"x_min":64,"x_max":928,"o":"m 740 -203 q 440 -11 550 -203 q 241 55 326 -1 q 110 199 156 111 q 64 392 64 288 q 117 599 64 506 q 269 747 171 692 q 496 801 368 801 q 722 747 624 801 q 874 599 819 692 q 928 392 928 506 q 884 203 928 289 q 759 60 840 117 q 568 -10 678 4 q 743 -108 636 -108 q 835 -94 789 -108 l 836 -187 q 740 -203 788 -203 m 496 89 q 644 129 581 89 q 740 239 707 169 q 774 393 774 308 q 740 549 774 479 q 644 658 707 618 q 496 699 581 699 q 348 658 411 699 q 252 548 285 618 q 219 392 219 478 q 253 237 219 306 q 349 128 286 168 q 496 89 411 89 z "},"R":{"ha":892,"x_min":57,"x_max":853,"o":"m 57 92 l 158 92 l 158 696 l 57 696 l 57 788 l 488 788 q 697 734 621 788 q 772 574 772 681 q 581 365 772 401 l 747 93 l 853 93 l 853 0 l 643 0 l 440 350 l 354 350 l 354 444 l 471 444 q 590 481 554 444 q 625 575 625 518 q 590 662 625 628 q 486 696 554 696 l 304 696 l 304 92 l 404 92 l 404 0 l 57 0 l 57 92 z "},"Ŕ":{"ha":892,"x_min":57,"x_max":853,"o":"m 57 92 l 158 92 l 158 696 l 57 696 l 57 788 l 488 788 q 697 734 621 788 q 772 574 772 681 q 581 365 772 401 l 747 93 l 853 93 l 853 0 l 643 0 l 440 350 l 354 350 l 354 444 l 471 444 q 590 481 554 444 q 625 575 625 518 q 590 662 625 628 q 486 696 554 696 l 304 696 l 304 92 l 404 92 l 404 0 l 57 0 l 57 92 m 458 1108 l 596 1108 l 468 896 l 389 896 l 458 1108 z "},"Ř":{"ha":892,"x_min":57,"x_max":853,"o":"m 57 92 l 158 92 l 158 696 l 57 696 l 57 788 l 488 788 q 697 734 621 788 q 772 574 772 681 q 581 365 772 401 l 747 93 l 853 93 l 853 0 l 643 0 l 440 350 l 354 350 l 354 444 l 471 444 q 590 481 554 444 q 625 575 625 518 q 590 662 625 628 q 486 696 554 696 l 304 696 l 304 92 l 404 92 l 404 0 l 57 0 l 57 92 m 253 1085 l 343 1085 l 431 932 l 515 1085 l 601 1085 l 496 865 l 364 865 l 253 1085 z "},"Ŗ":{"ha":892,"x_min":57,"x_max":853,"o":"m 57 92 l 158 92 l 158 696 l 57 696 l 57 788 l 488 788 q 697 734 621 788 q 772 574 772 681 q 581 365 772 401 l 747 93 l 853 93 l 853 0 l 643 0 l 440 350 l 354 350 l 354 444 l 471 444 q 590 481 554 444 q 625 575 625 518 q 590 662 625 628 q 486 696 554 696 l 304 696 l 304 92 l 404 92 l 404 0 l 57 0 l 57 92 m 392 -301 q 452 -272 433 -296 q 471 -204 471 -249 l 392 -204 l 392 -72 l 540 -72 l 540 -199 q 392 -353 540 -353 l 392 -301 z "},"Ȑ":{"ha":892,"x_min":57,"x_max":853,"o":"m 57 92 l 158 92 l 158 696 l 57 696 l 57 788 l 488 788 q 697 734 621 788 q 772 574 772 681 q 581 365 772 401 l 747 93 l 853 93 l 853 0 l 643 0 l 440 350 l 354 350 l 354 444 l 471 444 q 590 481 554 444 q 625 575 625 518 q 590 662 625 628 q 486 696 554 696 l 304 696 l 304 92 l 404 92 l 404 0 l 57 0 l 57 92 m 138 1117 l 275 1117 l 349 896 l 269 896 l 138 1117 m 349 1117 l 485 1117 l 558 896 l 479 896 l 349 1117 z "},"Ṛ":{"ha":892,"x_min":57,"x_max":853,"o":"m 57 92 l 158 92 l 158 696 l 57 696 l 57 788 l 488 788 q 697 734 621 788 q 772 574 772 681 q 581 365 772 401 l 747 93 l 853 93 l 853 0 l 643 0 l 440 350 l 354 350 l 354 444 l 471 444 q 590 481 554 444 q 625 575 625 518 q 590 662 625 628 q 486 696 554 696 l 304 696 l 304 92 l 404 92 l 404 0 l 57 0 l 57 92 m 464 -215 q 409 -194 431 -215 q 388 -143 388 -174 q 409 -92 388 -112 q 464 -72 431 -72 q 519 -92 499 -72 q 540 -146 540 -111 q 519 -195 540 -175 q 464 -215 497 -215 z "},"Ȓ":{"ha":892,"x_min":57,"x_max":853,"o":"m 57 92 l 158 92 l 158 696 l 57 696 l 57 788 l 488 788 q 697 734 621 788 q 772 574 772 681 q 581 365 772 401 l 747 93 l 853 93 l 853 0 l 643 0 l 440 350 l 354 350 l 354 444 l 471 444 q 590 481 554 444 q 625 575 625 518 q 590 662 625 628 q 486 696 554 696 l 304 696 l 304 92 l 404 92 l 404 0 l 57 0 l 57 92 m 251 863 q 304 985 257 940 q 428 1029 351 1029 q 550 985 503 1029 q 603 863 597 940 l 510 863 q 428 938 497 938 q 372 918 393 938 q 344 863 351 899 l 251 863 z "},"Ṟ":{"ha":892,"x_min":57,"x_max":853,"o":"m 57 92 l 158 92 l 158 696 l 57 696 l 57 788 l 488 788 q 697 734 621 788 q 772 574 772 681 q 581 365 772 401 l 747 93 l 853 93 l 853 0 l 643 0 l 440 350 l 354 350 l 354 444 l 471 444 q 590 481 554 444 q 625 575 625 518 q 590 662 625 628 q 486 696 554 696 l 304 696 l 304 92 l 404 92 l 404 0 l 57 0 l 57 92 m 308 -65 l 619 -65 l 619 -140 l 308 -140 l 308 -65 z "},"S":{"ha":751,"x_min":88,"x_max":693,"o":"m 424 464 q 629 385 565 439 q 693 222 693 332 q 663 102 693 156 q 574 17 632 49 q 436 -14 515 -14 q 300 14 363 -14 q 201 92 238 42 l 201 0 l 93 0 l 93 267 l 192 267 q 267 132 206 183 q 422 81 328 81 q 524 111 488 81 q 560 199 560 142 q 543 269 560 243 q 490 310 526 294 q 388 336 454 325 l 339 346 q 88 582 88 390 q 156 744 88 685 q 340 803 225 803 q 462 781 407 803 q 551 717 517 758 l 551 788 l 656 788 l 656 563 l 560 563 q 360 708 522 708 q 260 678 296 708 q 225 599 225 649 q 265 516 225 546 q 388 471 304 486 l 424 464 z "},"Ś":{"ha":751,"x_min":88,"x_max":693,"o":"m 424 464 q 629 385 565 439 q 693 222 693 332 q 663 102 693 156 q 574 17 632 49 q 436 -14 515 -14 q 300 14 363 -14 q 201 92 238 42 l 201 0 l 93 0 l 93 267 l 192 267 q 267 132 206 183 q 422 81 328 81 q 524 111 488 81 q 560 199 560 142 q 543 269 560 243 q 490 310 526 294 q 388 336 454 325 l 339 346 q 88 582 88 390 q 156 744 88 685 q 340 803 225 803 q 462 781 407 803 q 551 717 517 758 l 551 788 l 656 788 l 656 563 l 560 563 q 360 708 522 708 q 260 678 296 708 q 225 599 225 649 q 265 516 225 546 q 388 471 304 486 l 424 464 m 426 1108 l 564 1108 l 436 896 l 357 896 l 426 1108 z "},"Ṥ":{"ha":751,"x_min":88,"x_max":693,"o":"m 424 464 q 629 385 565 439 q 693 222 693 332 q 663 102 693 156 q 574 17 632 49 q 436 -14 515 -14 q 300 14 363 -14 q 201 92 238 42 l 201 0 l 93 0 l 93 267 l 192 267 q 267 132 206 183 q 422 81 328 81 q 524 111 488 81 q 560 199 560 142 q 543 269 560 243 q 490 310 526 294 q 388 336 454 325 l 339 346 q 88 582 88 390 q 156 744 88 685 q 340 803 225 803 q 462 781 407 803 q 551 717 517 758 l 551 788 l 656 788 l 656 563 l 560 563 q 360 708 522 708 q 260 678 296 708 q 225 599 225 649 q 265 516 225 546 q 388 471 304 486 l 424 464 m 426 1108 l 564 1108 l 436 896 l 357 896 l 426 1108 m 396 1217 q 339 1238 361 1217 q 317 1292 317 1260 q 339 1347 317 1325 q 396 1368 361 1368 q 453 1347 432 1368 q 475 1289 475 1325 q 453 1238 475 1258 q 396 1217 431 1217 z "},"Š":{"ha":751,"x_min":88,"x_max":693,"o":"m 424 464 q 629 385 565 439 q 693 222 693 332 q 663 102 693 156 q 574 17 632 49 q 436 -14 515 -14 q 300 14 363 -14 q 201 92 238 42 l 201 0 l 93 0 l 93 267 l 192 267 q 267 132 206 183 q 422 81 328 81 q 524 111 488 81 q 560 199 560 142 q 543 269 560 243 q 490 310 526 294 q 388 336 454 325 l 339 346 q 88 582 88 390 q 156 744 88 685 q 340 803 225 803 q 462 781 407 803 q 551 717 517 758 l 551 788 l 656 788 l 656 563 l 560 563 q 360 708 522 708 q 260 678 296 708 q 225 599 225 649 q 265 516 225 546 q 388 471 304 486 l 424 464 m 221 1085 l 311 1085 l 399 932 l 483 1085 l 569 1085 l 464 865 l 332 865 l 221 1085 z "},"Ṧ":{"ha":751,"x_min":88,"x_max":693,"o":"m 424 464 q 629 385 565 439 q 693 222 693 332 q 663 102 693 156 q 574 17 632 49 q 436 -14 515 -14 q 300 14 363 -14 q 201 92 238 42 l 201 0 l 93 0 l 93 267 l 192 267 q 267 132 206 183 q 422 81 328 81 q 524 111 488 81 q 560 199 560 142 q 543 269 560 243 q 490 310 526 294 q 388 336 454 325 l 339 346 q 88 582 88 390 q 156 744 88 685 q 340 803 225 803 q 462 781 407 803 q 551 717 517 758 l 551 788 l 656 788 l 656 563 l 560 563 q 360 708 522 708 q 260 678 296 708 q 225 599 225 649 q 265 516 225 546 q 388 471 304 486 l 424 464 m 221 1085 l 311 1085 l 399 932 l 483 1085 l 569 1085 l 464 865 l 332 865 l 221 1085 m 396 1179 q 339 1201 361 1179 q 317 1254 317 1222 q 339 1309 317 1288 q 396 1331 361 1331 q 453 1309 432 1331 q 475 1251 475 1288 q 453 1200 475 1221 q 396 1179 431 1179 z "},"Ş":{"ha":751,"x_min":88,"x_max":693,"o":"m 693 222 q 626 54 693 121 q 442 -14 558 -12 l 424 -81 q 499 -110 474 -86 q 525 -168 525 -135 q 494 -233 525 -211 q 418 -254 464 -254 q 296 -225 358 -254 l 296 -181 q 375 -196 342 -196 q 428 -158 428 -196 q 347 -114 428 -118 l 388 -11 q 281 24 329 -3 q 201 92 232 50 l 201 0 l 93 0 l 93 267 l 192 267 q 267 132 206 183 q 422 81 328 81 q 524 111 488 81 q 560 199 560 142 q 543 269 560 243 q 490 310 526 294 q 388 336 454 325 l 339 346 q 88 582 88 390 q 156 744 88 685 q 340 803 225 803 q 462 781 407 803 q 551 717 517 758 l 551 788 l 656 788 l 656 563 l 560 563 q 360 708 522 708 q 260 678 296 708 q 225 599 225 649 q 265 516 225 546 q 388 471 304 486 l 424 464 q 629 385 565 439 q 693 222 693 332 z "},"Ŝ":{"ha":751,"x_min":88,"x_max":693,"o":"m 424 464 q 629 385 565 439 q 693 222 693 332 q 663 102 693 156 q 574 17 632 49 q 436 -14 515 -14 q 300 14 363 -14 q 201 92 238 42 l 201 0 l 93 0 l 93 267 l 192 267 q 267 132 206 183 q 422 81 328 81 q 524 111 488 81 q 560 199 560 142 q 543 269 560 243 q 490 310 526 294 q 388 336 454 325 l 339 346 q 88 582 88 390 q 156 744 88 685 q 340 803 225 803 q 462 781 407 803 q 551 717 517 758 l 551 788 l 656 788 l 656 563 l 560 563 q 360 708 522 708 q 260 678 296 708 q 225 599 225 649 q 265 516 225 546 q 388 471 304 486 l 424 464 m 328 1092 l 464 1092 l 581 867 l 489 867 l 396 1036 l 303 867 l 211 867 l 328 1092 z "},"Ș":{"ha":751,"x_min":88,"x_max":693,"o":"m 424 464 q 629 385 565 439 q 693 222 693 332 q 663 102 693 156 q 574 17 632 49 q 436 -14 515 -14 q 300 14 363 -14 q 201 92 238 42 l 201 0 l 93 0 l 93 267 l 192 267 q 267 132 206 183 q 422 81 328 81 q 524 111 488 81 q 560 199 560 142 q 543 269 560 243 q 490 310 526 294 q 388 336 454 325 l 339 346 q 88 582 88 390 q 156 744 88 685 q 340 803 225 803 q 462 781 407 803 q 551 717 517 758 l 551 788 l 656 788 l 656 563 l 560 563 q 360 708 522 708 q 260 678 296 708 q 225 599 225 649 q 265 516 225 546 q 388 471 304 486 l 424 464 m 346 -301 q 406 -272 388 -296 q 425 -204 425 -249 l 346 -204 l 346 -72 l 494 -72 l 494 -199 q 346 -353 494 -353 l 346 -301 z "},"Ṡ":{"ha":751,"x_min":88,"x_max":693,"o":"m 424 464 q 629 385 565 439 q 693 222 693 332 q 663 102 693 156 q 574 17 632 49 q 436 -14 515 -14 q 300 14 363 -14 q 201 92 238 42 l 201 0 l 93 0 l 93 267 l 192 267 q 267 132 206 183 q 422 81 328 81 q 524 111 488 81 q 560 199 560 142 q 543 269 560 243 q 490 310 526 294 q 388 336 454 325 l 339 346 q 88 582 88 390 q 156 744 88 685 q 340 803 225 803 q 462 781 407 803 q 551 717 517 758 l 551 788 l 656 788 l 656 563 l 560 563 q 360 708 522 708 q 260 678 296 708 q 225 599 225 649 q 265 516 225 546 q 388 471 304 486 l 424 464 m 396 885 q 339 906 361 885 q 317 960 317 928 q 339 1015 317 993 q 396 1036 361 1036 q 453 1015 432 1036 q 475 957 475 993 q 453 906 475 926 q 396 885 431 885 z "},"Ṣ":{"ha":751,"x_min":88,"x_max":693,"o":"m 424 464 q 629 385 565 439 q 693 222 693 332 q 663 102 693 156 q 574 17 632 49 q 436 -14 515 -14 q 300 14 363 -14 q 201 92 238 42 l 201 0 l 93 0 l 93 267 l 192 267 q 267 132 206 183 q 422 81 328 81 q 524 111 488 81 q 560 199 560 142 q 543 269 560 243 q 490 310 526 294 q 388 336 454 325 l 339 346 q 88 582 88 390 q 156 744 88 685 q 340 803 225 803 q 462 781 407 803 q 551 717 517 758 l 551 788 l 656 788 l 656 563 l 560 563 q 360 708 522 708 q 260 678 296 708 q 225 599 225 649 q 265 516 225 546 q 388 471 304 486 l 424 464 m 418 -215 q 363 -194 385 -215 q 342 -143 342 -174 q 363 -92 342 -112 q 418 -72 385 -72 q 474 -92 453 -72 q 494 -146 494 -111 q 473 -195 494 -175 q 418 -215 451 -215 z "},"Ṩ":{"ha":751,"x_min":88,"x_max":693,"o":"m 424 464 q 629 385 565 439 q 693 222 693 332 q 663 102 693 156 q 574 17 632 49 q 436 -14 515 -14 q 300 14 363 -14 q 201 92 238 42 l 201 0 l 93 0 l 93 267 l 192 267 q 267 132 206 183 q 422 81 328 81 q 524 111 488 81 q 560 199 560 142 q 543 269 560 243 q 490 310 526 294 q 388 336 454 325 l 339 346 q 88 582 88 390 q 156 744 88 685 q 340 803 225 803 q 462 781 407 803 q 551 717 517 758 l 551 788 l 656 788 l 656 563 l 560 563 q 360 708 522 708 q 260 678 296 708 q 225 599 225 649 q 265 516 225 546 q 388 471 304 486 l 424 464 m 418 -215 q 363 -194 385 -215 q 342 -143 342 -174 q 363 -92 342 -112 q 418 -72 385 -72 q 474 -92 453 -72 q 494 -146 494 -111 q 473 -195 494 -175 q 418 -215 451 -215 m 396 885 q 339 906 361 885 q 317 960 317 928 q 339 1015 317 993 q 396 1036 361 1036 q 453 1015 432 1036 q 475 957 475 993 q 453 906 475 926 q 396 885 431 885 z "},"ẞ":{"ha":851,"x_min":54,"x_max":799,"o":"m 474 90 q 650 228 650 94 q 440 371 650 371 l 440 449 l 607 674 q 456 699 542 699 q 317 655 365 699 q 268 522 268 611 l 268 92 l 346 92 l 346 0 l 54 0 l 54 92 l 124 92 l 124 517 q 207 727 124 653 q 450 801 290 801 q 714 740 594 801 l 714 646 l 565 446 q 738 376 678 432 q 799 222 799 319 q 715 45 799 104 q 474 -14 632 -14 l 474 90 z "},"Ə":{"ha":939,"x_min":58,"x_max":874,"o":"m 456 801 q 672 751 576 801 q 820 608 767 700 q 874 394 874 515 q 819 179 874 272 q 670 35 765 86 q 457 -15 575 -15 q 243 34 333 -15 q 106 174 153 83 q 58 385 58 265 l 58 426 l 717 426 q 631 617 706 549 q 440 686 556 686 q 125 561 271 686 l 71 651 q 242 759 146 717 q 456 801 339 801 m 461 92 q 635 157 567 92 q 717 336 704 222 l 213 336 q 281 157 213 222 q 461 92 350 92 z "},"T":{"ha":808,"x_min":35,"x_max":772,"o":"m 229 92 l 332 92 l 332 696 l 138 696 l 138 508 l 35 508 l 35 788 l 772 788 l 772 508 l 669 508 l 669 696 l 478 696 l 478 92 l 581 92 l 581 0 l 229 0 l 229 92 z "},"Ŧ":{"ha":808,"x_min":35,"x_max":772,"o":"m 772 788 l 772 508 l 669 508 l 669 696 l 478 696 l 478 431 l 564 431 l 564 356 l 478 356 l 478 92 l 581 92 l 581 0 l 229 0 l 229 92 l 332 92 l 332 356 l 242 356 l 242 431 l 332 431 l 332 696 l 138 696 l 138 508 l 35 508 l 35 788 l 772 788 z "},"Ť":{"ha":808,"x_min":35,"x_max":772,"o":"m 229 92 l 332 92 l 332 696 l 138 696 l 138 508 l 35 508 l 35 788 l 772 788 l 772 508 l 669 508 l 669 696 l 478 696 l 478 92 l 581 92 l 581 0 l 229 0 l 229 92 m 228 1085 l 318 1085 l 406 932 l 490 1085 l 576 1085 l 471 865 l 339 865 l 228 1085 z "},"Ţ":{"ha":808,"x_min":35,"x_max":772,"o":"m 229 92 l 332 92 l 332 696 l 138 696 l 138 508 l 35 508 l 35 788 l 772 788 l 772 508 l 669 508 l 669 696 l 478 696 l 478 92 l 581 92 l 581 0 l 229 0 l 229 92 m 406 -254 q 283 -225 346 -254 l 283 -181 q 363 -196 329 -196 q 415 -158 415 -196 q 335 -114 415 -118 l 379 0 l 433 0 l 411 -81 q 487 -110 461 -86 q 513 -168 513 -135 q 482 -233 513 -211 q 406 -254 451 -254 z "},"Ț":{"ha":808,"x_min":35,"x_max":772,"o":"m 229 92 l 332 92 l 332 696 l 138 696 l 138 508 l 35 508 l 35 788 l 772 788 l 772 508 l 669 508 l 669 696 l 478 696 l 478 92 l 581 92 l 581 0 l 229 0 l 229 92 m 333 -301 q 394 -272 375 -296 q 413 -204 413 -249 l 333 -204 l 333 -72 l 482 -72 l 482 -199 q 333 -353 482 -353 l 333 -301 z "},"Ṫ":{"ha":808,"x_min":35,"x_max":772,"o":"m 229 92 l 332 92 l 332 696 l 138 696 l 138 508 l 35 508 l 35 788 l 772 788 l 772 508 l 669 508 l 669 696 l 478 696 l 478 92 l 581 92 l 581 0 l 229 0 l 229 92 m 403 885 q 346 906 368 885 q 324 960 324 928 q 346 1015 324 993 q 403 1036 368 1036 q 460 1015 439 1036 q 482 957 482 993 q 460 906 482 926 q 403 885 438 885 z "},"Ṭ":{"ha":808,"x_min":35,"x_max":772,"o":"m 229 92 l 332 92 l 332 696 l 138 696 l 138 508 l 35 508 l 35 788 l 772 788 l 772 508 l 669 508 l 669 696 l 478 696 l 478 92 l 581 92 l 581 0 l 229 0 l 229 92 m 406 -215 q 351 -194 372 -215 q 329 -143 329 -174 q 351 -92 329 -112 q 406 -72 372 -72 q 461 -92 440 -72 q 482 -146 482 -111 q 460 -195 482 -175 q 406 -215 439 -215 z "},"Ṯ":{"ha":808,"x_min":35,"x_max":772,"o":"m 229 92 l 332 92 l 332 696 l 138 696 l 138 508 l 35 508 l 35 788 l 772 788 l 772 508 l 669 508 l 669 696 l 478 696 l 478 92 l 581 92 l 581 0 l 229 0 l 229 92 m 250 -65 l 561 -65 l 561 -140 l 250 -140 l 250 -65 z "},"U":{"ha":939,"x_min":39,"x_max":908,"o":"m 474 -14 q 220 67 304 -14 q 136 286 136 147 l 136 696 l 39 696 l 39 788 l 382 788 l 382 696 l 282 696 l 282 275 q 334 136 282 186 q 481 86 386 86 q 636 136 581 86 q 692 275 692 186 l 692 696 l 599 696 l 599 788 l 908 788 l 908 696 l 810 696 l 810 279 q 719 61 810 136 q 474 -14 629 -14 z "},"Ú":{"ha":939,"x_min":39,"x_max":908,"o":"m 474 -14 q 220 67 304 -14 q 136 286 136 147 l 136 696 l 39 696 l 39 788 l 382 788 l 382 696 l 282 696 l 282 275 q 334 136 282 186 q 481 86 386 86 q 636 136 581 86 q 692 275 692 186 l 692 696 l 599 696 l 599 788 l 908 788 l 908 696 l 810 696 l 810 279 q 719 61 810 136 q 474 -14 629 -14 m 515 1108 l 653 1108 l 525 896 l 446 896 l 515 1108 z "},"Ŭ":{"ha":939,"x_min":39,"x_max":908,"o":"m 474 -14 q 220 67 304 -14 q 136 286 136 147 l 136 696 l 39 696 l 39 788 l 382 788 l 382 696 l 282 696 l 282 275 q 334 136 282 186 q 481 86 386 86 q 636 136 581 86 q 692 275 692 186 l 692 696 l 599 696 l 599 788 l 908 788 l 908 696 l 810 696 l 810 279 q 719 61 810 136 q 474 -14 629 -14 m 482 871 q 365 912 410 871 q 313 1026 319 953 l 399 1026 q 485 947 414 947 q 542 967 519 947 q 569 1026 564 988 l 657 1026 q 603 911 649 951 q 482 871 557 871 z "},"Ǔ":{"ha":939,"x_min":39,"x_max":908,"o":"m 474 -14 q 220 67 304 -14 q 136 286 136 147 l 136 696 l 39 696 l 39 788 l 382 788 l 382 696 l 282 696 l 282 275 q 334 136 282 186 q 481 86 386 86 q 636 136 581 86 q 692 275 692 186 l 692 696 l 599 696 l 599 788 l 908 788 l 908 696 l 810 696 l 810 279 q 719 61 810 136 q 474 -14 629 -14 m 310 1085 l 400 1085 l 488 932 l 572 1085 l 658 1085 l 553 865 l 421 865 l 310 1085 z "},"Û":{"ha":939,"x_min":39,"x_max":908,"o":"m 474 -14 q 220 67 304 -14 q 136 286 136 147 l 136 696 l 39 696 l 39 788 l 382 788 l 382 696 l 282 696 l 282 275 q 334 136 282 186 q 481 86 386 86 q 636 136 581 86 q 692 275 692 186 l 692 696 l 599 696 l 599 788 l 908 788 l 908 696 l 810 696 l 810 279 q 719 61 810 136 q 474 -14 629 -14 m 417 1092 l 553 1092 l 669 867 l 578 867 l 485 1036 l 392 867 l 300 867 l 417 1092 z "},"Ȕ":{"ha":939,"x_min":39,"x_max":908,"o":"m 474 -14 q 220 67 304 -14 q 136 286 136 147 l 136 696 l 39 696 l 39 788 l 382 788 l 382 696 l 282 696 l 282 275 q 334 136 282 186 q 481 86 386 86 q 636 136 581 86 q 692 275 692 186 l 692 696 l 599 696 l 599 788 l 908 788 l 908 696 l 810 696 l 810 279 q 719 61 810 136 q 474 -14 629 -14 m 194 1117 l 332 1117 l 406 896 l 326 896 l 194 1117 m 406 1117 l 542 1117 l 615 896 l 536 896 l 406 1117 z "},"Ü":{"ha":939,"x_min":39,"x_max":908,"o":"m 474 -14 q 220 67 304 -14 q 136 286 136 147 l 136 696 l 39 696 l 39 788 l 382 788 l 382 696 l 282 696 l 282 275 q 334 136 282 186 q 481 86 386 86 q 636 136 581 86 q 692 275 692 186 l 692 696 l 599 696 l 599 788 l 908 788 l 908 696 l 810 696 l 810 279 q 719 61 810 136 q 474 -14 629 -14 m 342 882 q 287 901 308 882 q 265 953 265 919 q 286 1006 265 986 q 342 1025 307 1025 q 396 1006 375 1025 q 417 953 417 986 q 396 901 417 919 q 342 882 375 882 m 628 882 q 574 901 594 882 q 554 953 554 919 q 574 1006 554 986 q 628 1025 594 1025 q 683 1006 663 1025 q 704 953 704 986 q 683 901 704 919 q 628 882 661 882 z "},"Ụ":{"ha":939,"x_min":39,"x_max":908,"o":"m 474 -14 q 220 67 304 -14 q 136 286 136 147 l 136 696 l 39 696 l 39 788 l 382 788 l 382 696 l 282 696 l 282 275 q 334 136 282 186 q 481 86 386 86 q 636 136 581 86 q 692 275 692 186 l 692 696 l 599 696 l 599 788 l 908 788 l 908 696 l 810 696 l 810 279 q 719 61 810 136 q 474 -14 629 -14 m 478 -215 q 423 -194 444 -215 q 401 -143 401 -174 q 423 -92 401 -112 q 478 -72 444 -72 q 533 -92 513 -72 q 554 -146 554 -111 q 533 -195 554 -175 q 478 -215 511 -215 z "},"Ù":{"ha":939,"x_min":39,"x_max":908,"o":"m 474 -14 q 220 67 304 -14 q 136 286 136 147 l 136 696 l 39 696 l 39 788 l 382 788 l 382 696 l 282 696 l 282 275 q 334 136 282 186 q 481 86 386 86 q 636 136 581 86 q 692 275 692 186 l 692 696 l 599 696 l 599 788 l 908 788 l 908 696 l 810 696 l 810 279 q 719 61 810 136 q 474 -14 629 -14 m 317 1108 l 453 1108 l 524 896 l 443 896 l 317 1108 z "},"Ủ":{"ha":939,"x_min":39,"x_max":908,"o":"m 474 -14 q 220 67 304 -14 q 136 286 136 147 l 136 696 l 39 696 l 39 788 l 382 788 l 382 696 l 282 696 l 282 275 q 334 136 282 186 q 481 86 386 86 q 636 136 581 86 q 692 275 692 186 l 692 696 l 599 696 l 599 788 l 908 788 l 908 696 l 810 696 l 810 279 q 719 61 810 136 q 474 -14 629 -14 m 463 908 q 498 928 486 917 q 510 960 510 940 q 496 988 510 978 q 460 999 482 999 q 394 979 426 999 l 374 1040 q 474 1071 419 1071 q 559 1042 526 1071 q 592 967 592 1013 q 482 847 592 878 l 463 908 z "},"Ư":{"ha":939,"x_min":39,"x_max":940,"o":"m 940 885 q 901 778 935 821 q 810 721 867 736 l 810 279 q 719 61 810 136 q 474 -14 629 -14 q 220 67 304 -14 q 136 286 136 147 l 136 696 l 39 696 l 39 788 l 382 788 l 382 696 l 282 696 l 282 275 q 334 136 282 186 q 481 86 386 86 q 636 136 581 86 q 692 275 692 186 l 692 696 l 599 696 l 599 788 l 719 788 q 788 811 761 788 q 818 885 815 835 l 940 885 z "},"Ứ":{"ha":939,"x_min":39,"x_max":940,"o":"m 940 885 q 901 778 935 821 q 810 721 867 736 l 810 279 q 719 61 810 136 q 474 -14 629 -14 q 220 67 304 -14 q 136 286 136 147 l 136 696 l 39 696 l 39 788 l 382 788 l 382 696 l 282 696 l 282 275 q 334 136 282 186 q 481 86 386 86 q 636 136 581 86 q 692 275 692 186 l 692 696 l 599 696 l 599 788 l 719 788 q 788 811 761 788 q 818 885 815 835 l 940 885 m 515 1108 l 653 1108 l 525 896 l 446 896 l 515 1108 z "},"Ự":{"ha":939,"x_min":39,"x_max":940,"o":"m 940 885 q 901 778 935 821 q 810 721 867 736 l 810 279 q 719 61 810 136 q 474 -14 629 -14 q 220 67 304 -14 q 136 286 136 147 l 136 696 l 39 696 l 39 788 l 382 788 l 382 696 l 282 696 l 282 275 q 334 136 282 186 q 481 86 386 86 q 636 136 581 86 q 692 275 692 186 l 692 696 l 599 696 l 599 788 l 719 788 q 788 811 761 788 q 818 885 815 835 l 940 885 m 478 -215 q 423 -194 444 -215 q 401 -143 401 -174 q 423 -92 401 -112 q 478 -72 444 -72 q 533 -92 513 -72 q 554 -146 554 -111 q 533 -195 554 -175 q 478 -215 511 -215 z "},"Ừ":{"ha":939,"x_min":39,"x_max":940,"o":"m 940 885 q 901 778 935 821 q 810 721 867 736 l 810 279 q 719 61 810 136 q 474 -14 629 -14 q 220 67 304 -14 q 136 286 136 147 l 136 696 l 39 696 l 39 788 l 382 788 l 382 696 l 282 696 l 282 275 q 334 136 282 186 q 481 86 386 86 q 636 136 581 86 q 692 275 692 186 l 692 696 l 599 696 l 599 788 l 719 788 q 788 811 761 788 q 818 885 815 835 l 940 885 m 317 1108 l 453 1108 l 524 896 l 443 896 l 317 1108 z "},"Ử":{"ha":939,"x_min":39,"x_max":940,"o":"m 940 885 q 901 778 935 821 q 810 721 867 736 l 810 279 q 719 61 810 136 q 474 -14 629 -14 q 220 67 304 -14 q 136 286 136 147 l 136 696 l 39 696 l 39 788 l 382 788 l 382 696 l 282 696 l 282 275 q 334 136 282 186 q 481 86 386 86 q 636 136 581 86 q 692 275 692 186 l 692 696 l 599 696 l 599 788 l 719 788 q 788 811 761 788 q 818 885 815 835 l 940 885 m 463 908 q 498 928 486 917 q 510 960 510 940 q 496 988 510 978 q 460 999 482 999 q 394 979 426 999 l 374 1040 q 474 1071 419 1071 q 559 1042 526 1071 q 592 967 592 1013 q 482 847 592 878 l 463 908 z "},"Ữ":{"ha":939,"x_min":39,"x_max":940,"o":"m 940 885 q 901 778 935 821 q 810 721 867 736 l 810 279 q 719 61 810 136 q 474 -14 629 -14 q 220 67 304 -14 q 136 286 136 147 l 136 696 l 39 696 l 39 788 l 382 788 l 382 696 l 282 696 l 282 275 q 334 136 282 186 q 481 86 386 86 q 636 136 581 86 q 692 275 692 186 l 692 696 l 599 696 l 599 788 l 719 788 q 788 811 761 788 q 818 885 815 835 l 940 885 m 575 892 q 528 899 551 892 q 465 922 504 907 q 385 947 410 947 q 339 899 344 947 l 281 899 q 317 1007 286 972 q 399 1042 349 1042 q 439 1035 418 1042 q 478 1021 460 1028 q 503 1011 497 1014 q 536 997 508 1008 q 581 986 564 986 q 616 998 603 986 q 635 1038 629 1010 l 690 1038 q 656 931 685 969 q 575 892 626 892 z "},"Ű":{"ha":939,"x_min":39,"x_max":908,"o":"m 474 -14 q 220 67 304 -14 q 136 286 136 147 l 136 696 l 39 696 l 39 788 l 382 788 l 382 696 l 282 696 l 282 275 q 334 136 282 186 q 481 86 386 86 q 636 136 581 86 q 692 275 692 186 l 692 696 l 599 696 l 599 788 l 908 788 l 908 696 l 810 696 l 810 279 q 719 61 810 136 q 474 -14 629 -14 m 414 1117 l 550 1117 l 418 896 l 340 896 l 414 1117 m 624 1117 l 760 1117 l 629 896 l 550 896 l 624 1117 z "},"Ȗ":{"ha":939,"x_min":39,"x_max":908,"o":"m 474 -14 q 220 67 304 -14 q 136 286 136 147 l 136 696 l 39 696 l 39 788 l 382 788 l 382 696 l 282 696 l 282 275 q 334 136 282 186 q 481 86 386 86 q 636 136 581 86 q 692 275 692 186 l 692 696 l 599 696 l 599 788 l 908 788 l 908 696 l 810 696 l 810 279 q 719 61 810 136 q 474 -14 629 -14 m 308 863 q 361 985 314 940 q 485 1029 408 1029 q 607 985 560 1029 q 660 863 654 940 l 567 863 q 485 938 554 938 q 429 918 450 938 q 401 863 408 899 l 308 863 z "},"Ū":{"ha":939,"x_min":39,"x_max":908,"o":"m 474 -14 q 220 67 304 -14 q 136 286 136 147 l 136 696 l 39 696 l 39 788 l 382 788 l 382 696 l 282 696 l 282 275 q 334 136 282 186 q 481 86 386 86 q 636 136 581 86 q 692 275 692 186 l 692 696 l 599 696 l 599 788 l 908 788 l 908 696 l 810 696 l 810 279 q 719 61 810 136 q 474 -14 629 -14 m 329 969 l 640 969 l 640 894 l 329 894 l 329 969 z "},"Ṻ":{"ha":939,"x_min":39,"x_max":908,"o":"m 474 -14 q 220 67 304 -14 q 136 286 136 147 l 136 696 l 39 696 l 39 788 l 382 788 l 382 696 l 282 696 l 282 275 q 334 136 282 186 q 481 86 386 86 q 636 136 581 86 q 692 275 692 186 l 692 696 l 599 696 l 599 788 l 908 788 l 908 696 l 810 696 l 810 279 q 719 61 810 136 q 474 -14 629 -14 m 329 969 l 640 969 l 640 894 l 329 894 l 329 969 m 342 1051 q 287 1070 308 1051 q 265 1122 265 1089 q 286 1175 265 1156 q 342 1194 307 1194 q 396 1175 375 1194 q 417 1122 417 1156 q 396 1070 417 1089 q 342 1051 375 1051 m 628 1051 q 574 1070 594 1051 q 554 1122 554 1089 q 574 1175 554 1156 q 628 1194 594 1194 q 683 1175 663 1194 q 704 1122 704 1156 q 683 1070 704 1089 q 628 1051 661 1051 z "},"Ų":{"ha":939,"x_min":39,"x_max":908,"o":"m 908 788 l 908 696 l 810 696 l 810 279 q 727 67 810 142 q 500 -14 644 -7 q 451 -111 451 -71 q 469 -156 451 -140 q 518 -171 488 -171 q 578 -154 549 -171 l 578 -218 q 486 -244 529 -244 q 403 -215 436 -244 q 371 -137 371 -185 q 387 -76 371 -107 q 436 -12 403 -46 q 210 76 285 -3 q 136 286 136 156 l 136 696 l 39 696 l 39 788 l 382 788 l 382 696 l 282 696 l 282 275 q 334 136 282 186 q 481 86 386 86 q 636 136 581 86 q 692 275 692 186 l 692 696 l 599 696 l 599 788 l 908 788 z "},"Ů":{"ha":939,"x_min":39,"x_max":908,"o":"m 474 -14 q 220 67 304 -14 q 136 286 136 147 l 136 696 l 39 696 l 39 788 l 382 788 l 382 696 l 282 696 l 282 275 q 334 136 282 186 q 481 86 386 86 q 636 136 581 86 q 692 275 692 186 l 692 696 l 599 696 l 599 788 l 908 788 l 908 696 l 810 696 l 810 279 q 719 61 810 136 q 474 -14 629 -14 m 485 843 q 401 874 432 843 q 369 953 369 904 q 401 1031 369 1000 q 485 1061 432 1061 q 569 1031 538 1061 q 600 953 600 1000 q 569 874 600 904 q 485 843 538 843 m 485 892 q 529 909 513 892 q 546 953 546 926 q 529 997 546 979 q 485 1014 513 1014 q 439 997 456 1014 q 422 953 422 979 q 439 909 422 926 q 485 892 456 892 z "},"Ũ":{"ha":939,"x_min":39,"x_max":908,"o":"m 474 -14 q 220 67 304 -14 q 136 286 136 147 l 136 696 l 39 696 l 39 788 l 382 788 l 382 696 l 282 696 l 282 275 q 334 136 282 186 q 481 86 386 86 q 636 136 581 86 q 692 275 692 186 l 692 696 l 599 696 l 599 788 l 908 788 l 908 696 l 810 696 l 810 279 q 719 61 810 136 q 474 -14 629 -14 m 575 892 q 528 899 551 892 q 465 922 504 907 q 385 947 410 947 q 339 899 344 947 l 281 899 q 317 1007 286 972 q 399 1042 349 1042 q 439 1035 418 1042 q 478 1021 460 1028 q 503 1011 497 1014 q 536 997 508 1008 q 581 986 564 986 q 616 998 603 986 q 635 1038 629 1010 l 690 1038 q 656 931 685 969 q 575 892 626 892 z "},"Ṹ":{"ha":939,"x_min":39,"x_max":908,"o":"m 474 -14 q 220 67 304 -14 q 136 286 136 147 l 136 696 l 39 696 l 39 788 l 382 788 l 382 696 l 282 696 l 282 275 q 334 136 282 186 q 481 86 386 86 q 636 136 581 86 q 692 275 692 186 l 692 696 l 599 696 l 599 788 l 908 788 l 908 696 l 810 696 l 810 279 q 719 61 810 136 q 474 -14 629 -14 m 575 892 q 528 899 551 892 q 465 922 504 907 q 385 947 410 947 q 339 899 344 947 l 281 899 q 317 1007 286 972 q 399 1042 349 1042 q 439 1035 418 1042 q 478 1021 460 1028 q 503 1011 497 1014 q 536 997 508 1008 q 581 986 564 986 q 616 998 603 986 q 635 1038 629 1010 l 690 1038 q 656 931 685 969 q 575 892 626 892 m 517 1332 l 654 1332 l 526 1119 l 447 1119 l 517 1332 z "},"V":{"ha":908,"x_min":22,"x_max":886,"o":"m 114 696 l 22 696 l 22 788 l 365 788 l 365 696 l 264 696 l 469 160 l 669 696 l 572 696 l 572 788 l 886 788 l 886 696 l 797 696 l 518 0 l 401 0 l 114 696 z "},"W":{"ha":1278,"x_min":31,"x_max":1247,"o":"m 119 696 l 31 696 l 31 788 l 349 788 l 349 696 l 254 696 l 407 190 l 599 771 l 697 771 l 889 190 l 1040 696 l 943 696 l 943 788 l 1247 788 l 1247 696 l 1157 696 l 942 0 l 831 0 l 642 557 l 454 0 l 343 0 l 119 696 z "},"Ẃ":{"ha":1278,"x_min":31,"x_max":1247,"o":"m 119 696 l 31 696 l 31 788 l 349 788 l 349 696 l 254 696 l 407 190 l 599 771 l 697 771 l 889 190 l 1040 696 l 943 696 l 943 788 l 1247 788 l 1247 696 l 1157 696 l 942 0 l 831 0 l 642 557 l 454 0 l 343 0 l 119 696 m 679 1092 l 817 1092 l 689 879 l 610 879 l 679 1092 z "},"Ŵ":{"ha":1278,"x_min":31,"x_max":1247,"o":"m 119 696 l 31 696 l 31 788 l 349 788 l 349 696 l 254 696 l 407 190 l 599 771 l 697 771 l 889 190 l 1040 696 l 943 696 l 943 788 l 1247 788 l 1247 696 l 1157 696 l 942 0 l 831 0 l 642 557 l 454 0 l 343 0 l 119 696 m 581 1075 l 717 1075 l 833 850 l 742 850 l 649 1019 l 556 850 l 464 850 l 581 1075 z "},"Ẅ":{"ha":1278,"x_min":31,"x_max":1247,"o":"m 119 696 l 31 696 l 31 788 l 349 788 l 349 696 l 254 696 l 407 190 l 599 771 l 697 771 l 889 190 l 1040 696 l 943 696 l 943 788 l 1247 788 l 1247 696 l 1157 696 l 942 0 l 831 0 l 642 557 l 454 0 l 343 0 l 119 696 m 506 865 q 451 884 472 865 q 429 936 429 903 q 450 989 429 969 q 506 1008 471 1008 q 560 989 539 1008 q 581 936 581 969 q 560 884 581 903 q 506 865 539 865 m 792 865 q 738 884 758 865 q 718 936 718 903 q 738 989 718 969 q 792 1008 758 1008 q 847 989 826 1008 q 868 936 868 969 q 847 884 868 903 q 792 865 825 865 z "},"Ẁ":{"ha":1278,"x_min":31,"x_max":1247,"o":"m 119 696 l 31 696 l 31 788 l 349 788 l 349 696 l 254 696 l 407 190 l 599 771 l 697 771 l 889 190 l 1040 696 l 943 696 l 943 788 l 1247 788 l 1247 696 l 1157 696 l 942 0 l 831 0 l 642 557 l 454 0 l 343 0 l 119 696 m 481 1092 l 617 1092 l 688 879 l 607 879 l 481 1092 z "},"X":{"ha":903,"x_min":42,"x_max":861,"o":"m 42 89 l 138 89 l 364 401 l 147 697 l 51 697 l 51 788 l 389 788 l 389 697 l 303 697 l 458 476 l 613 697 l 525 697 l 525 788 l 844 788 l 844 697 l 749 697 l 533 406 l 764 89 l 861 89 l 861 0 l 518 0 l 518 89 l 607 89 l 440 331 l 275 89 l 364 89 l 364 0 l 42 0 l 42 89 z "},"Y":{"ha":893,"x_min":18,"x_max":875,"o":"m 269 92 l 376 92 l 376 325 l 115 696 l 18 696 l 18 788 l 369 788 l 369 696 l 275 696 l 464 417 l 649 696 l 551 696 l 551 788 l 875 788 l 875 696 l 775 696 l 522 326 l 522 92 l 632 92 l 632 0 l 269 0 l 269 92 z "},"Ý":{"ha":893,"x_min":18,"x_max":875,"o":"m 269 92 l 376 92 l 376 325 l 115 696 l 18 696 l 18 788 l 369 788 l 369 696 l 275 696 l 464 417 l 649 696 l 551 696 l 551 788 l 875 788 l 875 696 l 775 696 l 522 326 l 522 92 l 632 92 l 632 0 l 269 0 l 269 92 m 492 1108 l 629 1108 l 501 896 l 422 896 l 492 1108 z "},"Ŷ":{"ha":893,"x_min":18,"x_max":875,"o":"m 269 92 l 376 92 l 376 325 l 115 696 l 18 696 l 18 788 l 369 788 l 369 696 l 275 696 l 464 417 l 649 696 l 551 696 l 551 788 l 875 788 l 875 696 l 775 696 l 522 326 l 522 92 l 632 92 l 632 0 l 269 0 l 269 92 m 393 1092 l 529 1092 l 646 867 l 554 867 l 461 1036 l 368 867 l 276 867 l 393 1092 z "},"Ÿ":{"ha":893,"x_min":18,"x_max":875,"o":"m 269 92 l 376 92 l 376 325 l 115 696 l 18 696 l 18 788 l 369 788 l 369 696 l 275 696 l 464 417 l 649 696 l 551 696 l 551 788 l 875 788 l 875 696 l 775 696 l 522 326 l 522 92 l 632 92 l 632 0 l 269 0 l 269 92 m 318 882 q 263 901 285 882 q 242 953 242 919 q 263 1006 242 986 q 318 1025 283 1025 q 372 1006 351 1025 q 393 953 393 986 q 372 901 393 919 q 318 882 351 882 m 604 882 q 551 901 571 882 q 531 953 531 919 q 551 1006 531 986 q 604 1025 571 1025 q 660 1006 639 1025 q 681 953 681 986 q 659 901 681 919 q 604 882 638 882 z "},"Ẏ":{"ha":893,"x_min":18,"x_max":875,"o":"m 269 92 l 376 92 l 376 325 l 115 696 l 18 696 l 18 788 l 369 788 l 369 696 l 275 696 l 464 417 l 649 696 l 551 696 l 551 788 l 875 788 l 875 696 l 775 696 l 522 326 l 522 92 l 632 92 l 632 0 l 269 0 l 269 92 m 461 885 q 404 906 426 885 q 382 960 382 928 q 404 1015 382 993 q 461 1036 426 1036 q 519 1015 497 1036 q 540 957 540 993 q 518 906 540 926 q 461 885 496 885 z "},"Ỵ":{"ha":893,"x_min":18,"x_max":875,"o":"m 269 92 l 376 92 l 376 325 l 115 696 l 18 696 l 18 788 l 369 788 l 369 696 l 275 696 l 464 417 l 649 696 l 551 696 l 551 788 l 875 788 l 875 696 l 775 696 l 522 326 l 522 92 l 632 92 l 632 0 l 269 0 l 269 92 m 450 -215 q 395 -194 417 -215 q 374 -143 374 -174 q 395 -92 374 -112 q 450 -72 417 -72 q 506 -92 485 -72 q 526 -146 526 -111 q 505 -195 526 -175 q 450 -215 483 -215 z "},"Ỳ":{"ha":893,"x_min":18,"x_max":875,"o":"m 269 92 l 376 92 l 376 325 l 115 696 l 18 696 l 18 788 l 369 788 l 369 696 l 275 696 l 464 417 l 649 696 l 551 696 l 551 788 l 875 788 l 875 696 l 775 696 l 522 326 l 522 92 l 632 92 l 632 0 l 269 0 l 269 92 m 293 1108 l 429 1108 l 500 896 l 419 896 l 293 1108 z "},"Ỷ":{"ha":893,"x_min":18,"x_max":875,"o":"m 269 92 l 376 92 l 376 325 l 115 696 l 18 696 l 18 788 l 369 788 l 369 696 l 275 696 l 464 417 l 649 696 l 551 696 l 551 788 l 875 788 l 875 696 l 775 696 l 522 326 l 522 92 l 632 92 l 632 0 l 269 0 l 269 92 m 439 908 q 474 928 463 917 q 486 960 486 940 q 472 988 486 978 q 436 999 458 999 q 371 979 403 999 l 350 1040 q 450 1071 396 1071 q 535 1042 503 1071 q 568 967 568 1013 q 458 847 568 878 l 439 908 z "},"Ȳ":{"ha":893,"x_min":18,"x_max":875,"o":"m 269 92 l 376 92 l 376 325 l 115 696 l 18 696 l 18 788 l 369 788 l 369 696 l 275 696 l 464 417 l 649 696 l 551 696 l 551 788 l 875 788 l 875 696 l 775 696 l 522 326 l 522 92 l 632 92 l 632 0 l 269 0 l 269 92 m 306 969 l 617 969 l 617 894 l 306 894 l 306 969 z "},"Ỹ":{"ha":893,"x_min":18,"x_max":875,"o":"m 269 92 l 376 92 l 376 325 l 115 696 l 18 696 l 18 788 l 369 788 l 369 696 l 275 696 l 464 417 l 649 696 l 551 696 l 551 788 l 875 788 l 875 696 l 775 696 l 522 326 l 522 92 l 632 92 l 632 0 l 269 0 l 269 92 m 551 892 q 504 899 528 892 q 442 922 481 907 q 361 947 386 947 q 315 899 321 947 l 257 899 q 294 1007 263 972 q 375 1042 325 1042 q 415 1035 394 1042 q 455 1021 436 1028 q 479 1011 474 1014 q 513 997 485 1008 q 557 986 540 986 q 592 998 579 986 q 611 1038 606 1010 l 667 1038 q 632 931 661 969 q 551 892 603 892 z "},"Z":{"ha":806,"x_min":78,"x_max":739,"o":"m 78 89 l 542 696 l 197 696 l 197 519 l 96 519 l 96 788 l 728 788 l 728 706 l 260 92 l 636 92 l 636 282 l 739 282 l 739 0 l 78 0 l 78 89 z "},"Ź":{"ha":806,"x_min":78,"x_max":739,"o":"m 78 89 l 542 696 l 197 696 l 197 519 l 96 519 l 96 788 l 728 788 l 728 706 l 260 92 l 636 92 l 636 282 l 739 282 l 739 0 l 78 0 l 78 89 m 446 1108 l 583 1108 l 456 896 l 376 896 l 446 1108 z "},"Ž":{"ha":806,"x_min":78,"x_max":739,"o":"m 78 89 l 542 696 l 197 696 l 197 519 l 96 519 l 96 788 l 728 788 l 728 706 l 260 92 l 636 92 l 636 282 l 739 282 l 739 0 l 78 0 l 78 89 m 240 1085 l 331 1085 l 418 932 l 503 1085 l 589 1085 l 483 865 l 351 865 l 240 1085 z "},"Ż":{"ha":806,"x_min":78,"x_max":739,"o":"m 78 89 l 542 696 l 197 696 l 197 519 l 96 519 l 96 788 l 728 788 l 728 706 l 260 92 l 636 92 l 636 282 l 739 282 l 739 0 l 78 0 l 78 89 m 415 885 q 358 906 381 885 q 336 960 336 928 q 358 1015 336 993 q 415 1036 381 1036 q 473 1015 451 1036 q 494 957 494 993 q 472 906 494 926 q 415 885 450 885 z "},"Ẓ":{"ha":806,"x_min":78,"x_max":739,"o":"m 78 89 l 542 696 l 197 696 l 197 519 l 96 519 l 96 788 l 728 788 l 728 706 l 260 92 l 636 92 l 636 282 l 739 282 l 739 0 l 78 0 l 78 89 m 408 -215 q 353 -194 375 -215 q 332 -143 332 -174 q 353 -92 332 -112 q 408 -72 375 -72 q 464 -92 443 -72 q 485 -146 485 -111 q 463 -195 485 -175 q 408 -215 442 -215 z "},"a":{"ha":643,"x_min":51,"x_max":624,"o":"m 624 86 l 624 0 l 432 0 l 424 50 q 335 1 379 17 q 238 -15 292 -15 q 103 31 154 -15 q 51 147 51 76 q 113 278 51 236 q 271 319 174 319 q 414 301 342 319 l 414 350 q 382 440 414 410 q 292 471 350 471 q 203 458 253 471 q 106 421 153 444 l 71 501 q 185 547 122 532 q 306 563 249 563 q 480 508 417 563 q 543 360 543 453 l 543 86 l 624 86 m 172 156 q 198 90 172 115 q 268 65 224 65 q 414 118 340 65 l 414 233 q 289 250 351 250 q 205 228 238 250 q 172 156 172 206 z "},"á":{"ha":643,"x_min":51,"x_max":624,"o":"m 624 86 l 624 0 l 432 0 l 424 50 q 335 1 379 17 q 238 -15 292 -15 q 103 31 154 -15 q 51 147 51 76 q 113 278 51 236 q 271 319 174 319 q 414 301 342 319 l 414 350 q 382 440 414 410 q 292 471 350 471 q 203 458 253 471 q 106 421 153 444 l 71 501 q 185 547 122 532 q 306 563 249 563 q 480 508 417 563 q 543 360 543 453 l 543 86 l 624 86 m 172 156 q 198 90 172 115 q 268 65 224 65 q 414 118 340 65 l 414 233 q 289 250 351 250 q 205 228 238 250 q 172 156 172 206 m 340 869 l 478 869 l 350 657 l 271 657 l 340 869 z "},"ă":{"ha":643,"x_min":51,"x_max":624,"o":"m 624 86 l 624 0 l 432 0 l 424 50 q 335 1 379 17 q 238 -15 292 -15 q 103 31 154 -15 q 51 147 51 76 q 113 278 51 236 q 271 319 174 319 q 414 301 342 319 l 414 350 q 382 440 414 410 q 292 471 350 471 q 203 458 253 471 q 106 421 153 444 l 71 501 q 185 547 122 532 q 306 563 249 563 q 480 508 417 563 q 543 360 543 453 l 543 86 l 624 86 m 172 156 q 198 90 172 115 q 268 65 224 65 q 414 118 340 65 l 414 233 q 289 250 351 250 q 205 228 238 250 q 172 156 172 206 m 307 632 q 190 673 235 632 q 138 788 144 714 l 224 788 q 310 708 239 708 q 367 728 344 708 q 394 788 389 749 l 482 788 q 428 672 474 713 q 307 632 382 632 z "},"ắ":{"ha":643,"x_min":51,"x_max":624,"o":"m 624 86 l 624 0 l 432 0 l 424 50 q 335 1 379 17 q 238 -15 292 -15 q 103 31 154 -15 q 51 147 51 76 q 113 278 51 236 q 271 319 174 319 q 414 301 342 319 l 414 350 q 382 440 414 410 q 292 471 350 471 q 203 458 253 471 q 106 421 153 444 l 71 501 q 185 547 122 532 q 306 563 249 563 q 480 508 417 563 q 543 360 543 453 l 543 86 l 624 86 m 172 156 q 198 90 172 115 q 268 65 224 65 q 414 118 340 65 l 414 233 q 289 250 351 250 q 205 228 238 250 q 172 156 172 206 m 321 960 l 450 960 l 339 803 l 264 803 l 321 960 m 306 631 q 189 671 233 631 q 138 781 144 711 l 221 781 q 310 703 236 703 q 369 723 346 703 q 397 781 392 743 l 482 781 q 428 669 474 708 q 306 631 382 631 z "},"ặ":{"ha":643,"x_min":51,"x_max":624,"o":"m 624 86 l 624 0 l 432 0 l 424 50 q 335 1 379 17 q 238 -15 292 -15 q 103 31 154 -15 q 51 147 51 76 q 113 278 51 236 q 271 319 174 319 q 414 301 342 319 l 414 350 q 382 440 414 410 q 292 471 350 471 q 203 458 253 471 q 106 421 153 444 l 71 501 q 185 547 122 532 q 306 563 249 563 q 480 508 417 563 q 543 360 543 453 l 543 86 l 624 86 m 172 156 q 198 90 172 115 q 268 65 224 65 q 414 118 340 65 l 414 233 q 289 250 351 250 q 205 228 238 250 q 172 156 172 206 m 342 -215 q 287 -194 308 -215 q 265 -143 265 -174 q 287 -92 265 -112 q 342 -72 308 -72 q 397 -92 376 -72 q 418 -146 418 -111 q 397 -195 418 -175 q 342 -215 375 -215 m 307 632 q 190 673 235 632 q 138 788 144 714 l 224 788 q 310 708 239 708 q 367 728 344 708 q 394 788 389 749 l 482 788 q 428 672 474 713 q 307 632 382 632 z "},"ằ":{"ha":643,"x_min":51,"x_max":624,"o":"m 624 86 l 624 0 l 432 0 l 424 50 q 335 1 379 17 q 238 -15 292 -15 q 103 31 154 -15 q 51 147 51 76 q 113 278 51 236 q 271 319 174 319 q 414 301 342 319 l 414 350 q 382 440 414 410 q 292 471 350 471 q 203 458 253 471 q 106 421 153 444 l 71 501 q 185 547 122 532 q 306 563 249 563 q 480 508 417 563 q 543 360 543 453 l 543 86 l 624 86 m 172 156 q 198 90 172 115 q 268 65 224 65 q 414 118 340 65 l 414 233 q 289 250 351 250 q 205 228 238 250 q 172 156 172 206 m 168 960 l 297 960 l 354 803 l 279 803 l 168 960 m 306 631 q 189 671 233 631 q 138 781 144 711 l 221 781 q 310 703 236 703 q 369 723 346 703 q 397 781 392 743 l 482 781 q 428 669 474 708 q 306 631 382 631 z "},"ẳ":{"ha":643,"x_min":51,"x_max":624,"o":"m 624 86 l 624 0 l 432 0 l 424 50 q 335 1 379 17 q 238 -15 292 -15 q 103 31 154 -15 q 51 147 51 76 q 113 278 51 236 q 271 319 174 319 q 414 301 342 319 l 414 350 q 382 440 414 410 q 292 471 350 471 q 203 458 253 471 q 106 421 153 444 l 71 501 q 185 547 122 532 q 306 563 249 563 q 480 508 417 563 q 543 360 543 453 l 543 86 l 624 86 m 172 156 q 198 90 172 115 q 268 65 224 65 q 414 118 340 65 l 414 233 q 289 250 351 250 q 205 228 238 250 q 172 156 172 206 m 281 840 q 315 860 304 849 q 326 892 326 872 q 313 919 326 910 q 278 929 300 929 q 213 910 244 929 l 190 971 q 290 1001 236 1001 q 376 972 343 1001 q 410 899 410 943 q 300 779 410 810 l 281 840 m 306 631 q 189 671 233 631 q 138 781 144 711 l 221 781 q 310 703 236 703 q 369 723 346 703 q 397 781 392 743 l 482 781 q 428 669 474 708 q 306 631 382 631 z "},"ẵ":{"ha":643,"x_min":51,"x_max":624,"o":"m 624 86 l 624 0 l 432 0 l 424 50 q 335 1 379 17 q 238 -15 292 -15 q 103 31 154 -15 q 51 147 51 76 q 113 278 51 236 q 271 319 174 319 q 414 301 342 319 l 414 350 q 382 440 414 410 q 292 471 350 471 q 203 458 253 471 q 106 421 153 444 l 71 501 q 185 547 122 532 q 306 563 249 563 q 480 508 417 563 q 543 360 543 453 l 543 86 l 624 86 m 172 156 q 198 90 172 115 q 268 65 224 65 q 414 118 340 65 l 414 233 q 289 250 351 250 q 205 228 238 250 q 172 156 172 206 m 401 833 q 290 864 363 833 q 210 888 232 888 q 164 839 169 888 l 106 839 q 142 943 111 910 q 222 976 174 976 q 266 969 243 976 q 324 947 289 961 q 368 930 346 938 q 406 922 390 922 q 441 934 428 922 q 460 974 454 946 l 515 974 q 481 870 510 907 q 401 833 453 833 m 306 631 q 189 671 233 631 q 138 781 144 711 l 221 781 q 310 703 236 703 q 369 723 346 703 q 397 781 392 743 l 482 781 q 428 669 474 708 q 306 631 382 631 z "},"ǎ":{"ha":643,"x_min":51,"x_max":624,"o":"m 624 86 l 624 0 l 432 0 l 424 50 q 335 1 379 17 q 238 -15 292 -15 q 103 31 154 -15 q 51 147 51 76 q 113 278 51 236 q 271 319 174 319 q 414 301 342 319 l 414 350 q 382 440 414 410 q 292 471 350 471 q 203 458 253 471 q 106 421 153 444 l 71 501 q 185 547 122 532 q 306 563 249 563 q 480 508 417 563 q 543 360 543 453 l 543 86 l 624 86 m 172 156 q 198 90 172 115 q 268 65 224 65 q 414 118 340 65 l 414 233 q 289 250 351 250 q 205 228 238 250 q 172 156 172 206 m 135 846 l 225 846 l 313 693 l 397 846 l 483 846 l 378 626 l 246 626 l 135 846 z "},"â":{"ha":643,"x_min":51,"x_max":624,"o":"m 624 86 l 624 0 l 432 0 l 424 50 q 335 1 379 17 q 238 -15 292 -15 q 103 31 154 -15 q 51 147 51 76 q 113 278 51 236 q 271 319 174 319 q 414 301 342 319 l 414 350 q 382 440 414 410 q 292 471 350 471 q 203 458 253 471 q 106 421 153 444 l 71 501 q 185 547 122 532 q 306 563 249 563 q 480 508 417 563 q 543 360 543 453 l 543 86 l 624 86 m 172 156 q 198 90 172 115 q 268 65 224 65 q 414 118 340 65 l 414 233 q 289 250 351 250 q 205 228 238 250 q 172 156 172 206 m 242 853 l 378 853 l 494 628 l 403 628 l 310 797 l 217 628 l 125 628 l 242 853 z "},"ấ":{"ha":643,"x_min":51,"x_max":629,"o":"m 624 86 l 624 0 l 432 0 l 424 50 q 335 1 379 17 q 238 -15 292 -15 q 103 31 154 -15 q 51 147 51 76 q 113 278 51 236 q 271 319 174 319 q 414 301 342 319 l 414 350 q 382 440 414 410 q 292 471 350 471 q 203 458 253 471 q 106 421 153 444 l 71 501 q 185 547 122 532 q 306 563 249 563 q 480 508 417 563 q 543 360 543 453 l 543 86 l 624 86 m 172 156 q 198 90 172 115 q 268 65 224 65 q 414 118 340 65 l 414 233 q 289 250 351 250 q 205 228 238 250 q 172 156 172 206 m 514 922 l 629 922 l 528 756 l 454 756 l 514 922 m 244 808 l 375 808 l 492 628 l 400 628 l 310 753 l 219 628 l 128 628 l 244 808 z "},"ậ":{"ha":643,"x_min":51,"x_max":624,"o":"m 624 86 l 624 0 l 432 0 l 424 50 q 335 1 379 17 q 238 -15 292 -15 q 103 31 154 -15 q 51 147 51 76 q 113 278 51 236 q 271 319 174 319 q 414 301 342 319 l 414 350 q 382 440 414 410 q 292 471 350 471 q 203 458 253 471 q 106 421 153 444 l 71 501 q 185 547 122 532 q 306 563 249 563 q 480 508 417 563 q 543 360 543 453 l 543 86 l 624 86 m 172 156 q 198 90 172 115 q 268 65 224 65 q 414 118 340 65 l 414 233 q 289 250 351 250 q 205 228 238 250 q 172 156 172 206 m 342 -215 q 287 -194 308 -215 q 265 -143 265 -174 q 287 -92 265 -112 q 342 -72 308 -72 q 397 -92 376 -72 q 418 -146 418 -111 q 397 -195 418 -175 q 342 -215 375 -215 m 242 853 l 378 853 l 494 628 l 403 628 l 310 797 l 217 628 l 125 628 l 242 853 z "},"ầ":{"ha":643,"x_min":51,"x_max":624,"o":"m 624 86 l 624 0 l 432 0 l 424 50 q 335 1 379 17 q 238 -15 292 -15 q 103 31 154 -15 q 51 147 51 76 q 113 278 51 236 q 271 319 174 319 q 414 301 342 319 l 414 350 q 382 440 414 410 q 292 471 350 471 q 203 458 253 471 q 106 421 153 444 l 71 501 q 185 547 122 532 q 306 563 249 563 q 480 508 417 563 q 543 360 543 453 l 543 86 l 624 86 m 172 156 q 198 90 172 115 q 268 65 224 65 q 414 118 340 65 l 414 233 q 289 250 351 250 q 205 228 238 250 q 172 156 172 206 m 485 756 l 385 922 l 500 922 l 560 756 l 485 756 m 244 808 l 375 808 l 492 628 l 400 628 l 310 753 l 219 628 l 128 628 l 244 808 z "},"ẩ":{"ha":643,"x_min":51,"x_max":624,"o":"m 624 86 l 624 0 l 432 0 l 424 50 q 335 1 379 17 q 238 -15 292 -15 q 103 31 154 -15 q 51 147 51 76 q 113 278 51 236 q 271 319 174 319 q 414 301 342 319 l 414 350 q 382 440 414 410 q 292 471 350 471 q 203 458 253 471 q 106 421 153 444 l 71 501 q 185 547 122 532 q 306 563 249 563 q 480 508 417 563 q 543 360 543 453 l 543 86 l 624 86 m 172 156 q 198 90 172 115 q 268 65 224 65 q 414 118 340 65 l 414 233 q 289 250 351 250 q 205 228 238 250 q 172 156 172 206 m 443 800 q 478 820 467 808 q 490 851 490 832 q 476 880 490 869 q 440 890 463 890 q 375 871 407 890 l 354 932 q 454 963 400 963 q 540 933 507 963 q 572 858 572 904 q 463 739 572 769 l 443 800 m 244 808 l 375 808 l 492 628 l 400 628 l 310 753 l 219 628 l 128 628 l 244 808 z "},"ẫ":{"ha":643,"x_min":51,"x_max":624,"o":"m 624 86 l 624 0 l 432 0 l 424 50 q 335 1 379 17 q 238 -15 292 -15 q 103 31 154 -15 q 51 147 51 76 q 113 278 51 236 q 271 319 174 319 q 414 301 342 319 l 414 350 q 382 440 414 410 q 292 471 350 471 q 203 458 253 471 q 106 421 153 444 l 71 501 q 185 547 122 532 q 306 563 249 563 q 480 508 417 563 q 543 360 543 453 l 543 86 l 624 86 m 172 156 q 198 90 172 115 q 268 65 224 65 q 414 118 340 65 l 414 233 q 289 250 351 250 q 205 228 238 250 q 172 156 172 206 m 401 850 q 356 857 379 850 q 296 879 333 864 q 215 903 240 903 q 169 854 175 903 l 111 854 q 146 957 117 924 q 222 990 175 990 q 262 983 242 990 q 322 961 282 976 q 400 938 378 938 q 435 949 422 938 q 454 986 449 960 l 510 986 q 477 886 504 922 q 401 850 450 850 m 244 808 l 375 808 l 492 628 l 400 628 l 310 753 l 219 628 l 128 628 l 244 808 z "},"ȁ":{"ha":643,"x_min":19,"x_max":624,"o":"m 624 86 l 624 0 l 432 0 l 424 50 q 335 1 379 17 q 238 -15 292 -15 q 103 31 154 -15 q 51 147 51 76 q 113 278 51 236 q 271 319 174 319 q 414 301 342 319 l 414 350 q 382 440 414 410 q 292 471 350 471 q 203 458 253 471 q 106 421 153 444 l 71 501 q 185 547 122 532 q 306 563 249 563 q 480 508 417 563 q 543 360 543 453 l 543 86 l 624 86 m 172 156 q 198 90 172 115 q 268 65 224 65 q 414 118 340 65 l 414 233 q 289 250 351 250 q 205 228 238 250 q 172 156 172 206 m 19 878 l 157 878 l 231 657 l 151 657 l 19 878 m 231 878 l 367 878 l 440 657 l 361 657 l 231 878 z "},"ä":{"ha":643,"x_min":51,"x_max":624,"o":"m 624 86 l 624 0 l 432 0 l 424 50 q 335 1 379 17 q 238 -15 292 -15 q 103 31 154 -15 q 51 147 51 76 q 113 278 51 236 q 271 319 174 319 q 414 301 342 319 l 414 350 q 382 440 414 410 q 292 471 350 471 q 203 458 253 471 q 106 421 153 444 l 71 501 q 185 547 122 532 q 306 563 249 563 q 480 508 417 563 q 543 360 543 453 l 543 86 l 624 86 m 172 156 q 198 90 172 115 q 268 65 224 65 q 414 118 340 65 l 414 233 q 289 250 351 250 q 205 228 238 250 q 172 156 172 206 m 167 643 q 112 662 133 643 q 90 714 90 681 q 111 767 90 747 q 167 786 132 786 q 221 767 200 786 q 242 714 242 747 q 221 662 242 681 q 167 643 200 643 m 453 643 q 399 662 419 643 q 379 714 379 681 q 399 767 379 747 q 453 786 419 786 q 508 767 488 786 q 529 714 529 747 q 508 662 529 681 q 453 643 486 643 z "},"ȧ":{"ha":643,"x_min":51,"x_max":624,"o":"m 624 86 l 624 0 l 432 0 l 424 50 q 335 1 379 17 q 238 -15 292 -15 q 103 31 154 -15 q 51 147 51 76 q 113 278 51 236 q 271 319 174 319 q 414 301 342 319 l 414 350 q 382 440 414 410 q 292 471 350 471 q 203 458 253 471 q 106 421 153 444 l 71 501 q 185 547 122 532 q 306 563 249 563 q 480 508 417 563 q 543 360 543 453 l 543 86 l 624 86 m 172 156 q 198 90 172 115 q 268 65 224 65 q 414 118 340 65 l 414 233 q 289 250 351 250 q 205 228 238 250 q 172 156 172 206 m 310 646 q 253 667 275 646 q 231 721 231 689 q 253 776 231 754 q 310 797 275 797 q 367 776 346 797 q 389 718 389 754 q 367 667 389 688 q 310 646 344 646 z "},"ạ":{"ha":643,"x_min":51,"x_max":624,"o":"m 624 86 l 624 0 l 432 0 l 424 50 q 335 1 379 17 q 238 -15 292 -15 q 103 31 154 -15 q 51 147 51 76 q 113 278 51 236 q 271 319 174 319 q 414 301 342 319 l 414 350 q 382 440 414 410 q 292 471 350 471 q 203 458 253 471 q 106 421 153 444 l 71 501 q 185 547 122 532 q 306 563 249 563 q 480 508 417 563 q 543 360 543 453 l 543 86 l 624 86 m 172 156 q 198 90 172 115 q 268 65 224 65 q 414 118 340 65 l 414 233 q 289 250 351 250 q 205 228 238 250 q 172 156 172 206 m 342 -215 q 287 -194 308 -215 q 265 -143 265 -174 q 287 -92 265 -112 q 342 -72 308 -72 q 397 -92 376 -72 q 418 -146 418 -111 q 397 -195 418 -175 q 342 -215 375 -215 z "},"à":{"ha":643,"x_min":51,"x_max":624,"o":"m 624 86 l 624 0 l 432 0 l 424 50 q 335 1 379 17 q 238 -15 292 -15 q 103 31 154 -15 q 51 147 51 76 q 113 278 51 236 q 271 319 174 319 q 414 301 342 319 l 414 350 q 382 440 414 410 q 292 471 350 471 q 203 458 253 471 q 106 421 153 444 l 71 501 q 185 547 122 532 q 306 563 249 563 q 480 508 417 563 q 543 360 543 453 l 543 86 l 624 86 m 172 156 q 198 90 172 115 q 268 65 224 65 q 414 118 340 65 l 414 233 q 289 250 351 250 q 205 228 238 250 q 172 156 172 206 m 142 869 l 278 869 l 349 657 l 268 657 l 142 869 z "},"ả":{"ha":643,"x_min":51,"x_max":624,"o":"m 624 86 l 624 0 l 432 0 l 424 50 q 335 1 379 17 q 238 -15 292 -15 q 103 31 154 -15 q 51 147 51 76 q 113 278 51 236 q 271 319 174 319 q 414 301 342 319 l 414 350 q 382 440 414 410 q 292 471 350 471 q 203 458 253 471 q 106 421 153 444 l 71 501 q 185 547 122 532 q 306 563 249 563 q 480 508 417 563 q 543 360 543 453 l 543 86 l 624 86 m 172 156 q 198 90 172 115 q 268 65 224 65 q 414 118 340 65 l 414 233 q 289 250 351 250 q 205 228 238 250 q 172 156 172 206 m 288 669 q 323 690 311 678 q 335 721 335 701 q 321 749 335 739 q 285 760 307 760 q 219 740 251 760 l 199 801 q 299 832 244 832 q 384 803 351 832 q 417 728 417 774 q 307 608 417 639 l 288 669 z "},"ȃ":{"ha":643,"x_min":51,"x_max":624,"o":"m 624 86 l 624 0 l 432 0 l 424 50 q 335 1 379 17 q 238 -15 292 -15 q 103 31 154 -15 q 51 147 51 76 q 113 278 51 236 q 271 319 174 319 q 414 301 342 319 l 414 350 q 382 440 414 410 q 292 471 350 471 q 203 458 253 471 q 106 421 153 444 l 71 501 q 185 547 122 532 q 306 563 249 563 q 480 508 417 563 q 543 360 543 453 l 543 86 l 624 86 m 172 156 q 198 90 172 115 q 268 65 224 65 q 414 118 340 65 l 414 233 q 289 250 351 250 q 205 228 238 250 q 172 156 172 206 m 133 624 q 186 746 139 701 q 310 790 233 790 q 432 746 385 790 q 485 624 479 701 l 392 624 q 310 699 379 699 q 254 679 275 699 q 226 624 233 660 l 133 624 z "},"ā":{"ha":643,"x_min":51,"x_max":624,"o":"m 624 86 l 624 0 l 432 0 l 424 50 q 335 1 379 17 q 238 -15 292 -15 q 103 31 154 -15 q 51 147 51 76 q 113 278 51 236 q 271 319 174 319 q 414 301 342 319 l 414 350 q 382 440 414 410 q 292 471 350 471 q 203 458 253 471 q 106 421 153 444 l 71 501 q 185 547 122 532 q 306 563 249 563 q 480 508 417 563 q 543 360 543 453 l 543 86 l 624 86 m 172 156 q 198 90 172 115 q 268 65 224 65 q 414 118 340 65 l 414 233 q 289 250 351 250 q 205 228 238 250 q 172 156 172 206 m 154 731 l 465 731 l 465 656 l 154 656 l 154 731 z "},"ą":{"ha":643,"x_min":51,"x_max":646,"o":"m 586 -171 q 646 -154 617 -171 l 646 -218 q 554 -244 597 -244 q 472 -215 504 -244 q 439 -137 439 -185 q 458 -69 439 -103 q 518 0 478 -36 l 432 0 l 424 50 q 335 1 379 17 q 238 -15 292 -15 q 103 31 154 -15 q 51 147 51 76 q 113 278 51 236 q 271 319 174 319 q 414 301 342 319 l 414 350 q 382 440 414 410 q 292 471 350 471 q 203 458 253 471 q 106 421 153 444 l 71 501 q 185 547 122 532 q 306 563 249 563 q 480 508 417 563 q 543 360 543 453 l 543 86 l 624 86 l 624 0 l 581 0 q 519 -111 519 -65 q 538 -156 519 -140 q 586 -171 556 -171 m 172 156 q 198 90 172 115 q 268 65 224 65 q 414 118 340 65 l 414 233 q 289 250 351 250 q 205 228 238 250 q 172 156 172 206 z "},"å":{"ha":643,"x_min":51,"x_max":624,"o":"m 624 86 l 624 0 l 432 0 l 424 50 q 335 1 379 17 q 238 -15 292 -15 q 103 31 154 -15 q 51 147 51 76 q 113 278 51 236 q 271 319 174 319 q 414 301 342 319 l 414 350 q 382 440 414 410 q 292 471 350 471 q 203 458 253 471 q 106 421 153 444 l 71 501 q 185 547 122 532 q 306 563 249 563 q 480 508 417 563 q 543 360 543 453 l 543 86 l 624 86 m 172 156 q 198 90 172 115 q 268 65 224 65 q 414 118 340 65 l 414 233 q 289 250 351 250 q 205 228 238 250 q 172 156 172 206 m 310 604 q 226 635 257 604 q 194 714 194 665 q 226 792 194 761 q 310 822 257 822 q 394 792 363 822 q 425 714 425 761 q 394 635 425 665 q 310 604 363 604 m 310 653 q 354 670 338 653 q 371 714 371 688 q 354 758 371 740 q 310 775 338 775 q 264 758 281 775 q 247 714 247 740 q 264 670 247 688 q 310 653 281 653 z "},"ǻ":{"ha":643,"x_min":51,"x_max":624,"o":"m 624 86 l 624 0 l 432 0 l 424 50 q 335 1 379 17 q 238 -15 292 -15 q 103 31 154 -15 q 51 147 51 76 q 113 278 51 236 q 271 319 174 319 q 414 301 342 319 l 414 350 q 382 440 414 410 q 292 471 350 471 q 203 458 253 471 q 106 421 153 444 l 71 501 q 185 547 122 532 q 306 563 249 563 q 480 508 417 563 q 543 360 543 453 l 543 86 l 624 86 m 172 156 q 198 90 172 115 q 268 65 224 65 q 414 118 340 65 l 414 233 q 289 250 351 250 q 205 228 238 250 q 172 156 172 206 m 310 604 q 226 635 257 604 q 194 714 194 665 q 226 792 194 761 q 310 822 257 822 q 394 792 363 822 q 425 714 425 761 q 394 635 425 665 q 310 604 363 604 m 310 653 q 354 670 338 653 q 371 714 371 688 q 354 758 371 740 q 310 775 338 775 q 264 758 281 775 q 247 714 247 740 q 264 670 247 688 q 310 653 281 653 m 340 1085 l 478 1085 l 350 872 l 271 872 l 340 1085 z "},"ã":{"ha":643,"x_min":51,"x_max":624,"o":"m 624 86 l 624 0 l 432 0 l 424 50 q 335 1 379 17 q 238 -15 292 -15 q 103 31 154 -15 q 51 147 51 76 q 113 278 51 236 q 271 319 174 319 q 414 301 342 319 l 414 350 q 382 440 414 410 q 292 471 350 471 q 203 458 253 471 q 106 421 153 444 l 71 501 q 185 547 122 532 q 306 563 249 563 q 480 508 417 563 q 543 360 543 453 l 543 86 l 624 86 m 172 156 q 198 90 172 115 q 268 65 224 65 q 414 118 340 65 l 414 233 q 289 250 351 250 q 205 228 238 250 q 172 156 172 206 m 400 653 q 353 660 376 653 q 290 683 329 668 q 210 708 235 708 q 164 660 169 708 l 106 660 q 142 768 111 733 q 224 803 174 803 q 264 796 243 803 q 303 782 285 789 q 328 772 322 775 q 361 758 333 769 q 406 747 389 747 q 441 759 428 747 q 460 799 454 771 l 515 799 q 481 692 510 731 q 400 653 451 653 z "},"æ":{"ha":1021,"x_min":51,"x_max":979,"o":"m 249 -15 q 106 30 160 -15 q 51 147 51 75 q 117 276 51 235 q 286 317 182 317 l 414 317 l 414 351 q 382 441 414 411 q 292 471 350 471 q 203 458 253 471 q 106 421 153 444 l 71 501 q 185 547 122 532 q 304 563 247 563 q 422 542 371 563 q 500 483 472 521 q 594 543 540 522 q 710 564 647 564 q 907 486 835 564 q 979 279 979 408 l 979 250 l 547 250 q 606 128 557 172 q 731 83 656 83 q 929 164 842 83 l 971 85 q 865 11 926 39 q 726 -17 803 -17 q 590 9 651 -17 q 486 82 528 35 q 374 8 431 32 q 249 -15 317 -15 m 853 321 q 813 432 853 392 q 707 472 772 472 q 598 432 642 472 q 546 321 554 392 l 853 321 m 276 65 q 361 83 321 65 q 446 138 401 100 q 417 246 421 190 l 301 246 q 208 225 244 246 q 172 156 172 204 q 200 90 172 115 q 276 65 228 65 z "},"ǽ":{"ha":1021,"x_min":51,"x_max":979,"o":"m 249 -15 q 106 30 160 -15 q 51 147 51 75 q 117 276 51 235 q 286 317 182 317 l 414 317 l 414 351 q 382 441 414 411 q 292 471 350 471 q 203 458 253 471 q 106 421 153 444 l 71 501 q 185 547 122 532 q 304 563 247 563 q 422 542 371 563 q 500 483 472 521 q 594 543 540 522 q 710 564 647 564 q 907 486 835 564 q 979 279 979 408 l 979 250 l 547 250 q 606 128 557 172 q 731 83 656 83 q 929 164 842 83 l 971 85 q 865 11 926 39 q 726 -17 803 -17 q 590 9 651 -17 q 486 82 528 35 q 374 8 431 32 q 249 -15 317 -15 m 853 321 q 813 432 853 392 q 707 472 772 472 q 598 432 642 472 q 546 321 554 392 l 853 321 m 276 65 q 361 83 321 65 q 446 138 401 100 q 417 246 421 190 l 301 246 q 208 225 244 246 q 172 156 172 204 q 200 90 172 115 q 276 65 228 65 m 531 869 l 668 869 l 540 657 l 461 657 l 531 869 z "},"ǣ":{"ha":1021,"x_min":51,"x_max":979,"o":"m 249 -15 q 106 30 160 -15 q 51 147 51 75 q 117 276 51 235 q 286 317 182 317 l 414 317 l 414 351 q 382 441 414 411 q 292 471 350 471 q 203 458 253 471 q 106 421 153 444 l 71 501 q 185 547 122 532 q 304 563 247 563 q 422 542 371 563 q 500 483 472 521 q 594 543 540 522 q 710 564 647 564 q 907 486 835 564 q 979 279 979 408 l 979 250 l 547 250 q 606 128 557 172 q 731 83 656 83 q 929 164 842 83 l 971 85 q 865 11 926 39 q 726 -17 803 -17 q 590 9 651 -17 q 486 82 528 35 q 374 8 431 32 q 249 -15 317 -15 m 853 321 q 813 432 853 392 q 707 472 772 472 q 598 432 642 472 q 546 321 554 392 l 853 321 m 276 65 q 361 83 321 65 q 446 138 401 100 q 417 246 421 190 l 301 246 q 208 225 244 246 q 172 156 172 204 q 200 90 172 115 q 276 65 228 65 m 344 731 l 656 731 l 656 656 l 344 656 l 344 731 z "},"b":{"ha":729,"x_min":31,"x_max":697,"o":"m 436 563 q 570 529 511 563 q 663 432 629 496 q 697 282 697 368 q 660 124 697 192 q 560 22 624 57 q 421 -14 497 -14 q 251 44 321 -14 l 250 0 l 31 0 l 31 86 l 124 86 l 124 715 l 33 715 l 33 801 l 254 801 l 254 500 q 341 546 293 529 q 436 563 389 563 m 388 83 q 513 133 464 83 q 561 274 561 183 q 515 413 561 363 q 393 463 468 463 q 254 410 317 463 l 254 132 q 388 83 318 83 z "},"ḃ":{"ha":729,"x_min":31,"x_max":697,"o":"m 436 563 q 570 529 511 563 q 663 432 629 496 q 697 282 697 368 q 660 124 697 192 q 560 22 624 57 q 421 -14 497 -14 q 251 44 321 -14 l 250 0 l 31 0 l 31 86 l 124 86 l 124 715 l 33 715 l 33 801 l 254 801 l 254 500 q 341 546 293 529 q 436 563 389 563 m 388 83 q 513 133 464 83 q 561 274 561 183 q 515 413 561 363 q 393 463 468 463 q 254 410 317 463 l 254 132 q 388 83 318 83 m 388 699 q 331 720 353 699 q 308 774 308 742 q 331 828 308 807 q 388 850 353 850 q 445 828 424 850 q 467 771 467 807 q 444 719 467 740 q 388 699 422 699 z "},"c":{"ha":647,"x_min":33,"x_max":592,"o":"m 592 97 q 335 -14 497 -14 q 178 24 247 -14 q 72 128 110 61 q 33 279 33 194 q 70 427 33 363 q 171 528 107 492 q 317 564 235 564 q 419 544 375 564 q 489 490 463 525 l 489 551 l 589 551 l 589 346 l 499 346 q 447 436 488 404 q 344 468 407 468 q 214 417 264 468 q 164 283 164 365 q 216 141 164 196 q 351 86 268 86 q 458 109 414 86 q 544 176 503 132 l 592 97 z "},"ć":{"ha":647,"x_min":33,"x_max":592,"o":"m 592 97 q 335 -14 497 -14 q 178 24 247 -14 q 72 128 110 61 q 33 279 33 194 q 70 427 33 363 q 171 528 107 492 q 317 564 235 564 q 419 544 375 564 q 489 490 463 525 l 489 551 l 589 551 l 589 346 l 499 346 q 447 436 488 404 q 344 468 407 468 q 214 417 264 468 q 164 283 164 365 q 216 141 164 196 q 351 86 268 86 q 458 109 414 86 q 544 176 503 132 l 592 97 m 368 869 l 506 869 l 378 657 l 299 657 l 368 869 z "},"č":{"ha":647,"x_min":33,"x_max":592,"o":"m 592 97 q 335 -14 497 -14 q 178 24 247 -14 q 72 128 110 61 q 33 279 33 194 q 70 427 33 363 q 171 528 107 492 q 317 564 235 564 q 419 544 375 564 q 489 490 463 525 l 489 551 l 589 551 l 589 346 l 499 346 q 447 436 488 404 q 344 468 407 468 q 214 417 264 468 q 164 283 164 365 q 216 141 164 196 q 351 86 268 86 q 458 109 414 86 q 544 176 503 132 l 592 97 m 163 846 l 253 846 l 340 693 l 425 846 l 511 846 l 406 626 l 274 626 l 163 846 z "},"ç":{"ha":647,"x_min":33,"x_max":592,"o":"m 592 97 q 361 -12 504 -4 l 343 -81 q 419 -110 393 -86 q 444 -168 444 -135 q 414 -233 444 -211 q 338 -254 383 -254 q 215 -225 278 -254 l 215 -181 q 294 -196 261 -196 q 347 -158 347 -196 q 267 -114 347 -118 l 306 -12 q 163 32 225 -7 q 67 135 101 71 q 33 279 33 199 q 70 427 33 363 q 171 528 107 492 q 317 564 235 564 q 419 544 375 564 q 489 490 463 525 l 489 551 l 589 551 l 589 346 l 499 346 q 447 436 488 404 q 344 468 407 468 q 214 417 264 468 q 164 283 164 365 q 216 141 164 196 q 351 86 268 86 q 458 109 414 86 q 544 176 503 132 l 592 97 z "},"ḉ":{"ha":647,"x_min":33,"x_max":592,"o":"m 378 657 l 299 657 l 368 869 l 506 869 l 378 657 m 592 97 q 361 -12 504 -4 l 343 -81 q 419 -110 393 -86 q 444 -168 444 -135 q 414 -233 444 -211 q 338 -254 383 -254 q 215 -225 278 -254 l 215 -181 q 294 -196 261 -196 q 347 -158 347 -196 q 267 -114 347 -118 l 306 -12 q 163 32 225 -7 q 67 135 101 71 q 33 279 33 199 q 70 427 33 363 q 171 528 107 492 q 317 564 235 564 q 419 544 375 564 q 489 490 463 525 l 489 551 l 589 551 l 589 346 l 499 346 q 447 436 488 404 q 344 468 407 468 q 214 417 264 468 q 164 283 164 365 q 216 141 164 196 q 351 86 268 86 q 458 109 414 86 q 544 176 503 132 l 592 97 z "},"ĉ":{"ha":647,"x_min":33,"x_max":592,"o":"m 592 97 q 335 -14 497 -14 q 178 24 247 -14 q 72 128 110 61 q 33 279 33 194 q 70 427 33 363 q 171 528 107 492 q 317 564 235 564 q 419 544 375 564 q 489 490 463 525 l 489 551 l 589 551 l 589 346 l 499 346 q 447 436 488 404 q 344 468 407 468 q 214 417 264 468 q 164 283 164 365 q 216 141 164 196 q 351 86 268 86 q 458 109 414 86 q 544 176 503 132 l 592 97 m 269 853 l 406 853 l 522 628 l 431 628 l 338 797 l 244 628 l 153 628 l 269 853 z "},"ċ":{"ha":647,"x_min":33,"x_max":592,"o":"m 592 97 q 335 -14 497 -14 q 178 24 247 -14 q 72 128 110 61 q 33 279 33 194 q 70 427 33 363 q 171 528 107 492 q 317 564 235 564 q 419 544 375 564 q 489 490 463 525 l 489 551 l 589 551 l 589 346 l 499 346 q 447 436 488 404 q 344 468 407 468 q 214 417 264 468 q 164 283 164 365 q 216 141 164 196 q 351 86 268 86 q 458 109 414 86 q 544 176 503 132 l 592 97 m 338 646 q 281 667 303 646 q 258 721 258 689 q 281 776 258 754 q 338 797 303 797 q 395 776 374 797 q 417 718 417 754 q 394 667 417 688 q 338 646 372 646 z "},"d":{"ha":719,"x_min":36,"x_max":692,"o":"m 692 86 l 692 0 l 483 0 l 482 39 q 308 -15 408 -15 q 171 20 233 -15 q 72 122 108 56 q 36 275 36 188 q 71 428 36 364 q 166 528 106 493 q 300 563 226 563 q 479 504 399 563 l 479 715 l 385 715 l 385 801 l 610 801 l 610 86 l 692 86 m 171 268 q 220 133 171 182 q 346 83 269 83 q 479 126 415 83 l 479 417 q 336 464 411 464 q 217 413 263 464 q 171 268 171 361 z "},"ð":{"ha":669,"x_min":51,"x_max":624,"o":"m 417 715 q 569 508 514 615 q 624 276 624 400 q 587 124 624 190 q 485 22 550 58 q 336 -14 419 -14 q 183 22 247 -14 q 85 119 118 57 q 51 260 51 182 q 84 401 51 339 q 177 499 117 464 q 321 535 238 535 q 402 522 367 535 q 457 494 438 508 q 319 671 414 579 l 147 594 l 111 667 l 256 731 q 100 856 188 792 l 163 932 q 354 775 296 829 l 525 851 l 563 781 l 417 715 m 336 88 q 460 140 418 88 q 501 269 501 193 q 457 393 501 347 q 336 439 413 439 q 218 390 261 439 q 175 260 175 342 q 218 138 175 188 q 336 88 261 88 z "},"ď":{"ha":801,"x_min":36,"x_max":817,"o":"m 692 86 l 692 0 l 483 0 l 482 39 q 308 -15 408 -15 q 171 20 233 -15 q 72 122 108 56 q 36 275 36 188 q 71 428 36 364 q 166 528 106 493 q 300 563 226 563 q 479 504 399 563 l 479 715 l 385 715 l 385 801 l 610 801 l 610 86 l 692 86 m 171 268 q 220 133 171 182 q 346 83 269 83 q 479 126 415 83 l 479 417 q 336 464 411 464 q 217 413 263 464 q 171 268 171 361 m 665 571 q 728 597 708 576 q 747 665 747 618 l 667 665 l 667 801 l 817 801 l 815 672 q 665 519 818 519 l 665 571 z "},"đ":{"ha":728,"x_min":36,"x_max":690,"o":"m 610 639 l 610 89 l 690 89 l 690 0 l 483 0 l 482 39 q 308 -15 408 -15 q 171 20 233 -15 q 72 122 108 56 q 36 275 36 188 q 71 428 36 364 q 166 528 106 493 q 300 563 226 563 q 479 504 399 563 l 479 639 l 324 639 l 324 708 l 479 708 l 479 800 l 610 800 l 610 708 l 690 708 l 690 639 l 610 639 m 171 268 q 220 133 171 182 q 346 83 269 83 q 479 126 415 83 l 479 417 q 336 464 411 464 q 217 413 263 464 q 171 268 171 361 z "},"ḋ":{"ha":719,"x_min":36,"x_max":692,"o":"m 692 86 l 692 0 l 483 0 l 482 39 q 308 -15 408 -15 q 171 20 233 -15 q 72 122 108 56 q 36 275 36 188 q 71 428 36 364 q 166 528 106 493 q 300 563 226 563 q 479 504 399 563 l 479 715 l 385 715 l 385 801 l 610 801 l 610 86 l 692 86 m 171 268 q 220 133 171 182 q 346 83 269 83 q 479 126 415 83 l 479 417 q 336 464 411 464 q 217 413 263 464 q 171 268 171 361 m 544 899 q 488 920 510 899 q 465 974 465 942 q 488 1028 465 1007 q 544 1050 510 1050 q 602 1028 581 1050 q 624 971 624 1007 q 601 919 624 940 q 544 899 579 899 z "},"ḍ":{"ha":719,"x_min":36,"x_max":692,"o":"m 692 86 l 692 0 l 483 0 l 482 39 q 308 -15 408 -15 q 171 20 233 -15 q 72 122 108 56 q 36 275 36 188 q 71 428 36 364 q 166 528 106 493 q 300 563 226 563 q 479 504 399 563 l 479 715 l 385 715 l 385 801 l 610 801 l 610 86 l 692 86 m 171 268 q 220 133 171 182 q 346 83 269 83 q 479 126 415 83 l 479 417 q 336 464 411 464 q 217 413 263 464 q 171 268 171 361 m 374 -215 q 319 -194 340 -215 q 297 -143 297 -174 q 319 -92 297 -112 q 374 -72 340 -72 q 429 -92 408 -72 q 450 -146 450 -111 q 428 -195 450 -175 q 374 -215 407 -215 z "},"ḏ":{"ha":719,"x_min":36,"x_max":692,"o":"m 692 86 l 692 0 l 483 0 l 482 39 q 308 -15 408 -15 q 171 20 233 -15 q 72 122 108 56 q 36 275 36 188 q 71 428 36 364 q 166 528 106 493 q 300 563 226 563 q 479 504 399 563 l 479 715 l 385 715 l 385 801 l 610 801 l 610 86 l 692 86 m 171 268 q 220 133 171 182 q 346 83 269 83 q 479 126 415 83 l 479 417 q 336 464 411 464 q 217 413 263 464 q 171 268 171 361 m 218 -65 l 529 -65 l 529 -140 l 218 -140 l 218 -65 z "},"ǳ":{"ha":1335,"x_min":36,"x_max":1281,"o":"m 692 86 l 692 0 l 483 0 l 482 39 q 308 -15 408 -15 q 171 20 233 -15 q 72 122 108 56 q 36 275 36 188 q 71 428 36 364 q 166 528 106 493 q 300 563 226 563 q 479 504 399 563 l 479 715 l 385 715 l 385 801 l 610 801 l 610 86 l 692 86 m 171 268 q 220 133 171 182 q 346 83 269 83 q 479 126 415 83 l 479 417 q 336 464 411 464 q 217 413 263 464 q 171 268 171 361 m 783 81 l 1119 465 l 878 465 l 878 356 l 789 356 l 789 549 l 1272 549 l 1272 465 l 933 82 l 1189 82 l 1189 204 l 1281 204 l 1281 0 l 783 0 l 783 81 z "},"ǆ":{"ha":1335,"x_min":36,"x_max":1281,"o":"m 692 86 l 692 0 l 483 0 l 482 39 q 308 -15 408 -15 q 171 20 233 -15 q 72 122 108 56 q 36 275 36 188 q 71 428 36 364 q 166 528 106 493 q 300 563 226 563 q 479 504 399 563 l 479 715 l 385 715 l 385 801 l 610 801 l 610 86 l 692 86 m 171 268 q 220 133 171 182 q 346 83 269 83 q 479 126 415 83 l 479 417 q 336 464 411 464 q 217 413 263 464 q 171 268 171 361 m 783 81 l 1119 465 l 878 465 l 878 356 l 789 356 l 789 549 l 1272 549 l 1272 465 l 933 82 l 1189 82 l 1189 204 l 1281 204 l 1281 0 l 783 0 l 783 81 m 864 846 l 954 846 l 1042 693 l 1126 846 l 1213 846 l 1107 626 l 975 626 l 864 846 z "},"e":{"ha":639,"x_min":32,"x_max":596,"o":"m 596 250 l 164 250 q 224 128 174 172 q 349 83 274 83 q 455 105 404 83 q 546 164 506 126 l 588 85 q 481 11 543 39 q 343 -17 419 -17 q 183 19 254 -17 q 72 122 113 56 q 32 274 32 188 q 70 426 32 360 q 176 528 108 492 q 325 564 243 564 q 524 486 451 564 q 596 279 596 408 l 596 250 m 469 321 q 429 432 469 392 q 324 472 389 472 q 215 432 258 472 q 164 321 172 392 l 469 321 z "},"é":{"ha":639,"x_min":32,"x_max":596,"o":"m 596 250 l 164 250 q 224 128 174 172 q 349 83 274 83 q 455 105 404 83 q 546 164 506 126 l 588 85 q 481 11 543 39 q 343 -17 419 -17 q 183 19 254 -17 q 72 122 113 56 q 32 274 32 188 q 70 426 32 360 q 176 528 108 492 q 325 564 243 564 q 524 486 451 564 q 596 279 596 408 l 596 250 m 469 321 q 429 432 469 392 q 324 472 389 472 q 215 432 258 472 q 164 321 172 392 l 469 321 m 363 869 l 500 869 l 372 657 l 293 657 l 363 869 z "},"ĕ":{"ha":639,"x_min":32,"x_max":596,"o":"m 596 250 l 164 250 q 224 128 174 172 q 349 83 274 83 q 455 105 404 83 q 546 164 506 126 l 588 85 q 481 11 543 39 q 343 -17 419 -17 q 183 19 254 -17 q 72 122 113 56 q 32 274 32 188 q 70 426 32 360 q 176 528 108 492 q 325 564 243 564 q 524 486 451 564 q 596 279 596 408 l 596 250 m 469 321 q 429 432 469 392 q 324 472 389 472 q 215 432 258 472 q 164 321 172 392 l 469 321 m 329 632 q 212 673 257 632 q 160 788 167 714 l 246 788 q 332 708 261 708 q 389 728 367 708 q 417 788 411 749 l 504 788 q 450 672 496 713 q 329 632 404 632 z "},"ě":{"ha":639,"x_min":32,"x_max":596,"o":"m 596 250 l 164 250 q 224 128 174 172 q 349 83 274 83 q 455 105 404 83 q 546 164 506 126 l 588 85 q 481 11 543 39 q 343 -17 419 -17 q 183 19 254 -17 q 72 122 113 56 q 32 274 32 188 q 70 426 32 360 q 176 528 108 492 q 325 564 243 564 q 524 486 451 564 q 596 279 596 408 l 596 250 m 469 321 q 429 432 469 392 q 324 472 389 472 q 215 432 258 472 q 164 321 172 392 l 469 321 m 157 846 l 247 846 l 335 693 l 419 846 l 506 846 l 400 626 l 268 626 l 157 846 z "},"ȩ":{"ha":639,"x_min":32,"x_max":596,"o":"m 596 250 l 164 250 q 224 128 174 172 q 349 83 274 83 q 455 105 404 83 q 546 164 506 126 l 588 85 q 490 15 547 42 q 361 -17 432 -12 l 343 -81 q 419 -110 393 -86 q 444 -168 444 -135 q 414 -233 444 -211 q 338 -254 383 -254 q 215 -225 278 -254 l 215 -181 q 294 -196 261 -196 q 347 -158 347 -196 q 267 -114 347 -118 l 306 -15 q 108 74 185 -4 q 32 274 32 153 q 70 426 32 360 q 176 528 108 492 q 325 564 243 564 q 524 486 451 564 q 596 279 596 408 l 596 250 m 469 321 q 429 432 469 392 q 324 472 389 472 q 215 432 258 472 q 164 321 172 392 l 469 321 z "},"ḝ":{"ha":639,"x_min":32,"x_max":596,"o":"m 329 632 q 212 673 257 632 q 160 788 167 714 l 246 788 q 332 708 261 708 q 389 728 367 708 q 417 788 411 749 l 504 788 q 450 672 496 713 q 329 632 404 632 m 596 250 l 164 250 q 224 128 174 172 q 349 83 274 83 q 455 105 404 83 q 546 164 506 126 l 588 85 q 490 15 547 42 q 361 -17 432 -12 l 343 -81 q 419 -110 393 -86 q 444 -168 444 -135 q 414 -233 444 -211 q 338 -254 383 -254 q 215 -225 278 -254 l 215 -181 q 294 -196 261 -196 q 347 -158 347 -196 q 267 -114 347 -118 l 306 -15 q 108 74 185 -4 q 32 274 32 153 q 70 426 32 360 q 176 528 108 492 q 325 564 243 564 q 524 486 451 564 q 596 279 596 408 l 596 250 m 469 321 q 429 432 469 392 q 324 472 389 472 q 215 432 258 472 q 164 321 172 392 l 469 321 z "},"ê":{"ha":639,"x_min":32,"x_max":596,"o":"m 596 250 l 164 250 q 224 128 174 172 q 349 83 274 83 q 455 105 404 83 q 546 164 506 126 l 588 85 q 481 11 543 39 q 343 -17 419 -17 q 183 19 254 -17 q 72 122 113 56 q 32 274 32 188 q 70 426 32 360 q 176 528 108 492 q 325 564 243 564 q 524 486 451 564 q 596 279 596 408 l 596 250 m 469 321 q 429 432 469 392 q 324 472 389 472 q 215 432 258 472 q 164 321 172 392 l 469 321 m 264 853 l 400 853 l 517 628 l 425 628 l 332 797 l 239 628 l 147 628 l 264 853 z "},"ế":{"ha":639,"x_min":32,"x_max":651,"o":"m 596 250 l 164 250 q 224 128 174 172 q 349 83 274 83 q 455 105 404 83 q 546 164 506 126 l 588 85 q 481 11 543 39 q 343 -17 419 -17 q 183 19 254 -17 q 72 122 113 56 q 32 274 32 188 q 70 426 32 360 q 176 528 108 492 q 325 564 243 564 q 524 486 451 564 q 596 279 596 408 l 596 250 m 469 321 q 429 432 469 392 q 324 472 389 472 q 215 432 258 472 q 164 321 172 392 l 469 321 m 536 922 l 651 922 l 550 756 l 476 756 l 536 922 m 267 808 l 397 808 l 514 628 l 422 628 l 332 753 l 242 628 l 150 628 l 267 808 z "},"ệ":{"ha":639,"x_min":32,"x_max":596,"o":"m 596 250 l 164 250 q 224 128 174 172 q 349 83 274 83 q 455 105 404 83 q 546 164 506 126 l 588 85 q 481 11 543 39 q 343 -17 419 -17 q 183 19 254 -17 q 72 122 113 56 q 32 274 32 188 q 70 426 32 360 q 176 528 108 492 q 325 564 243 564 q 524 486 451 564 q 596 279 596 408 l 596 250 m 469 321 q 429 432 469 392 q 324 472 389 472 q 215 432 258 472 q 164 321 172 392 l 469 321 m 338 -215 q 283 -194 304 -215 q 261 -143 261 -174 q 283 -92 261 -112 q 338 -72 304 -72 q 393 -92 372 -72 q 414 -146 414 -111 q 392 -195 414 -175 q 338 -215 371 -215 m 264 853 l 400 853 l 517 628 l 425 628 l 332 797 l 239 628 l 147 628 l 264 853 z "},"ề":{"ha":639,"x_min":32,"x_max":596,"o":"m 596 250 l 164 250 q 224 128 174 172 q 349 83 274 83 q 455 105 404 83 q 546 164 506 126 l 588 85 q 481 11 543 39 q 343 -17 419 -17 q 183 19 254 -17 q 72 122 113 56 q 32 274 32 188 q 70 426 32 360 q 176 528 108 492 q 325 564 243 564 q 524 486 451 564 q 596 279 596 408 l 596 250 m 469 321 q 429 432 469 392 q 324 472 389 472 q 215 432 258 472 q 164 321 172 392 l 469 321 m 507 756 l 407 922 l 522 922 l 582 756 l 507 756 m 267 808 l 397 808 l 514 628 l 422 628 l 332 753 l 242 628 l 150 628 l 267 808 z "},"ể":{"ha":639,"x_min":32,"x_max":596,"o":"m 596 250 l 164 250 q 224 128 174 172 q 349 83 274 83 q 455 105 404 83 q 546 164 506 126 l 588 85 q 481 11 543 39 q 343 -17 419 -17 q 183 19 254 -17 q 72 122 113 56 q 32 274 32 188 q 70 426 32 360 q 176 528 108 492 q 325 564 243 564 q 524 486 451 564 q 596 279 596 408 l 596 250 m 469 321 q 429 432 469 392 q 324 472 389 472 q 215 432 258 472 q 164 321 172 392 l 469 321 m 465 800 q 501 820 489 808 q 513 851 513 832 q 499 880 513 869 q 463 890 485 890 q 397 871 429 890 l 376 932 q 476 963 422 963 q 562 933 529 963 q 594 858 594 904 q 485 739 594 769 l 465 800 m 267 808 l 397 808 l 514 628 l 422 628 l 332 753 l 242 628 l 150 628 l 267 808 z "},"ễ":{"ha":639,"x_min":32,"x_max":596,"o":"m 596 250 l 164 250 q 224 128 174 172 q 349 83 274 83 q 455 105 404 83 q 546 164 506 126 l 588 85 q 481 11 543 39 q 343 -17 419 -17 q 183 19 254 -17 q 72 122 113 56 q 32 274 32 188 q 70 426 32 360 q 176 528 108 492 q 325 564 243 564 q 524 486 451 564 q 596 279 596 408 l 596 250 m 469 321 q 429 432 469 392 q 324 472 389 472 q 215 432 258 472 q 164 321 172 392 l 469 321 m 424 850 q 378 857 401 850 q 318 879 356 864 q 238 903 263 903 q 192 854 197 903 l 133 854 q 168 957 139 924 q 244 990 197 990 q 284 983 264 990 q 344 961 304 976 q 422 938 400 938 q 458 949 444 938 q 476 986 471 960 l 532 986 q 499 886 526 922 q 424 850 472 850 m 267 808 l 397 808 l 514 628 l 422 628 l 332 753 l 242 628 l 150 628 l 267 808 z "},"ȅ":{"ha":639,"x_min":32,"x_max":596,"o":"m 596 250 l 164 250 q 224 128 174 172 q 349 83 274 83 q 455 105 404 83 q 546 164 506 126 l 588 85 q 481 11 543 39 q 343 -17 419 -17 q 183 19 254 -17 q 72 122 113 56 q 32 274 32 188 q 70 426 32 360 q 176 528 108 492 q 325 564 243 564 q 524 486 451 564 q 596 279 596 408 l 596 250 m 469 321 q 429 432 469 392 q 324 472 389 472 q 215 432 258 472 q 164 321 172 392 l 469 321 m 42 878 l 179 878 l 253 657 l 174 657 l 42 878 m 253 878 l 389 878 l 463 657 l 383 657 l 253 878 z "},"ë":{"ha":639,"x_min":32,"x_max":596,"o":"m 596 250 l 164 250 q 224 128 174 172 q 349 83 274 83 q 455 105 404 83 q 546 164 506 126 l 588 85 q 481 11 543 39 q 343 -17 419 -17 q 183 19 254 -17 q 72 122 113 56 q 32 274 32 188 q 70 426 32 360 q 176 528 108 492 q 325 564 243 564 q 524 486 451 564 q 596 279 596 408 l 596 250 m 469 321 q 429 432 469 392 q 324 472 389 472 q 215 432 258 472 q 164 321 172 392 l 469 321 m 189 643 q 134 662 156 643 q 113 714 113 681 q 133 767 113 747 q 189 786 154 786 q 243 767 222 786 q 264 714 264 747 q 243 662 264 681 q 189 643 222 643 m 475 643 q 422 662 442 643 q 401 714 401 681 q 422 767 401 747 q 475 786 442 786 q 531 767 510 786 q 551 714 551 747 q 530 662 551 681 q 475 643 508 643 z "},"ė":{"ha":639,"x_min":32,"x_max":596,"o":"m 596 250 l 164 250 q 224 128 174 172 q 349 83 274 83 q 455 105 404 83 q 546 164 506 126 l 588 85 q 481 11 543 39 q 343 -17 419 -17 q 183 19 254 -17 q 72 122 113 56 q 32 274 32 188 q 70 426 32 360 q 176 528 108 492 q 325 564 243 564 q 524 486 451 564 q 596 279 596 408 l 596 250 m 469 321 q 429 432 469 392 q 324 472 389 472 q 215 432 258 472 q 164 321 172 392 l 469 321 m 332 646 q 275 667 297 646 q 253 721 253 689 q 275 776 253 754 q 332 797 297 797 q 390 776 368 797 q 411 718 411 754 q 389 667 411 688 q 332 646 367 646 z "},"ẹ":{"ha":639,"x_min":32,"x_max":596,"o":"m 596 250 l 164 250 q 224 128 174 172 q 349 83 274 83 q 455 105 404 83 q 546 164 506 126 l 588 85 q 481 11 543 39 q 343 -17 419 -17 q 183 19 254 -17 q 72 122 113 56 q 32 274 32 188 q 70 426 32 360 q 176 528 108 492 q 325 564 243 564 q 524 486 451 564 q 596 279 596 408 l 596 250 m 469 321 q 429 432 469 392 q 324 472 389 472 q 215 432 258 472 q 164 321 172 392 l 469 321 m 338 -215 q 283 -194 304 -215 q 261 -143 261 -174 q 283 -92 261 -112 q 338 -72 304 -72 q 393 -92 372 -72 q 414 -146 414 -111 q 392 -195 414 -175 q 338 -215 371 -215 z "},"è":{"ha":639,"x_min":32,"x_max":596,"o":"m 596 250 l 164 250 q 224 128 174 172 q 349 83 274 83 q 455 105 404 83 q 546 164 506 126 l 588 85 q 481 11 543 39 q 343 -17 419 -17 q 183 19 254 -17 q 72 122 113 56 q 32 274 32 188 q 70 426 32 360 q 176 528 108 492 q 325 564 243 564 q 524 486 451 564 q 596 279 596 408 l 596 250 m 469 321 q 429 432 469 392 q 324 472 389 472 q 215 432 258 472 q 164 321 172 392 l 469 321 m 164 869 l 300 869 l 371 657 l 290 657 l 164 869 z "},"ẻ":{"ha":639,"x_min":32,"x_max":596,"o":"m 596 250 l 164 250 q 224 128 174 172 q 349 83 274 83 q 455 105 404 83 q 546 164 506 126 l 588 85 q 481 11 543 39 q 343 -17 419 -17 q 183 19 254 -17 q 72 122 113 56 q 32 274 32 188 q 70 426 32 360 q 176 528 108 492 q 325 564 243 564 q 524 486 451 564 q 596 279 596 408 l 596 250 m 469 321 q 429 432 469 392 q 324 472 389 472 q 215 432 258 472 q 164 321 172 392 l 469 321 m 310 669 q 345 690 333 678 q 357 721 357 701 q 343 749 357 739 q 307 760 329 760 q 242 740 274 760 l 221 801 q 321 832 267 832 q 406 803 374 832 q 439 728 439 774 q 329 608 439 639 l 310 669 z "},"ȇ":{"ha":639,"x_min":32,"x_max":596,"o":"m 596 250 l 164 250 q 224 128 174 172 q 349 83 274 83 q 455 105 404 83 q 546 164 506 126 l 588 85 q 481 11 543 39 q 343 -17 419 -17 q 183 19 254 -17 q 72 122 113 56 q 32 274 32 188 q 70 426 32 360 q 176 528 108 492 q 325 564 243 564 q 524 486 451 564 q 596 279 596 408 l 596 250 m 469 321 q 429 432 469 392 q 324 472 389 472 q 215 432 258 472 q 164 321 172 392 l 469 321 m 156 624 q 208 746 161 701 q 332 790 256 790 q 454 746 407 790 q 507 624 501 701 l 414 624 q 332 699 401 699 q 276 679 297 699 q 249 624 256 660 l 156 624 z "},"ē":{"ha":639,"x_min":32,"x_max":596,"o":"m 596 250 l 164 250 q 224 128 174 172 q 349 83 274 83 q 455 105 404 83 q 546 164 506 126 l 588 85 q 481 11 543 39 q 343 -17 419 -17 q 183 19 254 -17 q 72 122 113 56 q 32 274 32 188 q 70 426 32 360 q 176 528 108 492 q 325 564 243 564 q 524 486 451 564 q 596 279 596 408 l 596 250 m 469 321 q 429 432 469 392 q 324 472 389 472 q 215 432 258 472 q 164 321 172 392 l 469 321 m 176 731 l 488 731 l 488 656 l 176 656 l 176 731 z "},"ḗ":{"ha":639,"x_min":32,"x_max":596,"o":"m 596 250 l 164 250 q 224 128 174 172 q 349 83 274 83 q 455 105 404 83 q 546 164 506 126 l 588 85 q 481 11 543 39 q 343 -17 419 -17 q 183 19 254 -17 q 72 122 113 56 q 32 274 32 188 q 70 426 32 360 q 176 528 108 492 q 325 564 243 564 q 524 486 451 564 q 596 279 596 408 l 596 250 m 469 321 q 429 432 469 392 q 324 472 389 472 q 215 432 258 472 q 164 321 172 392 l 469 321 m 176 731 l 488 731 l 488 656 l 176 656 l 176 731 m 363 1039 l 500 1039 l 372 826 l 293 826 l 363 1039 z "},"ḕ":{"ha":639,"x_min":32,"x_max":596,"o":"m 596 250 l 164 250 q 224 128 174 172 q 349 83 274 83 q 455 105 404 83 q 546 164 506 126 l 588 85 q 481 11 543 39 q 343 -17 419 -17 q 183 19 254 -17 q 72 122 113 56 q 32 274 32 188 q 70 426 32 360 q 176 528 108 492 q 325 564 243 564 q 524 486 451 564 q 596 279 596 408 l 596 250 m 469 321 q 429 432 469 392 q 324 472 389 472 q 215 432 258 472 q 164 321 172 392 l 469 321 m 176 731 l 488 731 l 488 656 l 176 656 l 176 731 m 164 1039 l 300 1039 l 371 826 l 290 826 l 164 1039 z "},"ę":{"ha":639,"x_min":32,"x_max":596,"o":"m 596 250 l 164 250 q 224 128 174 172 q 349 83 274 83 q 455 105 404 83 q 546 164 506 126 l 588 85 q 378 -15 501 -4 q 336 -104 336 -65 q 354 -149 336 -133 q 403 -164 372 -164 q 463 -147 433 -164 l 463 -211 q 371 -237 414 -237 q 288 -208 321 -237 q 256 -131 256 -178 q 313 -15 256 -75 q 168 28 232 -10 q 68 129 104 65 q 32 274 32 193 q 70 426 32 360 q 176 528 108 492 q 325 564 243 564 q 524 486 451 564 q 596 279 596 408 l 596 250 m 469 321 q 429 432 469 392 q 324 472 389 472 q 215 432 258 472 q 164 321 172 392 l 469 321 z "},"ẽ":{"ha":639,"x_min":32,"x_max":596,"o":"m 596 250 l 164 250 q 224 128 174 172 q 349 83 274 83 q 455 105 404 83 q 546 164 506 126 l 588 85 q 481 11 543 39 q 343 -17 419 -17 q 183 19 254 -17 q 72 122 113 56 q 32 274 32 188 q 70 426 32 360 q 176 528 108 492 q 325 564 243 564 q 524 486 451 564 q 596 279 596 408 l 596 250 m 469 321 q 429 432 469 392 q 324 472 389 472 q 215 432 258 472 q 164 321 172 392 l 469 321 m 422 653 q 375 660 399 653 q 313 683 351 668 q 232 708 257 708 q 186 660 192 708 l 128 660 q 165 768 133 733 q 246 803 196 803 q 286 796 265 803 q 326 782 307 789 q 350 772 344 775 q 383 758 356 769 q 428 747 411 747 q 463 759 450 747 q 482 799 476 771 l 538 799 q 503 692 532 731 q 422 653 474 653 z "},"ə":{"ha":639,"x_min":43,"x_max":606,"o":"m 307 565 q 461 530 393 565 q 567 429 529 494 q 606 278 606 364 q 568 124 606 190 q 465 21 531 57 q 319 -15 400 -15 q 117 63 190 -15 q 43 269 43 140 l 43 299 l 476 299 q 420 421 468 376 q 300 465 372 465 q 188 443 242 465 q 93 385 135 421 l 51 464 q 164 537 99 508 q 307 565 229 565 m 324 76 q 425 117 385 76 q 475 228 465 157 l 168 228 q 211 117 168 157 q 324 76 254 76 z "},"f":{"ha":439,"x_min":49,"x_max":508,"o":"m 49 86 l 147 86 l 147 463 l 50 463 l 50 549 l 147 549 l 147 653 q 194 786 147 738 q 336 835 242 835 q 456 801 410 835 q 508 696 503 767 l 408 671 q 388 730 403 710 q 343 750 374 750 q 278 653 278 750 l 278 549 l 436 549 l 436 463 l 278 463 l 278 86 l 407 86 l 407 0 l 49 0 l 49 86 z "},"ḟ":{"ha":439,"x_min":49,"x_max":508,"o":"m 49 86 l 147 86 l 147 463 l 50 463 l 50 549 l 147 549 l 147 653 q 194 786 147 738 q 336 835 242 835 q 456 801 410 835 q 508 696 503 767 l 408 671 q 388 730 403 710 q 343 750 374 750 q 278 653 278 750 l 278 549 l 436 549 l 436 463 l 278 463 l 278 86 l 407 86 l 407 0 l 49 0 l 49 86 m 336 918 q 279 940 301 918 q 257 993 257 961 q 279 1048 257 1026 q 336 1069 301 1069 q 394 1048 372 1069 q 415 990 415 1026 q 393 939 415 960 q 336 918 371 918 z "},"g":{"ha":721,"x_min":39,"x_max":706,"o":"m 706 549 l 706 463 l 621 463 l 621 -1 q 543 -199 621 -133 q 333 -264 465 -264 q 117 -228 232 -264 l 140 -135 q 321 -167 243 -167 q 447 -128 403 -167 q 490 -14 490 -90 l 490 51 q 315 -6 414 -6 q 174 28 236 -6 q 75 127 111 63 q 39 278 39 192 q 74 430 39 365 q 172 528 110 494 q 313 561 233 561 q 409 544 361 561 q 492 499 457 528 l 492 549 l 706 549 m 175 272 q 224 139 175 188 q 349 90 272 90 q 490 136 426 90 l 489 417 q 339 467 414 467 q 220 416 265 467 q 175 272 175 365 z "},"ǵ":{"ha":721,"x_min":39,"x_max":706,"o":"m 706 549 l 706 463 l 621 463 l 621 -1 q 543 -199 621 -133 q 333 -264 465 -264 q 117 -228 232 -264 l 140 -135 q 321 -167 243 -167 q 447 -128 403 -167 q 490 -14 490 -90 l 490 51 q 315 -6 414 -6 q 174 28 236 -6 q 75 127 111 63 q 39 278 39 192 q 74 430 39 365 q 172 528 110 494 q 313 561 233 561 q 409 544 361 561 q 492 499 457 528 l 492 549 l 706 549 m 175 272 q 224 139 175 188 q 349 90 272 90 q 490 136 426 90 l 489 417 q 339 467 414 467 q 220 416 265 467 q 175 272 175 365 m 383 869 l 521 869 l 393 657 l 314 657 l 383 869 z "},"ğ":{"ha":721,"x_min":39,"x_max":706,"o":"m 706 549 l 706 463 l 621 463 l 621 -1 q 543 -199 621 -133 q 333 -264 465 -264 q 117 -228 232 -264 l 140 -135 q 321 -167 243 -167 q 447 -128 403 -167 q 490 -14 490 -90 l 490 51 q 315 -6 414 -6 q 174 28 236 -6 q 75 127 111 63 q 39 278 39 192 q 74 430 39 365 q 172 528 110 494 q 313 561 233 561 q 409 544 361 561 q 492 499 457 528 l 492 549 l 706 549 m 175 272 q 224 139 175 188 q 349 90 272 90 q 490 136 426 90 l 489 417 q 339 467 414 467 q 220 416 265 467 q 175 272 175 365 m 350 632 q 233 673 278 632 q 181 788 188 714 l 267 788 q 353 708 282 708 q 410 728 388 708 q 438 788 432 749 l 525 788 q 471 672 517 713 q 350 632 425 632 z "},"ǧ":{"ha":721,"x_min":39,"x_max":706,"o":"m 706 549 l 706 463 l 621 463 l 621 -1 q 543 -199 621 -133 q 333 -264 465 -264 q 117 -228 232 -264 l 140 -135 q 321 -167 243 -167 q 447 -128 403 -167 q 490 -14 490 -90 l 490 51 q 315 -6 414 -6 q 174 28 236 -6 q 75 127 111 63 q 39 278 39 192 q 74 430 39 365 q 172 528 110 494 q 313 561 233 561 q 409 544 361 561 q 492 499 457 528 l 492 549 l 706 549 m 175 272 q 224 139 175 188 q 349 90 272 90 q 490 136 426 90 l 489 417 q 339 467 414 467 q 220 416 265 467 q 175 272 175 365 m 178 846 l 268 846 l 356 693 l 440 846 l 526 846 l 421 626 l 289 626 l 178 846 z "},"ĝ":{"ha":721,"x_min":39,"x_max":706,"o":"m 706 549 l 706 463 l 621 463 l 621 -1 q 543 -199 621 -133 q 333 -264 465 -264 q 117 -228 232 -264 l 140 -135 q 321 -167 243 -167 q 447 -128 403 -167 q 490 -14 490 -90 l 490 51 q 315 -6 414 -6 q 174 28 236 -6 q 75 127 111 63 q 39 278 39 192 q 74 430 39 365 q 172 528 110 494 q 313 561 233 561 q 409 544 361 561 q 492 499 457 528 l 492 549 l 706 549 m 175 272 q 224 139 175 188 q 349 90 272 90 q 490 136 426 90 l 489 417 q 339 467 414 467 q 220 416 265 467 q 175 272 175 365 m 285 853 l 421 853 l 538 628 l 446 628 l 353 797 l 260 628 l 168 628 l 285 853 z "},"ģ":{"ha":721,"x_min":39,"x_max":706,"o":"m 706 549 l 706 463 l 621 463 l 621 -1 q 543 -199 621 -133 q 333 -264 465 -264 q 117 -228 232 -264 l 140 -135 q 321 -167 243 -167 q 447 -128 403 -167 q 490 -14 490 -90 l 490 51 q 315 -6 414 -6 q 174 28 236 -6 q 75 127 111 63 q 39 278 39 192 q 74 430 39 365 q 172 528 110 494 q 313 561 233 561 q 409 544 361 561 q 492 499 457 528 l 492 549 l 706 549 m 175 272 q 224 139 175 188 q 349 90 272 90 q 490 136 426 90 l 489 417 q 339 467 414 467 q 220 416 265 467 q 175 272 175 365 m 425 888 q 365 858 383 882 q 346 790 346 835 l 425 790 l 425 658 l 276 658 l 276 785 q 425 939 276 939 l 425 888 z "},"ġ":{"ha":721,"x_min":39,"x_max":706,"o":"m 706 549 l 706 463 l 621 463 l 621 -1 q 543 -199 621 -133 q 333 -264 465 -264 q 117 -228 232 -264 l 140 -135 q 321 -167 243 -167 q 447 -128 403 -167 q 490 -14 490 -90 l 490 51 q 315 -6 414 -6 q 174 28 236 -6 q 75 127 111 63 q 39 278 39 192 q 74 430 39 365 q 172 528 110 494 q 313 561 233 561 q 409 544 361 561 q 492 499 457 528 l 492 549 l 706 549 m 175 272 q 224 139 175 188 q 349 90 272 90 q 490 136 426 90 l 489 417 q 339 467 414 467 q 220 416 265 467 q 175 272 175 365 m 353 646 q 296 667 318 646 q 274 721 274 689 q 296 776 274 754 q 353 797 318 797 q 410 776 389 797 q 432 718 432 754 q 410 667 432 688 q 353 646 388 646 z "},"ḡ":{"ha":721,"x_min":39,"x_max":706,"o":"m 706 549 l 706 463 l 621 463 l 621 -1 q 543 -199 621 -133 q 333 -264 465 -264 q 117 -228 232 -264 l 140 -135 q 321 -167 243 -167 q 447 -128 403 -167 q 490 -14 490 -90 l 490 51 q 315 -6 414 -6 q 174 28 236 -6 q 75 127 111 63 q 39 278 39 192 q 74 430 39 365 q 172 528 110 494 q 313 561 233 561 q 409 544 361 561 q 492 499 457 528 l 492 549 l 706 549 m 175 272 q 224 139 175 188 q 349 90 272 90 q 490 136 426 90 l 489 417 q 339 467 414 467 q 220 416 265 467 q 175 272 175 365 m 197 731 l 508 731 l 508 656 l 197 656 l 197 731 z "},"h":{"ha":731,"x_min":17,"x_max":715,"o":"m 715 86 l 715 0 l 410 0 l 410 86 l 492 86 l 492 354 q 467 437 492 407 q 397 467 442 467 q 240 413 325 467 l 240 86 l 321 86 l 321 0 l 17 0 l 17 86 l 110 86 l 110 715 l 18 715 l 18 801 l 240 801 l 240 493 q 439 563 347 563 q 571 513 519 563 q 622 378 622 463 l 622 86 l 715 86 z "},"ħ":{"ha":731,"x_min":17,"x_max":715,"o":"m 715 86 l 715 0 l 410 0 l 410 86 l 492 86 l 492 354 q 467 437 492 407 q 397 467 442 467 q 240 413 325 467 l 240 86 l 321 86 l 321 0 l 17 0 l 17 86 l 110 86 l 110 715 l 18 715 l 18 801 l 240 801 l 240 493 q 439 563 347 563 q 571 513 519 563 q 622 378 622 463 l 622 86 l 715 86 m 19 985 l 331 985 l 331 910 l 19 910 l 19 985 z "},"ḫ":{"ha":731,"x_min":17,"x_max":715,"o":"m 715 86 l 715 0 l 410 0 l 410 86 l 492 86 l 492 354 q 467 437 492 407 q 397 467 442 467 q 240 413 325 467 l 240 86 l 321 86 l 321 0 l 17 0 l 17 86 l 110 86 l 110 715 l 18 715 l 18 801 l 240 801 l 240 493 q 439 563 347 563 q 571 513 519 563 q 622 378 622 463 l 622 86 l 715 86 m 364 -226 q 247 -185 292 -226 q 194 -71 201 -144 l 281 -71 q 367 -150 296 -150 q 424 -130 401 -150 q 451 -71 446 -110 l 539 -71 q 485 -186 531 -146 q 364 -226 439 -226 z "},"ȟ":{"ha":731,"x_min":0,"x_max":715,"o":"m 715 86 l 715 0 l 410 0 l 410 86 l 492 86 l 492 354 q 467 437 492 407 q 397 467 442 467 q 240 413 325 467 l 240 86 l 321 86 l 321 0 l 17 0 l 17 86 l 110 86 l 110 715 l 18 715 l 18 801 l 240 801 l 240 493 q 439 563 347 563 q 571 513 519 563 q 622 378 622 463 l 622 86 l 715 86 m 0 1100 l 90 1100 l 178 947 l 263 1100 l 349 1100 l 243 881 l 111 881 l 0 1100 z "},"ĥ":{"ha":731,"x_min":-10,"x_max":715,"o":"m 715 86 l 715 0 l 410 0 l 410 86 l 492 86 l 492 354 q 467 437 492 407 q 397 467 442 467 q 240 413 325 467 l 240 86 l 321 86 l 321 0 l 17 0 l 17 86 l 110 86 l 110 715 l 18 715 l 18 801 l 240 801 l 240 493 q 439 563 347 563 q 571 513 519 563 q 622 378 622 463 l 622 86 l 715 86 m 107 1107 l 243 1107 l 360 882 l 268 882 l 175 1051 l 82 882 l -10 882 l 107 1107 z "},"ḥ":{"ha":731,"x_min":17,"x_max":715,"o":"m 715 86 l 715 0 l 410 0 l 410 86 l 492 86 l 492 354 q 467 437 492 407 q 397 467 442 467 q 240 413 325 467 l 240 86 l 321 86 l 321 0 l 17 0 l 17 86 l 110 86 l 110 715 l 18 715 l 18 801 l 240 801 l 240 493 q 439 563 347 563 q 571 513 519 563 q 622 378 622 463 l 622 86 l 715 86 m 367 -215 q 312 -194 333 -215 q 290 -143 290 -174 q 312 -92 290 -112 q 367 -72 333 -72 q 422 -92 401 -72 q 443 -146 443 -111 q 422 -195 443 -175 q 367 -215 400 -215 z "},"i":{"ha":376,"x_min":28,"x_max":346,"o":"m 176 664 q 114 688 139 664 q 89 746 89 711 q 114 806 89 782 q 176 829 139 829 q 238 806 214 829 q 263 746 263 782 q 239 688 264 711 q 176 664 214 664 m 28 86 l 125 86 l 125 463 l 29 463 l 29 549 l 254 549 l 254 86 l 346 86 l 346 0 l 28 0 l 28 86 z "},"ı":{"ha":379,"x_min":28,"x_max":349,"o":"m 28 89 l 128 89 l 128 460 l 31 460 l 31 549 l 257 549 l 257 89 l 349 89 l 349 0 l 28 0 l 28 89 z "},"í":{"ha":379,"x_min":28,"x_max":350,"o":"m 28 89 l 128 89 l 128 460 l 31 460 l 31 549 l 257 549 l 257 89 l 349 89 l 349 0 l 28 0 l 28 89 m 213 869 l 350 869 l 222 657 l 143 657 l 213 869 z "},"ĭ":{"ha":379,"x_min":10,"x_max":354,"o":"m 28 89 l 128 89 l 128 460 l 31 460 l 31 549 l 257 549 l 257 89 l 349 89 l 349 0 l 28 0 l 28 89 m 179 632 q 62 673 107 632 q 10 788 17 714 l 96 788 q 182 708 111 708 q 239 728 217 708 q 267 788 261 749 l 354 788 q 300 672 346 713 q 179 632 254 632 z "},"ǐ":{"ha":379,"x_min":7,"x_max":356,"o":"m 28 89 l 128 89 l 128 460 l 31 460 l 31 549 l 257 549 l 257 89 l 349 89 l 349 0 l 28 0 l 28 89 m 7 846 l 97 846 l 185 693 l 269 846 l 356 846 l 250 626 l 118 626 l 7 846 z "},"î":{"ha":379,"x_min":-3,"x_max":367,"o":"m 28 89 l 128 89 l 128 460 l 31 460 l 31 549 l 257 549 l 257 89 l 349 89 l 349 0 l 28 0 l 28 89 m 114 853 l 250 853 l 367 628 l 275 628 l 182 797 l 89 628 l -3 628 l 114 853 z "},"ȉ":{"ha":379,"x_min":-108,"x_max":349,"o":"m 28 89 l 128 89 l 128 460 l 31 460 l 31 549 l 257 549 l 257 89 l 349 89 l 349 0 l 28 0 l 28 89 m -108 878 l 29 878 l 103 657 l 24 657 l -108 878 m 103 878 l 239 878 l 313 657 l 233 657 l 103 878 z "},"ï":{"ha":379,"x_min":-37,"x_max":401,"o":"m 28 89 l 128 89 l 128 460 l 31 460 l 31 549 l 257 549 l 257 89 l 349 89 l 349 0 l 28 0 l 28 89 m 39 643 q -16 662 6 643 q -37 714 -37 681 q -17 767 -37 747 q 39 786 4 786 q 93 767 72 786 q 114 714 114 747 q 93 662 114 681 q 39 643 72 643 m 325 643 q 272 662 292 643 q 251 714 251 681 q 272 767 251 747 q 325 786 292 786 q 381 767 360 786 q 401 714 401 747 q 380 662 401 681 q 325 643 358 643 z "},"ḯ":{"ha":379,"x_min":-37,"x_max":401,"o":"m 28 89 l 128 89 l 128 460 l 31 460 l 31 549 l 257 549 l 257 89 l 349 89 l 349 0 l 28 0 l 28 89 m 39 643 q -16 662 6 643 q -37 714 -37 681 q -17 767 -37 747 q 39 786 4 786 q 93 767 72 786 q 114 714 114 747 q 93 662 114 681 q 39 643 72 643 m 325 643 q 272 662 292 643 q 251 714 251 681 q 272 767 251 747 q 325 786 292 786 q 381 767 360 786 q 401 714 401 747 q 380 662 401 681 q 325 643 358 643 m 213 1099 l 350 1099 l 222 886 l 143 886 l 213 1099 z "},"ị":{"ha":376,"x_min":28,"x_max":346,"o":"m 176 664 q 114 688 139 664 q 89 746 89 711 q 114 806 89 782 q 176 829 139 829 q 238 806 214 829 q 263 746 263 782 q 239 688 264 711 q 176 664 214 664 m 28 86 l 125 86 l 125 463 l 29 463 l 29 549 l 254 549 l 254 86 l 346 86 l 346 0 l 28 0 l 28 86 m 190 -215 q 135 -194 157 -215 q 114 -143 114 -174 q 135 -92 114 -112 q 190 -72 157 -72 q 246 -92 225 -72 q 267 -146 267 -111 q 245 -195 267 -175 q 190 -215 224 -215 z "},"ì":{"ha":379,"x_min":14,"x_max":349,"o":"m 28 89 l 128 89 l 128 460 l 31 460 l 31 549 l 257 549 l 257 89 l 349 89 l 349 0 l 28 0 l 28 89 m 14 869 l 150 869 l 221 657 l 140 657 l 14 869 z "},"ỉ":{"ha":379,"x_min":28,"x_max":349,"o":"m 28 89 l 128 89 l 128 460 l 31 460 l 31 549 l 257 549 l 257 89 l 349 89 l 349 0 l 28 0 l 28 89 m 160 669 q 195 690 183 678 q 207 721 207 701 q 193 749 207 739 q 157 760 179 760 q 92 740 124 760 l 71 801 q 171 832 117 832 q 256 803 224 832 q 289 728 289 774 q 179 608 289 639 l 160 669 z "},"ȋ":{"ha":379,"x_min":6,"x_max":357,"o":"m 28 89 l 128 89 l 128 460 l 31 460 l 31 549 l 257 549 l 257 89 l 349 89 l 349 0 l 28 0 l 28 89 m 6 624 q 58 746 11 701 q 182 790 106 790 q 304 746 257 790 q 357 624 351 701 l 264 624 q 182 699 251 699 q 126 679 147 699 q 99 624 106 660 l 6 624 z "},"ĳ":{"ha":740,"x_min":28,"x_max":663,"o":"m 176 664 q 114 688 139 664 q 89 746 89 711 q 114 806 89 782 q 176 829 139 829 q 238 806 214 829 q 263 746 263 782 q 239 688 264 711 q 176 664 214 664 m 28 86 l 125 86 l 125 463 l 29 463 l 29 549 l 254 549 l 254 86 l 346 86 l 346 0 l 28 0 l 28 86 m 575 664 q 513 688 538 664 q 488 747 488 711 q 513 806 488 782 q 575 829 538 829 q 638 806 614 829 q 663 747 663 783 q 638 688 663 711 q 575 664 614 664 m 379 -115 l 436 -115 q 510 -90 490 -115 q 531 -4 531 -65 l 531 460 l 422 460 l 422 549 l 663 549 l 663 21 q 644 -109 663 -58 q 578 -187 626 -160 q 442 -215 531 -215 l 379 -215 l 379 -115 z "},"ī":{"ha":379,"x_min":26,"x_max":349,"o":"m 28 89 l 128 89 l 128 460 l 31 460 l 31 549 l 257 549 l 257 89 l 349 89 l 349 0 l 28 0 l 28 89 m 26 731 l 338 731 l 338 656 l 26 656 l 26 731 z "},"į":{"ha":379,"x_min":28,"x_max":349,"o":"m 28 89 l 128 89 l 128 460 l 31 460 l 31 549 l 257 549 l 257 89 l 349 89 l 349 0 l 28 0 l 28 89 m 171 -244 q 88 -215 121 -244 q 56 -137 56 -185 q 75 -69 56 -103 q 135 0 94 -36 l 197 0 q 136 -111 136 -65 q 154 -156 136 -140 q 203 -171 172 -171 q 263 -154 233 -171 l 263 -218 q 171 -244 214 -244 m 182 646 q 125 667 147 646 q 103 721 103 689 q 125 776 103 754 q 182 797 147 797 q 240 776 218 797 q 261 718 261 754 q 239 667 261 688 q 182 646 217 646 z "},"ĩ":{"ha":379,"x_min":-22,"x_max":388,"o":"m 28 89 l 128 89 l 128 460 l 31 460 l 31 549 l 257 549 l 257 89 l 349 89 l 349 0 l 28 0 l 28 89 m 272 653 q 225 660 249 653 q 163 683 201 668 q 82 708 107 708 q 36 660 42 708 l -22 660 q 15 768 -17 733 q 96 803 46 803 q 136 796 115 803 q 176 782 157 789 q 200 772 194 775 q 233 758 206 769 q 278 747 261 747 q 313 759 300 747 q 332 799 326 771 l 388 799 q 353 692 382 731 q 272 653 324 653 z "},"j":{"ha":364,"x_min":3,"x_max":286,"o":"m 199 664 q 136 688 161 664 q 111 747 111 711 q 136 806 111 782 q 199 829 161 829 q 262 806 238 829 q 286 747 286 783 q 262 688 286 711 q 199 664 238 664 m 3 -115 l 60 -115 q 134 -90 114 -115 q 154 -4 154 -65 l 154 460 l 46 460 l 46 549 l 286 549 l 286 21 q 268 -109 286 -58 q 202 -187 250 -160 q 65 -215 154 -215 l 3 -215 l 3 -115 z "},"ȷ":{"ha":364,"x_min":3,"x_max":286,"o":"m 3 -115 l 60 -115 q 135 -90 115 -115 q 154 0 154 -64 l 154 460 l 43 460 l 43 549 l 286 549 l 286 28 q 269 -105 286 -53 q 205 -186 253 -157 q 65 -215 157 -215 l 3 -215 l 3 -115 z "},"ǰ":{"ha":364,"x_min":3,"x_max":356,"o":"m 3 -115 l 60 -115 q 135 -90 115 -115 q 154 0 154 -64 l 154 460 l 43 460 l 43 549 l 286 549 l 286 28 q 269 -105 286 -53 q 205 -186 253 -157 q 65 -215 157 -215 l 3 -215 l 3 -115 m 7 846 l 97 846 l 185 693 l 269 846 l 356 846 l 250 626 l 118 626 l 7 846 z "},"ĵ":{"ha":364,"x_min":-3,"x_max":367,"o":"m 3 -115 l 60 -115 q 135 -90 115 -115 q 154 0 154 -64 l 154 460 l 43 460 l 43 549 l 286 549 l 286 28 q 269 -105 286 -53 q 205 -186 253 -157 q 65 -215 157 -215 l 3 -215 l 3 -115 m 114 853 l 250 853 l 367 628 l 275 628 l 182 797 l 89 628 l -3 628 l 114 853 z "},"k":{"ha":706,"x_min":32,"x_max":685,"o":"m 32 86 l 126 86 l 126 715 l 35 715 l 35 801 l 257 801 l 257 293 l 478 463 l 385 463 l 385 549 l 682 549 l 682 463 l 606 463 l 388 290 l 590 86 l 685 86 l 685 0 l 515 0 l 257 269 l 257 86 l 340 86 l 340 0 l 32 0 l 32 86 z "},"ǩ":{"ha":706,"x_min":17,"x_max":685,"o":"m 32 86 l 126 86 l 126 715 l 35 715 l 35 801 l 257 801 l 257 293 l 478 463 l 385 463 l 385 549 l 682 549 l 682 463 l 606 463 l 388 290 l 590 86 l 685 86 l 685 0 l 515 0 l 257 269 l 257 86 l 340 86 l 340 0 l 32 0 l 32 86 m 17 1099 l 107 1099 l 194 946 l 279 1099 l 365 1099 l 260 879 l 128 879 l 17 1099 z "},"ķ":{"ha":706,"x_min":32,"x_max":685,"o":"m 32 86 l 126 86 l 126 715 l 35 715 l 35 801 l 257 801 l 257 293 l 478 463 l 385 463 l 385 549 l 682 549 l 682 463 l 606 463 l 388 290 l 590 86 l 685 86 l 685 0 l 515 0 l 257 269 l 257 86 l 340 86 l 340 0 l 32 0 l 32 86 m 310 -301 q 370 -272 351 -296 q 389 -204 389 -249 l 310 -204 l 310 -72 l 458 -72 l 458 -199 q 310 -353 458 -353 l 310 -301 z "},"ĸ":{"ha":764,"x_min":63,"x_max":751,"o":"m 751 89 l 751 0 l 597 0 l 292 261 l 292 89 l 367 89 l 367 0 l 63 0 l 63 89 l 163 89 l 163 457 l 63 457 l 63 546 l 292 546 l 292 275 l 508 457 l 417 457 l 417 546 l 743 546 l 743 457 l 647 457 l 424 275 l 647 89 l 751 89 z "},"l":{"ha":367,"x_min":33,"x_max":340,"o":"m 33 86 l 126 86 l 126 715 l 36 715 l 36 801 l 257 801 l 257 86 l 340 86 l 340 0 l 33 0 l 33 86 z "},"ĺ":{"ha":367,"x_min":33,"x_max":360,"o":"m 33 86 l 126 86 l 126 715 l 36 715 l 36 801 l 257 801 l 257 86 l 340 86 l 340 0 l 33 0 l 33 86 m 222 1124 l 360 1124 l 232 911 l 153 911 l 222 1124 z "},"ľ":{"ha":471,"x_min":33,"x_max":464,"o":"m 33 86 l 126 86 l 126 715 l 36 715 l 36 801 l 257 801 l 257 86 l 340 86 l 340 0 l 33 0 l 33 86 m 313 571 q 375 597 356 576 q 394 665 394 618 l 314 665 l 314 801 l 464 801 l 463 672 q 313 519 465 519 l 313 571 z "},"ļ":{"ha":367,"x_min":33,"x_max":340,"o":"m 33 86 l 126 86 l 126 715 l 36 715 l 36 801 l 257 801 l 257 86 l 340 86 l 340 0 l 33 0 l 33 86 m 117 -301 q 177 -272 158 -296 q 196 -204 196 -249 l 117 -204 l 117 -72 l 265 -72 l 265 -199 q 117 -353 265 -353 l 117 -301 z "},"ŀ":{"ha":392,"x_min":33,"x_max":469,"o":"m 33 86 l 126 86 l 126 715 l 36 715 l 36 801 l 257 801 l 257 86 l 340 86 l 340 0 l 33 0 l 33 86 m 390 378 q 333 399 356 378 q 310 453 310 421 q 333 506 310 485 q 390 528 356 528 q 447 506 425 528 q 469 453 469 485 q 447 399 469 421 q 390 378 425 378 z "},"ḷ":{"ha":367,"x_min":33,"x_max":340,"o":"m 33 86 l 126 86 l 126 715 l 36 715 l 36 801 l 257 801 l 257 86 l 340 86 l 340 0 l 33 0 l 33 86 m 189 -215 q 134 -194 156 -215 q 113 -143 113 -174 q 134 -92 113 -112 q 189 -72 156 -72 q 244 -92 224 -72 q 265 -146 265 -111 q 244 -195 265 -175 q 189 -215 222 -215 z "},"ǉ":{"ha":731,"x_min":33,"x_max":653,"o":"m 33 86 l 126 86 l 126 715 l 36 715 l 36 801 l 257 801 l 257 86 l 340 86 l 340 0 l 33 0 l 33 86 m 565 664 q 503 688 528 664 q 478 747 478 711 q 503 806 478 782 q 565 829 528 829 q 628 806 604 829 q 653 747 653 783 q 628 688 653 711 q 565 664 604 664 m 369 -115 l 426 -115 q 501 -90 481 -115 q 521 -4 521 -65 l 521 460 l 413 460 l 413 549 l 653 549 l 653 21 q 635 -109 653 -58 q 569 -187 617 -160 q 432 -215 521 -215 l 369 -215 l 369 -115 z "},"ḻ":{"ha":367,"x_min":33,"x_max":344,"o":"m 33 86 l 126 86 l 126 715 l 36 715 l 36 801 l 257 801 l 257 86 l 340 86 l 340 0 l 33 0 l 33 86 m 33 -65 l 344 -65 l 344 -140 l 33 -140 l 33 -65 z "},"ł":{"ha":361,"x_min":28,"x_max":360,"o":"m 257 385 l 257 86 l 340 86 l 340 0 l 33 0 l 33 86 l 126 86 l 126 315 l 28 264 l 28 367 l 126 419 l 126 715 l 36 715 l 36 801 l 257 801 l 257 490 l 360 546 l 360 439 l 257 385 z "},"m":{"ha":1104,"x_min":28,"x_max":1099,"o":"m 1099 86 l 1099 0 l 794 0 l 794 86 l 876 86 l 876 354 q 851 437 876 407 q 781 467 825 467 q 624 411 707 467 q 626 375 626 389 l 626 86 l 719 86 l 719 0 l 414 0 l 414 86 l 497 86 l 497 354 q 472 437 497 407 q 401 467 446 467 q 254 418 340 467 l 254 86 l 343 86 l 343 0 l 28 0 l 28 86 l 125 86 l 125 463 l 29 463 l 29 549 l 250 549 l 251 496 q 444 563 351 563 q 540 540 500 563 q 601 476 581 517 q 713 540 660 518 q 825 563 767 563 q 956 513 904 563 q 1007 378 1007 463 l 1007 86 l 1099 86 z "},"ṁ":{"ha":1104,"x_min":28,"x_max":1099,"o":"m 1099 86 l 1099 0 l 794 0 l 794 86 l 876 86 l 876 354 q 851 437 876 407 q 781 467 825 467 q 624 411 707 467 q 626 375 626 389 l 626 86 l 719 86 l 719 0 l 414 0 l 414 86 l 497 86 l 497 354 q 472 437 497 407 q 401 467 446 467 q 254 418 340 467 l 254 86 l 343 86 l 343 0 l 28 0 l 28 86 l 125 86 l 125 463 l 29 463 l 29 549 l 250 549 l 251 496 q 444 563 351 563 q 540 540 500 563 q 601 476 581 517 q 713 540 660 518 q 825 563 767 563 q 956 513 904 563 q 1007 378 1007 463 l 1007 86 l 1099 86 m 583 646 q 526 667 549 646 q 504 721 504 689 q 526 776 504 754 q 583 797 549 797 q 641 776 619 797 q 663 718 663 754 q 640 667 663 688 q 583 646 618 646 z "},"ṃ":{"ha":1104,"x_min":28,"x_max":1099,"o":"m 1099 86 l 1099 0 l 794 0 l 794 86 l 876 86 l 876 354 q 851 437 876 407 q 781 467 825 467 q 624 411 707 467 q 626 375 626 389 l 626 86 l 719 86 l 719 0 l 414 0 l 414 86 l 497 86 l 497 354 q 472 437 497 407 q 401 467 446 467 q 254 418 340 467 l 254 86 l 343 86 l 343 0 l 28 0 l 28 86 l 125 86 l 125 463 l 29 463 l 29 549 l 250 549 l 251 496 q 444 563 351 563 q 540 540 500 563 q 601 476 581 517 q 713 540 660 518 q 825 563 767 563 q 956 513 904 563 q 1007 378 1007 463 l 1007 86 l 1099 86 m 563 -215 q 508 -194 529 -215 q 486 -143 486 -174 q 508 -92 486 -112 q 563 -72 529 -72 q 618 -92 597 -72 q 639 -146 639 -111 q 617 -195 639 -175 q 563 -215 596 -215 z "},"n":{"ha":728,"x_min":28,"x_max":722,"o":"m 722 86 l 722 0 l 418 0 l 418 86 l 500 86 l 500 354 q 474 437 500 407 q 403 467 449 467 q 254 417 336 467 l 254 86 l 343 86 l 343 0 l 28 0 l 28 86 l 125 86 l 125 463 l 28 463 l 28 549 l 250 549 l 251 494 q 447 563 357 563 q 578 513 528 563 q 629 378 629 463 l 629 86 l 722 86 z "},"ń":{"ha":728,"x_min":28,"x_max":722,"o":"m 722 86 l 722 0 l 418 0 l 418 86 l 500 86 l 500 354 q 474 437 500 407 q 403 467 449 467 q 254 417 336 467 l 254 86 l 343 86 l 343 0 l 28 0 l 28 86 l 125 86 l 125 463 l 28 463 l 28 549 l 250 549 l 251 494 q 447 563 357 563 q 578 513 528 563 q 629 378 629 463 l 629 86 l 722 86 m 417 869 l 554 869 l 426 657 l 347 657 l 417 869 z "},"ŉ":{"ha":1042,"x_min":139,"x_max":1036,"o":"m 139 661 q 201 688 182 667 q 221 756 221 708 l 140 756 l 140 892 l 290 892 l 289 763 q 139 610 292 610 l 139 661 m 1036 86 l 1036 0 l 732 0 l 732 86 l 814 86 l 814 354 q 788 437 814 407 q 717 467 763 467 q 568 417 650 467 l 568 86 l 657 86 l 657 0 l 342 0 l 342 86 l 439 86 l 439 463 l 342 463 l 342 549 l 564 549 l 565 494 q 761 563 671 563 q 892 513 842 563 q 943 378 943 463 l 943 86 l 1036 86 z "},"ň":{"ha":728,"x_min":28,"x_max":722,"o":"m 722 86 l 722 0 l 418 0 l 418 86 l 500 86 l 500 354 q 474 437 500 407 q 403 467 449 467 q 254 417 336 467 l 254 86 l 343 86 l 343 0 l 28 0 l 28 86 l 125 86 l 125 463 l 28 463 l 28 549 l 250 549 l 251 494 q 447 563 357 563 q 578 513 528 563 q 629 378 629 463 l 629 86 l 722 86 m 211 846 l 301 846 l 389 693 l 474 846 l 560 846 l 454 626 l 322 626 l 211 846 z "},"ņ":{"ha":728,"x_min":28,"x_max":722,"o":"m 722 86 l 722 0 l 418 0 l 418 86 l 500 86 l 500 354 q 474 437 500 407 q 403 467 449 467 q 254 417 336 467 l 254 86 l 343 86 l 343 0 l 28 0 l 28 86 l 125 86 l 125 463 l 28 463 l 28 549 l 250 549 l 251 494 q 447 563 357 563 q 578 513 528 563 q 629 378 629 463 l 629 86 l 722 86 m 315 -301 q 376 -272 357 -296 q 394 -204 394 -249 l 315 -204 l 315 -72 l 464 -72 l 464 -199 q 315 -353 464 -353 l 315 -301 z "},"ṅ":{"ha":728,"x_min":28,"x_max":722,"o":"m 722 86 l 722 0 l 418 0 l 418 86 l 500 86 l 500 354 q 474 437 500 407 q 403 467 449 467 q 254 417 336 467 l 254 86 l 343 86 l 343 0 l 28 0 l 28 86 l 125 86 l 125 463 l 28 463 l 28 549 l 250 549 l 251 494 q 447 563 357 563 q 578 513 528 563 q 629 378 629 463 l 629 86 l 722 86 m 386 646 q 329 667 351 646 q 307 721 307 689 q 329 776 307 754 q 386 797 351 797 q 444 776 422 797 q 465 718 465 754 q 443 667 465 688 q 386 646 421 646 z "},"ṇ":{"ha":728,"x_min":28,"x_max":722,"o":"m 722 86 l 722 0 l 418 0 l 418 86 l 500 86 l 500 354 q 474 437 500 407 q 403 467 449 467 q 254 417 336 467 l 254 86 l 343 86 l 343 0 l 28 0 l 28 86 l 125 86 l 125 463 l 28 463 l 28 549 l 250 549 l 251 494 q 447 563 357 563 q 578 513 528 563 q 629 378 629 463 l 629 86 l 722 86 m 388 -215 q 333 -194 354 -215 q 311 -143 311 -174 q 333 -92 311 -112 q 388 -72 354 -72 q 443 -92 422 -72 q 464 -146 464 -111 q 442 -195 464 -175 q 388 -215 421 -215 z "},"ǹ":{"ha":728,"x_min":28,"x_max":722,"o":"m 722 86 l 722 0 l 418 0 l 418 86 l 500 86 l 500 354 q 474 437 500 407 q 403 467 449 467 q 254 417 336 467 l 254 86 l 343 86 l 343 0 l 28 0 l 28 86 l 125 86 l 125 463 l 28 463 l 28 549 l 250 549 l 251 494 q 447 563 357 563 q 578 513 528 563 q 629 378 629 463 l 629 86 l 722 86 m 218 869 l 354 869 l 425 657 l 344 657 l 218 869 z "},"ŋ":{"ha":731,"x_min":28,"x_max":633,"o":"m 332 -132 q 463 -93 422 -132 q 504 33 504 -54 l 504 354 q 478 437 504 407 q 406 467 451 467 q 254 418 342 467 l 254 86 l 343 86 l 343 0 l 28 0 l 28 86 l 125 86 l 125 463 l 29 463 l 29 549 l 250 549 l 251 496 q 449 563 360 563 q 582 513 531 563 q 633 378 633 463 l 633 40 q 551 -163 633 -101 q 332 -225 469 -225 l 332 -132 z "},"ǌ":{"ha":1092,"x_min":28,"x_max":1014,"o":"m 722 86 l 722 0 l 418 0 l 418 86 l 500 86 l 500 354 q 474 437 500 407 q 403 467 449 467 q 254 417 336 467 l 254 86 l 343 86 l 343 0 l 28 0 l 28 86 l 125 86 l 125 463 l 28 463 l 28 549 l 250 549 l 251 494 q 447 563 357 563 q 578 513 528 563 q 629 378 629 463 l 629 86 l 722 86 m 926 664 q 864 688 889 664 q 839 747 839 711 q 864 806 839 782 q 926 829 889 829 q 990 806 965 829 q 1014 747 1014 783 q 990 688 1014 711 q 926 664 965 664 m 731 -115 l 788 -115 q 862 -90 842 -115 q 882 -4 882 -65 l 882 460 l 774 460 l 774 549 l 1014 549 l 1014 21 q 996 -109 1014 -58 q 930 -187 978 -160 q 793 -215 882 -215 l 731 -215 l 731 -115 z "},"ṉ":{"ha":728,"x_min":28,"x_max":722,"o":"m 722 86 l 722 0 l 418 0 l 418 86 l 500 86 l 500 354 q 474 437 500 407 q 403 467 449 467 q 254 417 336 467 l 254 86 l 343 86 l 343 0 l 28 0 l 28 86 l 125 86 l 125 463 l 28 463 l 28 549 l 250 549 l 251 494 q 447 563 357 563 q 578 513 528 563 q 629 378 629 463 l 629 86 l 722 86 m 232 -65 l 543 -65 l 543 -140 l 232 -140 l 232 -65 z "},"ñ":{"ha":728,"x_min":28,"x_max":722,"o":"m 722 86 l 722 0 l 418 0 l 418 86 l 500 86 l 500 354 q 474 437 500 407 q 403 467 449 467 q 254 417 336 467 l 254 86 l 343 86 l 343 0 l 28 0 l 28 86 l 125 86 l 125 463 l 28 463 l 28 549 l 250 549 l 251 494 q 447 563 357 563 q 578 513 528 563 q 629 378 629 463 l 629 86 l 722 86 m 476 653 q 429 660 453 653 q 367 683 406 668 q 286 708 311 708 q 240 660 246 708 l 182 660 q 219 768 188 733 q 300 803 250 803 q 340 796 319 803 q 380 782 361 789 q 404 772 399 775 q 438 758 410 769 q 482 747 465 747 q 517 759 504 747 q 536 799 531 771 l 592 799 q 557 692 586 731 q 476 653 528 653 z "},"o":{"ha":664,"x_min":32,"x_max":631,"o":"m 331 -17 q 174 19 242 -17 q 69 122 107 56 q 32 275 32 189 q 69 426 32 361 q 174 528 107 492 q 331 564 242 564 q 488 528 419 564 q 593 426 556 492 q 631 276 631 361 q 593 124 631 190 q 488 20 556 57 q 331 -17 419 -17 m 331 85 q 456 137 408 85 q 503 276 503 189 q 456 412 503 361 q 331 463 408 463 q 207 411 253 463 q 161 275 161 360 q 208 137 161 189 q 331 85 254 85 z "},"ó":{"ha":664,"x_min":32,"x_max":631,"o":"m 331 -17 q 174 19 242 -17 q 69 122 107 56 q 32 275 32 189 q 69 426 32 361 q 174 528 107 492 q 331 564 242 564 q 488 528 419 564 q 593 426 556 492 q 631 276 631 361 q 593 124 631 190 q 488 20 556 57 q 331 -17 419 -17 m 331 85 q 456 137 408 85 q 503 276 503 189 q 456 412 503 361 q 331 463 408 463 q 207 411 253 463 q 161 275 161 360 q 208 137 161 189 q 331 85 254 85 m 361 869 l 499 869 l 371 657 l 292 657 l 361 869 z "},"ŏ":{"ha":664,"x_min":32,"x_max":631,"o":"m 331 -17 q 174 19 242 -17 q 69 122 107 56 q 32 275 32 189 q 69 426 32 361 q 174 528 107 492 q 331 564 242 564 q 488 528 419 564 q 593 426 556 492 q 631 276 631 361 q 593 124 631 190 q 488 20 556 57 q 331 -17 419 -17 m 331 85 q 456 137 408 85 q 503 276 503 189 q 456 412 503 361 q 331 463 408 463 q 207 411 253 463 q 161 275 161 360 q 208 137 161 189 q 331 85 254 85 m 328 632 q 210 673 256 632 q 158 788 165 714 l 244 788 q 331 708 260 708 q 388 728 365 708 q 415 788 410 749 l 503 788 q 449 672 494 713 q 328 632 403 632 z "},"ǒ":{"ha":664,"x_min":32,"x_max":631,"o":"m 331 -17 q 174 19 242 -17 q 69 122 107 56 q 32 275 32 189 q 69 426 32 361 q 174 528 107 492 q 331 564 242 564 q 488 528 419 564 q 593 426 556 492 q 631 276 631 361 q 593 124 631 190 q 488 20 556 57 q 331 -17 419 -17 m 331 85 q 456 137 408 85 q 503 276 503 189 q 456 412 503 361 q 331 463 408 463 q 207 411 253 463 q 161 275 161 360 q 208 137 161 189 q 331 85 254 85 m 156 846 l 246 846 l 333 693 l 418 846 l 504 846 l 399 626 l 267 626 l 156 846 z "},"ô":{"ha":664,"x_min":32,"x_max":631,"o":"m 331 -17 q 174 19 242 -17 q 69 122 107 56 q 32 275 32 189 q 69 426 32 361 q 174 528 107 492 q 331 564 242 564 q 488 528 419 564 q 593 426 556 492 q 631 276 631 361 q 593 124 631 190 q 488 20 556 57 q 331 -17 419 -17 m 331 85 q 456 137 408 85 q 503 276 503 189 q 456 412 503 361 q 331 463 408 463 q 207 411 253 463 q 161 275 161 360 q 208 137 161 189 q 331 85 254 85 m 263 853 l 399 853 l 515 628 l 424 628 l 331 797 l 238 628 l 146 628 l 263 853 z "},"ố":{"ha":664,"x_min":32,"x_max":650,"o":"m 331 -17 q 174 19 242 -17 q 69 122 107 56 q 32 275 32 189 q 69 426 32 361 q 174 528 107 492 q 331 564 242 564 q 488 528 419 564 q 593 426 556 492 q 631 276 631 361 q 593 124 631 190 q 488 20 556 57 q 331 -17 419 -17 m 331 85 q 456 137 408 85 q 503 276 503 189 q 456 412 503 361 q 331 463 408 463 q 207 411 253 463 q 161 275 161 360 q 208 137 161 189 q 331 85 254 85 m 535 922 l 650 922 l 549 756 l 475 756 l 535 922 m 265 808 l 396 808 l 513 628 l 421 628 l 331 753 l 240 628 l 149 628 l 265 808 z "},"ộ":{"ha":664,"x_min":32,"x_max":631,"o":"m 331 -17 q 174 19 242 -17 q 69 122 107 56 q 32 275 32 189 q 69 426 32 361 q 174 528 107 492 q 331 564 242 564 q 488 528 419 564 q 593 426 556 492 q 631 276 631 361 q 593 124 631 190 q 488 20 556 57 q 331 -17 419 -17 m 331 85 q 456 137 408 85 q 503 276 503 189 q 456 412 503 361 q 331 463 408 463 q 207 411 253 463 q 161 275 161 360 q 208 137 161 189 q 331 85 254 85 m 332 -215 q 277 -194 299 -215 q 256 -143 256 -174 q 277 -92 256 -112 q 332 -72 299 -72 q 388 -92 367 -72 q 408 -146 408 -111 q 387 -195 408 -175 q 332 -215 365 -215 m 263 853 l 399 853 l 515 628 l 424 628 l 331 797 l 238 628 l 146 628 l 263 853 z "},"ồ":{"ha":664,"x_min":32,"x_max":631,"o":"m 331 -17 q 174 19 242 -17 q 69 122 107 56 q 32 275 32 189 q 69 426 32 361 q 174 528 107 492 q 331 564 242 564 q 488 528 419 564 q 593 426 556 492 q 631 276 631 361 q 593 124 631 190 q 488 20 556 57 q 331 -17 419 -17 m 331 85 q 456 137 408 85 q 503 276 503 189 q 456 412 503 361 q 331 463 408 463 q 207 411 253 463 q 161 275 161 360 q 208 137 161 189 q 331 85 254 85 m 506 756 l 406 922 l 521 922 l 581 756 l 506 756 m 265 808 l 396 808 l 513 628 l 421 628 l 331 753 l 240 628 l 149 628 l 265 808 z "}}}
